<?xml version="1.0" standalone="no"?>
<!DOCTYPE svg PUBLIC "-//W3C//DTD SVG 1.1//EN" "http://www.w3.org/Graphics/SVG/1.1/DTD/svg11.dtd" >
<svg xmlns="http://www.w3.org/2000/svg" xmlns:xlink="http://www.w3.org/1999/xlink" version="1.1">
<metadata>
Created by FontForge 20170731 at Fri May  2 02:05:10 2008
 By ,,,
Copyright (c) 2008 by Nate Piekos. Blambot.com. All rights reserved.
</metadata>
<defs>
<font id="AutodestructBB" horiz-adv-x="645" >
  <font-face 
    font-family="Autodestruct BB"
    font-weight="400"
    font-stretch="normal"
    units-per-em="1000"
    panose-1="2 0 5 3 0 0 0 2 0 4"
    ascent="800"
    descent="-200"
    x-height="825"
    cap-height="824"
    bbox="-4 -204 919 1004"
    underline-thickness="0"
    underline-position="0"
    unicode-range="U+0020-2122"
  />
<missing-glyph horiz-adv-x="500" 
d="M63 0v996h375v-996h-375zM125 63h250v871h-250v-871z" />
    <glyph glyph-name=".notdef" horiz-adv-x="500" 
d="M63 0v996h375v-996h-375zM125 63h250v871h-250v-871z" />
    <glyph glyph-name=".null" horiz-adv-x="0" 
 />
    <glyph glyph-name="nonmarkingreturn" horiz-adv-x="568" 
 />
    <glyph glyph-name="space" unicode=" " horiz-adv-x="568" 
 />
    <glyph glyph-name="exclam" unicode="!" horiz-adv-x="293" 
d="M229 231l-151 100v497l151 -100v-497zM229 2h-150v149h150v-149z" />
    <glyph glyph-name="quotedbl" unicode="&#x22;" horiz-adv-x="527" 
d="M226 394l-152 100v341l152 -100v-341zM459 394l-152 100v341l152 -100v-341z" />
    <glyph glyph-name="numbersign" unicode="#" horiz-adv-x="846" 
d="M797 390l-99 -151h-55v-155l-152 100v55h-133v-155l-152 100v55h-154l99 151h55v133h-154l99 151h55v155l152 -99v-56h133v155l152 -99v-56h154l-99 -151h-55v-133h154zM491 390v133h-133v-133h133z" />
    <glyph glyph-name="dollar" unicode="$" horiz-adv-x="486" 
d="M410 726l-58 -88h-186v-126l29 44h213v-259h-123v-100l-87 58v42l-120 1l58 87h185l-1 84h-154l-88 55v202l83 -54l35 54h2v100l87 -57v-43h125z" />
    <glyph glyph-name="percent" unicode="%" horiz-adv-x="696" 
d="M673 730l-302 -435l62 -41l42 64l166 -1v-317l-202 3l-103 65v176l-169 -248l-119 99l290 416l-159 2l-104 65v249l97 -64l42 64h166v-254l175 256zM278 723l-99 1l1 -108h97zM538 107v106l-99 1l1 -107h98z" />
    <glyph glyph-name="ampersand" unicode="&#x26;" horiz-adv-x="759" 
d="M747 529l-99 -151h-28v-226l-99 -151h-404l-61 173l139 276l-139 199l61 173h493l-92 -152h-292l98 -142zM473 152v226h-149l-98 -226h247z" />
    <glyph glyph-name="quotesingle" unicode="'" horiz-adv-x="295" 
d="M226 394l-152 100v341l152 -100v-341z" />
    <glyph glyph-name="parenleft" unicode="(" horiz-adv-x="518" 
d="M517 986l-100 -152h-115l-98 -437l100 -396l199 -1l-100 -151h-57h-7h-45l-141 92l-119 450l146 595l93 -72l48 72h196z" />
    <glyph glyph-name="parenright" unicode=")" horiz-adv-x="542" 
d="M504 443l-147 -594l-92 72l-48 -72h-196l100 151h114l99 437l-100 396l-199 1l100 152h57h7h45l141 -92z" />
    <glyph glyph-name="asterisk" unicode="*" horiz-adv-x="512" 
d="M478 530l-112 -56l-61 35v-139l-105 69v70l-121 -69l7 125l62 35l-121 70l112 56l61 -35v139l105 -69v-70l120 69l-7 -125l-61 -35z" />
    <glyph glyph-name="plus" unicode="+" horiz-adv-x="616" 
d="M579 533l-100 -151h-99v-199l-152 99v100h-199l100 151h99v199l152 -100v-99h199z" />
    <glyph glyph-name="comma" unicode="," horiz-adv-x="264" 
d="M212 2l-149 -157v306h149v-149z" />
    <glyph glyph-name="hyphen" unicode="-" horiz-adv-x="637" 
d="M601 532l-100 -151h-450l100 151h450z" />
    <glyph glyph-name="hyphen" unicode="&#x2010;" horiz-adv-x="637" 
d="M601 532l-100 -151h-450l100 151h450z" />
    <glyph glyph-name="period" unicode="." horiz-adv-x="279" 
d="M220 2h-150v149h150v-149z" />
    <glyph glyph-name="slash" unicode="/" horiz-adv-x="672" 
d="M644 722l-495 -726l-118 99l495 727z" />
    <glyph glyph-name="zero" unicode="0" horiz-adv-x="745" 
d="M693 -4l-480 4l-152 95v732l143 -94l62 94l427 -2v-829zM543 674l-330 1l2 -524h327z" />
    <glyph glyph-name="one" unicode="1" horiz-adv-x="379" 
d="M307 -4l-152 99v581h-131l131 152l152 -100v-732z" />
    <glyph glyph-name="two" unicode="2" horiz-adv-x="710" 
d="M652 477l-152 -96h-266l-2 -229h416l-103 -152h-464v533h418l1 142h-422l97 151l477 1v-350z" />
    <glyph glyph-name="three" unicode="3" 
d="M601 174l-62 -173h-493l92 151h293l-100 231l-289 -1l99 151h190l100 142h-395l100 151h403l62 -173l-139 -195z" />
    <glyph glyph-name="four" unicode="4" horiz-adv-x="707" 
d="M692 389l-100 -151h-36v-242l-151 99v143h-332l4 590l152 -100v-339h176v439l151 -100v-339h136z" />
    <glyph glyph-name="five" unicode="5" horiz-adv-x="691" 
d="M642 0h-573l100 152h301l-110 230l-138 -1l-153 96v350l142 -94l62 93h369l-100 -151h-322v-218l48 76h189l184 -380z" />
    <glyph glyph-name="six" unicode="6" horiz-adv-x="739" 
d="M719 828l-100 -152h-402v-227l56 85h286l157 -383l-99 -151h-400l-152 95v733l143 -94l61 94h450zM548 151l-91 232h-240v-308l50 76h281z" />
    <glyph glyph-name="seven" unicode="7" horiz-adv-x="613" 
d="M547 -4l-152 99v578h-390l101 154h441v-831z" />
    <glyph glyph-name="eight" unicode="8" horiz-adv-x="746" 
d="M704 174l-61 -173h-528l-62 173l140 284l-140 195l62 173h528l61 -173l-139 -195zM534 675h-310l99 -142h112zM534 152l-99 231h-112l-99 -231h310z" />
    <glyph glyph-name="nine" unicode="9" horiz-adv-x="763" 
d="M692 0l-636 2l85 149h400v324l-61 -92h-287l-157 298l102 145h554v-826zM542 675l-323 1l77 -142h245z" />
    <glyph glyph-name="colon" unicode=":" horiz-adv-x="286" 
d="M221 2h-150v149h150v-149zM222 247h-150v149h150v-149z" />
    <glyph glyph-name="semicolon" unicode=";" horiz-adv-x="272" 
d="M209 2l-149 -157v306h149v-149zM210 247h-150v149h150v-149z" />
    <glyph glyph-name="less" unicode="&#x3c;" horiz-adv-x="376" 
d="M354 1l-165 1l-152 393l152 432l164 -1l-152 -426z" />
    <glyph glyph-name="equal" unicode="=" horiz-adv-x="636" 
d="M593 600l-99 -151h-450l100 151h449zM593 316l-99 -151h-450l100 151h449z" />
    <glyph glyph-name="greater" unicode="&#x3e;" horiz-adv-x="394" 
d="M357 395l-152 -393l-165 -1l153 399l-152 426l164 1z" />
    <glyph glyph-name="question" unicode="?" 
d="M606 654l-192 -269l-192 -1v-160l-156 96v63l104 151h167l99 142h-369l97 151h381zM218 2h-149v149h149v-149z" />
    <glyph glyph-name="at" unicode="@" horiz-adv-x="877" 
d="M818 -4l-608 4l-150 95v731l141 -94l62 94l554 -1zM494 318v191h-99l1 -191h98zM667 673l-457 1l2 -523h283v62l-100 1l-103 65v334l97 -64l42 64l166 -1l-1 -461h70z" />
    <glyph glyph-name="A" unicode="A" horiz-adv-x="734" 
d="M687 1l-152 100l-1 198h-329v-298l-151 100v345l184 376l260 1l189 -382v-440zM502 450l-93 220l-92 -1l-112 -267v-58l70 106h227z" />
    <glyph glyph-name="B" unicode="B" horiz-adv-x="764" 
d="M733 174l-62 -173h-456l-152 91v733l143 -93l62 93h403l62 -173l-139 -195zM563 674h-348v-230l58 88h190zM563 153l-100 229l-248 -1v-228h348z" />
    <glyph glyph-name="C" unicode="C" horiz-adv-x="688" 
d="M663 151l-103 -151h-343l-151 95v730l142 -93l62 93h392l-100 -151h-345l2 -523h444z" />
    <glyph glyph-name="D" unicode="D" horiz-adv-x="780" 
d="M776 652l-394 -652h-170l-152 95v730l143 -93l61 93h450zM606 674h-394v-522h85z" />
    <glyph glyph-name="E" unicode="E" horiz-adv-x="739" 
d="M62 824l143 -94l61 94h450l-100 -152h-402v-218l50 77h358l-100 -152h-308v-228h500l-100 -151l-400 1q0 -1 -71 43q-76 48 -81 51v729z" />
    <glyph glyph-name="F" unicode="F" horiz-adv-x="727" 
d="M725 824l-100 -152h-403v-218l51 77h357l-100 -152h-308v-383l-151 99v729l142 -94l62 94h450z" />
    <glyph glyph-name="G" unicode="G" horiz-adv-x="738" 
d="M693 -4l-480 4l-152 95v733l143 -94l61 93h416l-100 -151h-368l1 -525h327v222h-251l100 152h175l128 -95v-434z" />
    <glyph glyph-name="H" unicode="H" horiz-adv-x="768" 
d="M698 -4l-152 99v282h-318v-381l-152 99v727l152 -100v-289l63 96h255v293l152 -100v-726z" />
    <glyph glyph-name="I" unicode="I" horiz-adv-x="654" 
d="M618 151l-100 -151h-449l99 151h100v522h-199l99 151h450l-100 -151h-99v-522h199z" />
    <glyph glyph-name="J" unicode="J" horiz-adv-x="530" 
d="M480 1l-474 -1l96 151h227v518h-103l102 158l152 -100v-726z" />
    <glyph glyph-name="K" unicode="K" horiz-adv-x="699" 
d="M705 53l-157 -54l-321 378l-2 -381l-151 99v727l151 -100v-289l304 394l100 -114l-222 -298z" />
    <glyph glyph-name="L" unicode="L" horiz-adv-x="591" 
d="M589 151l-100 -151h-262l-152 95v729l152 -99v-650l50 76h312z" />
    <glyph glyph-name="M" unicode="M" horiz-adv-x="916" 
d="M864 0l-152 95v580h-168l-1 -675l-151 95v580h-169v-675l-152 95v732l143 -94l62 94h119l140 -95l61 94l130 1l138 -100v-727z" />
    <glyph glyph-name="N" unicode="N" horiz-adv-x="738" 
d="M689 -4l-152 99v233l-321 200v-532l-152 99v729l236 -157q118 -79 237 -157v314l152 -99v-729z" />
    <glyph glyph-name="O" unicode="O" horiz-adv-x="745" 
d="M693 -4l-480 4l-152 95v732l143 -94l62 94l427 -2v-829zM543 674l-330 1l2 -524h327z" />
    <glyph glyph-name="P" unicode="P" horiz-adv-x="732" 
d="M719 654l-192 -269l-303 -2v-383l-152 95v733l143 -94l62 93h380zM549 676h-325v-230l58 88h167z" />
    <glyph glyph-name="Q" unicode="Q" horiz-adv-x="743" 
d="M689 -4l-235 3l2 -144l-153 99v46h-94l-152 95v730l143 -94l61 94l427 -2zM538 672l-329 1l2 -522h90l-2 244l152 -99l1 -145h85z" />
    <glyph glyph-name="R" unicode="R" horiz-adv-x="727" 
d="M713 654l-192 -269l-137 -1l300 -328l-140 -56l-326 342v-342l-151 95v733l142 -94l62 93h380zM543 676h-325v-228l2 1l56 85h167z" />
    <glyph glyph-name="S" unicode="S" horiz-adv-x="682" 
d="M635 825l-100 -152h-322v-218l50 76h369l1 -531h-571l100 152h319l-2 228h-266l-152 95v350l143 -94l62 94h369z" />
    <glyph glyph-name="T" unicode="T" horiz-adv-x="616" 
d="M617 825l-100 -152h-134v-677l-151 99v578h-234l100 152h519z" />
    <glyph glyph-name="U" unicode="U" horiz-adv-x="707" 
d="M657 1h-447l-152 94v730l152 -100v-574h295v674l152 -100v-724z" />
    <glyph glyph-name="V" unicode="V" horiz-adv-x="701" 
d="M653 296l-184 -295h-225l-189 300v527l151 -100l3 -388l124 -189h56l113 189v488l151 -100v-432z" />
    <glyph glyph-name="W" unicode="W" horiz-adv-x="905" 
d="M852 1l-323 -1l-141 95l-61 -94h-129l-139 99l1 728l151 -95l2 -581h168l-1 676l152 -95l-1 -581h169l1 676l151 -95v-732z" />
    <glyph glyph-name="X" unicode="X" 
d="M655 0l-181 1l-152 284l-191 -311l-64 169l166 278l-237 406l181 -1l152 -273l191 302l64 -170l-167 -268z" />
    <glyph glyph-name="Y" unicode="Y" 
d="M611 384l-209 -1v-387l-151 99v288h-116l-94 151l1 294l151 -100v-192h267v292l151 -100v-344z" />
    <glyph glyph-name="Z" unicode="Z" horiz-adv-x="674" 
d="M652 827l-387 -675h384l-100 -151l-277 1q-206 0 -275 -1l390 675h-348l100 151h513z" />
    <glyph glyph-name="bracketleft" unicode="[" horiz-adv-x="559" 
d="M533 989l-100 -152h-205l1 -837l290 -1l-100 -152h-201l-142 93v1056l121 -79l47 72h289z" />
    <glyph glyph-name="backslash" unicode="\" horiz-adv-x="623" 
d="M123 822l495 -727l-118 -99l-495 726z" />
    <glyph glyph-name="bracketright" unicode="]" horiz-adv-x="555" 
d="M500 -153l-121 80l-47 -72h-289l100 150h205l-1 838l-290 2l100 151h201l142 -92v-1057z" />
    <glyph glyph-name="asciicircum" unicode="^" horiz-adv-x="611" 
d="M534 564l-220 112l-232 -112l1 154l236 112l213 -112z" />
    <glyph glyph-name="underscore" unicode="_" horiz-adv-x="757" 
d="M734 151l-100 -151h-606l99 151h607z" />
    <glyph glyph-name="grave" unicode="`" horiz-adv-x="366" 
d="M333 750l-140 -7l-155 213l140 7z" />
    <glyph glyph-name="a" unicode="a" horiz-adv-x="734" 
d="M687 1l-152 100l-1 198h-329v-298l-151 100v345l184 376l260 1l189 -382v-440zM502 450l-93 220l-92 -1l-112 -267v-58l70 106h227z" />
    <glyph glyph-name="b" unicode="b" horiz-adv-x="764" 
d="M733 174l-62 -173h-456l-152 91v733l143 -93l62 93h403l62 -173l-139 -195zM563 674h-348v-230l58 88h190zM563 153l-100 229l-248 -1v-228h348z" />
    <glyph glyph-name="c" unicode="c" horiz-adv-x="688" 
d="M663 151l-103 -151h-343l-151 95v730l142 -93l62 93h392l-100 -151h-345l2 -523h444z" />
    <glyph glyph-name="d" unicode="d" horiz-adv-x="780" 
d="M776 652l-394 -652h-170l-152 95v730l143 -93l61 93h450zM606 674h-394v-522h85z" />
    <glyph glyph-name="e" unicode="e" horiz-adv-x="739" 
d="M62 824l143 -94l61 94h450l-100 -152h-402v-218l50 77h358l-100 -152h-308v-228h500l-100 -151l-400 1q0 -1 -71 43q-76 48 -81 51v729z" />
    <glyph glyph-name="f" unicode="f" horiz-adv-x="727" 
d="M725 824l-100 -152h-403v-218l51 77h357l-100 -152h-308v-383l-151 99v729l142 -94l62 94h450z" />
    <glyph glyph-name="g" unicode="g" horiz-adv-x="738" 
d="M693 -4l-480 4l-152 95v733l143 -94l61 93h416l-100 -151h-368l1 -525h327v222h-251l100 152h175l128 -95v-434z" />
    <glyph glyph-name="h" unicode="h" horiz-adv-x="768" 
d="M698 -4l-152 99v282h-318v-381l-152 99v727l152 -100v-289l63 96h255v293l152 -100v-726z" />
    <glyph glyph-name="i" unicode="i" horiz-adv-x="320" 
d="M237 -4l-152 99v729l152 -99v-729z" />
    <glyph glyph-name="j" unicode="j" horiz-adv-x="530" 
d="M480 1l-474 -1l96 151h227v518h-103l102 158l152 -100v-726z" />
    <glyph glyph-name="k" unicode="k" horiz-adv-x="699" 
d="M705 53l-157 -54l-321 378l-2 -381l-151 99v727l151 -100v-289l304 394l100 -114l-222 -298z" />
    <glyph glyph-name="l" unicode="l" horiz-adv-x="591" 
d="M589 151l-100 -151h-262l-152 95v729l152 -99v-650l50 76h312z" />
    <glyph glyph-name="m" unicode="m" horiz-adv-x="916" 
d="M864 0l-152 95v580h-168l-1 -675l-151 95v580h-169v-675l-152 95v732l143 -94l62 94h119l140 -95l61 94l130 1l138 -100v-727z" />
    <glyph glyph-name="n" unicode="n" horiz-adv-x="738" 
d="M689 -4l-152 99v233l-321 200v-532l-152 99v729l236 -157q118 -79 237 -157v314l152 -99v-729z" />
    <glyph glyph-name="o" unicode="o" horiz-adv-x="745" 
d="M693 -4l-480 4l-152 95v732l143 -94l62 94l427 -2v-829zM543 674l-330 1l2 -524h327z" />
    <glyph glyph-name="p" unicode="p" horiz-adv-x="732" 
d="M719 654l-192 -269l-303 -2v-383l-152 95v733l143 -94l62 93h380zM549 676h-325v-230l58 88h167z" />
    <glyph glyph-name="q" unicode="q" horiz-adv-x="743" 
d="M689 -4l-235 3l2 -144l-153 99v46h-94l-152 95v730l143 -94l61 94l427 -2zM538 672l-329 1l2 -522h90l-2 244l152 -99l1 -145h85z" />
    <glyph glyph-name="r" unicode="r" horiz-adv-x="727" 
d="M713 654l-192 -269l-137 -1l300 -328l-140 -56l-326 342v-342l-151 95v733l142 -94l62 93h380zM543 676h-325v-228l2 1l56 85h167z" />
    <glyph glyph-name="s" unicode="s" horiz-adv-x="682" 
d="M635 825l-100 -152h-322v-218l50 76h369l1 -531h-571l100 152h319l-2 228h-266l-152 95v350l143 -94l62 94h369z" />
    <glyph glyph-name="t" unicode="t" horiz-adv-x="616" 
d="M617 825l-100 -152h-134v-677l-151 99v578h-234l100 152h519z" />
    <glyph glyph-name="u" unicode="u" horiz-adv-x="707" 
d="M657 1h-447l-152 94v730l152 -100v-574h295v674l152 -100v-724z" />
    <glyph glyph-name="v" unicode="v" horiz-adv-x="701" 
d="M653 296l-184 -295h-225l-189 300v527l151 -100l3 -388l124 -189h56l113 189v488l151 -100v-432z" />
    <glyph glyph-name="w" unicode="w" horiz-adv-x="905" 
d="M852 1l-323 -1l-141 95l-61 -94h-129l-139 99l1 728l151 -95l2 -581h168l-1 676l152 -95l-1 -581h169l1 676l151 -95v-732z" />
    <glyph glyph-name="x" unicode="x" 
d="M655 0l-181 1l-152 284l-191 -311l-64 169l166 278l-237 406l181 -1l152 -273l191 302l64 -170l-167 -268z" />
    <glyph glyph-name="y" unicode="y" 
d="M611 384l-209 -1v-387l-151 99v288h-116l-94 151l1 294l151 -100v-192h267v292l151 -100v-344z" />
    <glyph glyph-name="z" unicode="z" horiz-adv-x="674" 
d="M652 827l-387 -675h384l-100 -151l-277 1q-206 0 -275 -1l390 675h-348l100 151h513z" />
    <glyph glyph-name="braceleft" unicode="{" horiz-adv-x="941" 
d="M826 591l-163 -80l-388 228l163 80zM610 448l-100 -152h-449l99 152h450zM803 279l-37 -178l-418 -165l37 177z" />
    <glyph glyph-name="bar" unicode="|" horiz-adv-x="320" 
d="M247 -204l-152 99v1109l152 -99v-1109z" />
    <glyph glyph-name="braceright" unicode="}" horiz-adv-x="950" 
d="M627 819l-36 -177l-419 -166l37 178zM915 459l-100 -152h-450l100 152h450zM700 16l-163 -80l-387 228l162 80z" />
    <glyph glyph-name="asciitilde" unicode="~" horiz-adv-x="629" 
d="M597 521l-98 -149l-109 -37l-219 96l-122 -57l100 147l122 50l174 -99z" />
    <glyph glyph-name="cent" unicode="&#xa2;" horiz-adv-x="530" 
d="M471 240l-61 -90h-48v-91l-90 59v32h-65l-90 57v382l84 -55l37 55h34v89l90 -59v-30h108l-59 -90h-49v-259h109zM272 240v259h-65l1 -259h64z" />
    <glyph glyph-name="copyright" unicode="&#xa9;" horiz-adv-x="971" 
d="M919 -4l-697 4l-152 95v731l143 -94l62 94l644 -1v-829zM769 673l-547 1l2 -523h544zM664 304l-58 -85h-192l-84 54v328l79 -52l35 52h219l-56 -84h-193l1 -213h249z" />
    <glyph glyph-name="registered" unicode="&#xae;" horiz-adv-x="1003" 
d="M919 -4l-697 4l-152 95v731l143 -94l62 94l644 -1v-829zM769 673l-547 1l2 -523h544zM675 540l-102 -143l-73 -1l160 -174l-74 -30l-174 182v-182l-80 51v390l75 -50l33 49h202zM585 552h-173v-121h1l30 45h89z" />
    <glyph glyph-name="quoteleft" unicode="&#x2018;" horiz-adv-x="295" 
d="M226 394l-152 100v341l152 -100v-341z" />
    <glyph glyph-name="quoteright" unicode="&#x2019;" horiz-adv-x="295" 
d="M226 394l-152 100v341l152 -100v-341z" />
    <glyph glyph-name="quotedblleft" unicode="&#x201c;" horiz-adv-x="527" 
d="M226 394l-152 100v341l152 -100v-341zM459 394l-152 100v341l152 -100v-341z" />
    <glyph glyph-name="quotedblright" unicode="&#x201d;" horiz-adv-x="527" 
d="M226 394l-152 100v341l152 -100v-341zM459 394l-152 100v341l152 -100v-341z" />
    <glyph glyph-name="ellipsis" unicode="&#x2026;" horiz-adv-x="866" 
d="M286 2h-150v149h150v-149zM531 0h-150v149h150v-149zM776 -2h-150v149h150v-149z" />
    <glyph glyph-name="trademark" unicode="&#x2122;" horiz-adv-x="865" 
d="M361 859l-50 -75h-66v-336l-75 49v287h-116l50 75h257zM796 450l-75 47v288h-84v-335l-75 47v288h-84v-335l-75 47v363l71 -46l30 46h59l70 -47l30 47h65l68 -49v-361z" />
    <glyph glyph-name="NULL" horiz-adv-x="0" 
 />
    </font>
</defs>
</svg>
