<?xml version="1.0" standalone="no"?>
<!DOCTYPE svg PUBLIC "-//W3C//DTD SVG 1.1//EN" "http://www.w3.org/Graphics/SVG/1.1/DTD/svg11.dtd" >
<svg xmlns="http://www.w3.org/2000/svg" xmlns:xlink="http://www.w3.org/1999/xlink" version="1.1">
<metadata>
Created by FontForge 20170731 at Fri May  2 02:05:42 2008
 By ,,,
Copyright (c) 2008 by Nate Piekos. Blambot.com. All rights reserved.
</metadata>
<defs>
<font id="AutodestructBB-Bold" horiz-adv-x="1000" >
  <font-face 
    font-family="Autodestruct BB"
    font-weight="700"
    font-stretch="normal"
    units-per-em="1000"
    panose-1="2 0 8 5 0 0 0 2 0 4"
    ascent="800"
    descent="-200"
    x-height="886"
    cap-height="883"
    bbox="-133 -297 1173 1097"
    underline-thickness="0"
    underline-position="0"
    unicode-range="U+0020-2321"
  />
<missing-glyph horiz-adv-x="500" 
d="M63 0v996h375v-996h-375zM125 63h250v871h-250v-871z" />
    <glyph glyph-name=".notdef" horiz-adv-x="500" 
d="M63 0v996h375v-996h-375zM125 63h250v871h-250v-871z" />
    <glyph glyph-name=".null" horiz-adv-x="0" 
 />
    <glyph glyph-name="nonmarkingreturn" horiz-adv-x="625" 
 />
    <glyph glyph-name="space" unicode=" " horiz-adv-x="625" 
 />
    <glyph glyph-name="exclam" unicode="!" horiz-adv-x="360" 
d="M366 769l-146 -589l-168 133l147 589zM210 142l-49 -199h-200l49 199h200z" />
    <glyph glyph-name="quotedbl" unicode="&#x22;" horiz-adv-x="615" 
d="M615 756l-104 -417l-169 134l104 417zM359 756l-104 -417l-169 134l104 417z" />
    <glyph glyph-name="numbersign" unicode="#" horiz-adv-x="963" 
d="M992 713l-182 -201h-52l-28 -111h184l-182 -201h-52l-46 -186l-169 133l13 53h-111l-47 -186l-169 133l13 53h-184l182 201h52l28 111h-184l182 201h52l47 186l169 -132l-13 -54h111l46 186l169 -132l-13 -54h184zM556 512h-112l-27 -111h111z" />
    <glyph glyph-name="dollar" unicode="$" horiz-adv-x="545" 
d="M575 765l-119 -132h-197l-16 -63l7 8h261l-79 -320h-136l-31 -125l-109 87l10 38l-147 1l119 131h196l13 57h-157l-92 69l66 264l87 -68l39 44l33 134l110 -86l-10 -39h152z" />
    <glyph glyph-name="percent" unicode="%" horiz-adv-x="800" 
d="M864 765l-450 -477l32 -26l58 64l209 -1l-96 -384l-244 4l-106 79l37 146l-225 -241l-125 131l419 444l-146 2l-107 79l79 316l100 -79l57 64h210l-60 -240l234 250zM381 737h-73l-20 -83h72zM527 176h-73l-20 -82h73z" />
    <glyph glyph-name="ampersand" unicode="&#x26;" horiz-adv-x="887" 
d="M913 558l-182 -201h-23l-59 -236l-162 -179h-466l-21 209l226 301l-98 218l127 211h586l-173 -203h-298l54 -121zM511 357h-135l-146 -213h228z" />
    <glyph glyph-name="quotesingle" unicode="'" horiz-adv-x="367" 
d="M359 756l-104 -417l-169 134l104 417z" />
    <glyph glyph-name="parenleft" unicode="(" horiz-adv-x="652" 
d="M780 1060l-183 -202h-122l-219 -463l1 -418l238 -1l-184 -201h-134l-138 107l-8 506l339 685l88 -84l65 71h257z" />
    <glyph glyph-name="parenright" unicode=")" horiz-adv-x="658" 
d="M623 446l-340 -684l-87 84l-65 -71h-258l184 201h120l221 463l-2 418l-237 1l183 202h135l138 -107z" />
    <glyph glyph-name="asterisk" unicode="*" horiz-adv-x="665" 
d="M641 522l-181 -80l-42 28l-38 -155l-126 98l14 57l-154 -77l54 179l57 28l-115 78l181 80l42 -28l38 155l126 -98l-14 -57l153 77l-55 -179l-56 -28z" />
    <glyph glyph-name="plus" unicode="+" horiz-adv-x="761" 
d="M735 558l-183 -201h-101l-58 -234l-170 132l26 102h-234l183 201h101l58 234l169 -133l-25 -101h234z" />
    <glyph glyph-name="comma" unicode="," horiz-adv-x="330" 
d="M219 184l-47 -189l-251 -209l99 398h199z" />
    <glyph glyph-name="hyphen" unicode="-" horiz-adv-x="753" 
d="M739 557l-183 -201h-537l183 201h537z" />
    <glyph glyph-name="hyphen" unicode="&#x2010;" horiz-adv-x="753" 
d="M739 557l-183 -201h-537l183 201h537z" />
    <glyph glyph-name="period" unicode="." horiz-adv-x="338" 
d="M211 176l-50 -199h-200l50 199h200z" />
    <glyph glyph-name="slash" unicode="/" horiz-adv-x="751" 
d="M831 756l-771 -827l-124 131l771 829z" />
    <glyph glyph-name="zero" unicode="0" horiz-adv-x="884" 
d="M926 884l-236 -947l-549 4l-152 113l211 847l142 -112l88 97zM676 683l-328 1l-133 -542h325z" />
    <glyph glyph-name="one" unicode="1" horiz-adv-x="433" 
d="M468 769l-211 -847l-169 132l157 631h-165l231 208z" />
    <glyph glyph-name="two" unicode="2" horiz-adv-x="810" 
d="M862 886l-103 -412l-208 -114h-280l-56 -217h473l-188 -202h-537l155 621h460l31 122h-479l180 201z" />
    <glyph glyph-name="three" unicode="3" horiz-adv-x="743" 
d="M760 674l-206 -213l75 -310l-127 -209h-586l173 201h305l-40 219l-339 -1l182 201h209l116 122h-434l184 201h465z" />
    <glyph glyph-name="four" unicode="4" horiz-adv-x="812" 
d="M799 404l-183 -201h-32l-70 -281l-168 132l37 149h-365l179 699l169 -133l-91 -365h158l125 498l167 -133l-91 -365h165z" />
    <glyph glyph-name="five" unicode="5" horiz-adv-x="803" 
d="M865 885l-183 -201h-346l-41 -162l36 40h228l102 -431l-46 -190h-681l184 202h313l-50 218l-146 -1l-153 114l107 427l141 -112l87 96h448z" />
    <glyph glyph-name="six" unicode="6" horiz-adv-x="885" 
d="M965 887l-183 -202h-434l-44 -174l48 52h336l71 -440l-165 -182h-454l-152 112l212 849l142 -112l86 97h537zM534 142l-32 220h-235l-65 -262l39 42h293z" />
    <glyph glyph-name="seven" unicode="7" horiz-adv-x="699" 
d="M757 886l-240 -964l-169 132l156 628h-444l185 204h512z" />
    <glyph glyph-name="eight" unicode="8" horiz-adv-x="842" 
d="M860 674l-205 -213l74 -310l-126 -209h-605l-23 209l230 310l-100 213l128 211h605zM622 684h-273l54 -122h105zM495 143l-39 219h-101l-148 -219h288z" />
    <glyph glyph-name="nine" unicode="9" horiz-adv-x="862" 
d="M899 885l-235 -944l-747 2l163 199h433l70 281l-55 -60h-336l-96 346l167 176h636zM649 684l-308 1l35 -121h242z" />
    <glyph glyph-name="colon" unicode=":" horiz-adv-x="346" 
d="M289 433l-50 -199h-200l50 199h200zM221 164l-50 -199h-200l50 199h200z" />
    <glyph glyph-name="semicolon" unicode=";" horiz-adv-x="351" 
d="M282 441l-49 -199h-200l49 199h200zM214 172l-47 -189l-251 -209l99 398h199z" />
    <glyph glyph-name="less" unicode="&#x3c;" horiz-adv-x="490" 
d="M548 885l-294 -486l61 -457l-219 1l-61 450l296 493z" />
    <glyph glyph-name="equal" unicode="=" horiz-adv-x="755" 
d="M775 639l-182 -201h-537l183 201h536zM697 327l-182 -201h-537l183 201h536z" />
    <glyph glyph-name="greater" unicode="&#x3e;" horiz-adv-x="469" 
d="M427 393l-286 -450l-220 -1l289 457l-52 486l218 1z" />
    <glyph glyph-name="question" unicode="?" horiz-adv-x="725" 
d="M758 675l-299 -310l-203 -1l-47 -190l-175 127l21 84l167 178h184l115 122h-405l180 201h441zM197 142l-50 -199h-199l50 199h199z" />
    <glyph glyph-name="at" unicode="@" horiz-adv-x="979" 
d="M1038 884l-235 -947l-691 4l-149 113l211 846l140 -112l88 97zM552 501h-74l-43 -175h73zM787 682l-467 1l-133 -540h277l8 33l-97 1l-106 79l102 410l99 -79l58 64l209 -2l-127 -506h42z" />
    <glyph glyph-name="A" unicode="A" horiz-adv-x="841" 
d="M806 448l-130 -521l-169 133l52 210h-327l-86 -343l-168 134l98 392l316 427l308 2zM565 471l-36 207l-78 -1l-188 -282l107 79z" />
    <glyph glyph-name="B" unicode="B" horiz-adv-x="889" 
d="M914 673l-205 -213l74 -309l-127 -209h-518l-153 108l211 848l142 -110l88 96h465zM676 683h-331l-45 -178l51 56h210zM549 145l-41 216l-244 -1l-54 -215h339z" />
    <glyph glyph-name="C" unicode="C" horiz-adv-x="803" 
d="M887 884l-183 -201h-371l-133 -541h504l-187 -201h-392l-150 113l210 845l142 -111l87 96h473z" />
    <glyph glyph-name="D" unicode="D" horiz-adv-x="911" 
d="M966 674l-626 -733h-202l-151 113l210 845l143 -111l86 96h517zM731 683h-385l-135 -540h66z" />
    <glyph glyph-name="E" unicode="E" horiz-adv-x="869" 
d="M968 883l-184 -203h-434l-40 -163l38 43h436l-183 -202h-331l-54 -216h565l-183 -201l-449 1q-54 39 -157 111l210 845l142 -112l87 97h537z" />
    <glyph glyph-name="F" unicode="F" horiz-adv-x="831" 
d="M961 883l-183 -202h-435l-41 -164l40 44h434l-183 -203h-331l-109 -436l-168 132l211 844l141 -112l87 97h537z" />
    <glyph glyph-name="G" unicode="G" horiz-adv-x="869" 
d="M919 886l-183 -201h-397l-134 -543h325l52 210h-291l183 202h208l124 -113l-125 -504l-550 4l-151 113l211 848l142 -112l87 96h499z" />
    <glyph glyph-name="H" unicode="H" horiz-adv-x="883" 
d="M893 763l-209 -841l-170 132l76 302h-315l-108 -434l-170 132l210 842l169 -133l-67 -269l59 64h272l84 338z" />
    <glyph glyph-name="I" unicode="I" horiz-adv-x="770" 
d="M835 883l-183 -201h-101l-134 -540h234l-184 -201h-535l182 201h102l134 540h-234l182 201h537z" />
    <glyph glyph-name="J" unicode="J" horiz-adv-x="638" 
d="M665 768l-206 -826l-571 -1l178 201h242l134 535h-128l193 216z" />
    <glyph glyph-name="K" unicode="K" horiz-adv-x="832" 
d="M810 744l-326 -328l233 -407l-225 -72l-234 389l-102 -404l-169 132l210 842l168 -134l-69 -276l419 410z" />
    <glyph glyph-name="L" unicode="L" horiz-adv-x="702" 
d="M618 142l-183 -201h-303l-151 113l210 843l170 -131l-166 -666l38 42h385z" />
    <glyph glyph-name="M" unicode="M" horiz-adv-x="1051" 
d="M1071 767l-209 -840l-171 126l157 631h-149l-190 -757l-170 126l157 631h-151l-188 -757l-171 126l211 848l142 -112l88 97h146l119 -98l87 97l158 1z" />
    <glyph glyph-name="N" unicode="N" horiz-adv-x="854" 
d="M883 766l-210 -844l-169 132l63 256l-268 198l-146 -586l-170 132l211 844l434 -346l86 346z" />
    <glyph glyph-name="O" unicode="O" horiz-adv-x="884" 
d="M926 884l-236 -947l-549 4l-152 113l211 847l142 -112l88 97zM676 683l-328 1l-133 -542h325z" />
    <glyph glyph-name="P" unicode="P" horiz-adv-x="843" 
d="M896 675l-299 -310l-326 -2l-108 -436l-171 126l212 849l142 -112l87 96h440zM658 685h-306l-45 -177l51 55h184z" />
    <glyph glyph-name="Q" unicode="Q" horiz-adv-x="866" 
d="M943 889l-235 -945l-257 3l-41 -173l-171 132l11 43h-91l-152 112l211 845l142 -112l87 97zM693 688l-327 1l-132 -539h64l68 283l170 -132l-37 -151h59z" />
    <glyph glyph-name="R" unicode="R" horiz-adv-x="829" 
d="M890 675l-299 -310l-121 -1l233 -351l-207 -75l-249 353l-90 -364l-170 126l212 849l141 -112l87 96h440zM652 685h-307l-44 -177l51 55h184z" />
    <glyph glyph-name="S" unicode="S" horiz-adv-x="801" 
d="M872 884l-184 -202h-346l-41 -164l39 42h433l-153 -619h-678l183 202h343l52 216h-281l-151 113l106 427l142 -112l88 97h448z" />
    <glyph glyph-name="T" unicode="T" horiz-adv-x="733" 
d="M852 884l-184 -202h-139l-189 -760l-169 132l157 628h-273l184 202h613z" />
    <glyph glyph-name="U" unicode="U" horiz-adv-x="819" 
d="M851 766l-205 -824h-514l-153 111l211 846l169 -133l-155 -624h289l189 757z" />
    <glyph glyph-name="V" unicode="V" horiz-adv-x="838" 
d="M855 769l-122 -490l-294 -337h-267l-130 343l154 617l167 -133l-104 -431l80 -196h42l166 195l140 565z" />
    <glyph glyph-name="W" unicode="W" horiz-adv-x="1061" 
d="M1091 775l-207 -833l-378 -1l-121 98l-87 -97h-157l-135 118l211 841l169 -126l-155 -632h150l188 758l170 -126l-158 -632h151l190 758z" />
    <glyph glyph-name="X" unicode="X" horiz-adv-x="737" 
d="M755 710l-256 -293l153 -476l-240 1l-84 295l-299 -347l-30 228l258 304l-155 464l239 -1l87 -284l298 337z" />
    <glyph glyph-name="Y" unicode="Y" horiz-adv-x="763" 
d="M806 769l-101 -405l-230 -1l-110 -441l-168 132l77 309h-120l-67 178l91 361l168 -133l-50 -203h258l84 336z" />
    <glyph glyph-name="Z" unicode="Z" horiz-adv-x="786" 
d="M884 886l-611 -743h425l-184 -201l-314 1q-227 0 -333 -1l615 743h-385l183 201h604z" />
    <glyph glyph-name="bracketleft" unicode="[" horiz-adv-x="640" 
d="M774 1063l-184 -202h-217l-220 -886l334 -1l-184 -202h-235l-141 110l300 1204l122 -95l65 72h360z" />
    <glyph glyph-name="backslash" unicode="\" horiz-adv-x="747" 
d="M644 60l-189 -131l-358 827l189 133z" />
    <glyph glyph-name="bracketright" unicode="]" horiz-adv-x="646" 
d="M714 962l-300 -1205l-121 96l-66 -72h-360l183 200h218l220 887l-334 2l183 201h236z" />
    <glyph glyph-name="asciicircum" unicode="^" horiz-adv-x="676" 
d="M670 731l-49 -209l-228 132l-305 -131l53 208l311 132z" />
    <glyph glyph-name="underscore" unicode="_" horiz-adv-x="912" 
d="M834 176l-184 -201h-708l182 201h710z" />
    <glyph glyph-name="grave" unicode="`" horiz-adv-x="467" 
d="M440 724l-198 -9l-128 268l198 9z" />
    <glyph glyph-name="a" unicode="a" horiz-adv-x="841" 
d="M806 448l-130 -521l-169 133l52 210h-327l-86 -343l-168 134l98 392l316 427l308 2zM565 471l-36 207l-78 -1l-188 -282l107 79z" />
    <glyph glyph-name="b" unicode="b" horiz-adv-x="889" 
d="M914 673l-205 -213l74 -309l-127 -209h-518l-153 108l211 848l142 -110l88 96h465zM676 683h-331l-45 -178l51 56h210zM549 145l-41 216l-244 -1l-54 -215h339z" />
    <glyph glyph-name="c" unicode="c" horiz-adv-x="803" 
d="M887 884l-183 -201h-371l-133 -541h504l-187 -201h-392l-150 113l210 845l142 -111l87 96h473z" />
    <glyph glyph-name="d" unicode="d" horiz-adv-x="911" 
d="M966 674l-626 -733h-202l-151 113l210 845l143 -111l86 96h517zM731 683h-385l-135 -540h66z" />
    <glyph glyph-name="e" unicode="e" horiz-adv-x="869" 
d="M968 883l-184 -203h-434l-40 -163l38 43h436l-183 -202h-331l-54 -216h565l-183 -201l-449 1q-54 39 -157 111l210 845l142 -112l87 97h537z" />
    <glyph glyph-name="f" unicode="f" horiz-adv-x="831" 
d="M961 883l-183 -202h-435l-41 -164l40 44h434l-183 -203h-331l-109 -436l-168 132l211 844l141 -112l87 97h537z" />
    <glyph glyph-name="g" unicode="g" horiz-adv-x="869" 
d="M919 886l-183 -201h-397l-134 -543h325l52 210h-291l183 202h208l124 -113l-125 -504l-550 4l-151 113l211 848l142 -112l87 96h499z" />
    <glyph glyph-name="h" unicode="h" horiz-adv-x="883" 
d="M893 763l-209 -841l-170 132l76 302h-315l-108 -434l-170 132l210 842l169 -133l-67 -269l59 64h272l84 338z" />
    <glyph glyph-name="i" unicode="i" horiz-adv-x="361" 
d="M369 766l-210 -844l-170 132l210 844z" />
    <glyph glyph-name="j" unicode="j" horiz-adv-x="638" 
d="M665 768l-206 -826l-571 -1l178 201h242l134 535h-128l193 216z" />
    <glyph glyph-name="k" unicode="k" horiz-adv-x="832" 
d="M810 744l-326 -328l233 -407l-225 -72l-234 389l-102 -404l-169 132l210 842l168 -134l-69 -276l419 410z" />
    <glyph glyph-name="l" unicode="l" horiz-adv-x="702" 
d="M618 142l-183 -201h-303l-151 113l210 843l170 -131l-166 -666l38 42h385z" />
    <glyph glyph-name="m" unicode="m" horiz-adv-x="1051" 
d="M1071 767l-209 -840l-171 126l157 631h-149l-190 -757l-170 126l157 631h-151l-188 -757l-171 126l211 848l142 -112l88 97h146l119 -98l87 97l158 1z" />
    <glyph glyph-name="n" unicode="n" horiz-adv-x="854" 
d="M883 766l-210 -844l-169 132l63 256l-268 198l-146 -586l-170 132l211 844l434 -346l86 346z" />
    <glyph glyph-name="o" unicode="o" horiz-adv-x="884" 
d="M926 884l-236 -947l-549 4l-152 113l211 847l142 -112l88 97zM676 683l-328 1l-133 -542h325z" />
    <glyph glyph-name="p" unicode="p" horiz-adv-x="843" 
d="M896 675l-299 -310l-326 -2l-108 -436l-171 126l212 849l142 -112l87 96h440zM658 685h-306l-45 -177l51 55h184z" />
    <glyph glyph-name="q" unicode="q" horiz-adv-x="866" 
d="M943 889l-235 -945l-257 3l-41 -173l-171 132l11 43h-91l-152 112l211 845l142 -112l87 97zM693 688l-327 1l-132 -539h64l68 283l170 -132l-37 -151h59z" />
    <glyph glyph-name="r" unicode="r" horiz-adv-x="829" 
d="M890 675l-299 -310l-121 -1l233 -351l-207 -75l-249 353l-90 -364l-170 126l212 849l141 -112l87 96h440zM652 685h-307l-44 -177l51 55h184z" />
    <glyph glyph-name="s" unicode="s" horiz-adv-x="801" 
d="M872 884l-184 -202h-346l-41 -164l39 42h433l-153 -619h-678l183 202h343l52 216h-281l-151 113l106 427l142 -112l88 97h448z" />
    <glyph glyph-name="t" unicode="t" horiz-adv-x="733" 
d="M852 884l-184 -202h-139l-189 -760l-169 132l157 628h-273l184 202h613z" />
    <glyph glyph-name="u" unicode="u" horiz-adv-x="819" 
d="M851 766l-205 -824h-514l-153 111l211 846l169 -133l-155 -624h289l189 757z" />
    <glyph glyph-name="v" unicode="v" horiz-adv-x="838" 
d="M855 769l-122 -490l-294 -337h-267l-130 343l154 617l167 -133l-104 -431l80 -196h42l166 195l140 565z" />
    <glyph glyph-name="w" unicode="w" horiz-adv-x="1061" 
d="M1091 775l-207 -833l-378 -1l-121 98l-87 -97h-157l-135 118l211 841l169 -126l-155 -632h150l188 758l170 -126l-158 -632h151l190 758z" />
    <glyph glyph-name="x" unicode="x" horiz-adv-x="737" 
d="M755 710l-256 -293l153 -476l-240 1l-84 295l-299 -347l-30 228l258 304l-155 464l239 -1l87 -284l298 337z" />
    <glyph glyph-name="y" unicode="y" horiz-adv-x="763" 
d="M806 769l-101 -405l-230 -1l-110 -441l-168 132l77 309h-120l-67 178l91 361l168 -133l-50 -203h258l84 336z" />
    <glyph glyph-name="z" unicode="z" horiz-adv-x="786" 
d="M884 886l-611 -743h425l-184 -201l-314 1q-227 0 -333 -1l615 743h-385l183 201h604z" />
    <glyph glyph-name="braceleft" unicode="{" horiz-adv-x="1069" 
d="M1039 611l-244 -107l-395 273l244 106zM762 473l-183 -203h-536l182 203h537zM922 297l-108 -236l-548 -197l108 235z" />
    <glyph glyph-name="bar" unicode="|" horiz-adv-x="413" 
d="M456 965l-315 -1262l-169 132l315 1262z" />
    <glyph glyph-name="braceright" unicode="}" horiz-adv-x="1096" 
d="M830 891l-107 -235l-549 -198l108 236zM1054 485l-183 -203h-537l184 203h536zM696 -22l-243 -106l-394 272l242 107z" />
    <glyph glyph-name="asciitilde" unicode="~" horiz-adv-x="799" 
d="M780 560l-191 -211l-144 -45l-213 106l-206 -87l203 219l162 60l165 -109z" />
    <glyph glyph-name="cent" unicode="&#xa2;" horiz-adv-x="640" 
d="M611 629l-121 -134h-46l-62 -250h135l-124 -134h-45l-28 -115l-113 87l7 28h-59l-94 70l116 462l87 -68l50 54h29l28 112l113 -87l-7 -25h134zM310 495h-37l-61 -250h36z" />
    <glyph glyph-name="copyright" unicode="&#xa9;" horiz-adv-x="1132" 
d="M1173 884l-236 -947l-788 4l-152 113l211 846l142 -112l88 97zM923 682l-567 1l-132 -540h563zM846 638l-117 -128h-204l-49 -199h289l-119 -128h-226l-89 66l101 404l84 -66l46 51h284z" />
    <glyph glyph-name="registered" unicode="&#xae;" horiz-adv-x="1115" 
d="M1173 884l-236 -947l-788 4l-152 113l211 846l142 -112l88 97zM923 682l-567 1l-132 -540h563zM774 517l-137 -143h-41l100 -151l-106 -38l-103 146l-39 -155l-86 64l97 390l66 -52l36 39h202zM648 515h-116l-12 -49l8 9h82z" />
    <glyph glyph-name="acute" unicode="&#xb4;" 
 />
    <glyph glyph-name="mu1" unicode="&#xb5;" 
 />
    <glyph glyph-name="mu1" unicode="&#x3bc;" 
 />
    <glyph glyph-name="Eth" unicode="&#xd0;" 
 />
    <glyph glyph-name="afii10048" unicode="&#x42e;" 
 />
    <glyph glyph-name="quoteleft" unicode="&#x2018;" horiz-adv-x="362" 
d="M352 756l-104 -417l-169 134l104 417z" />
    <glyph glyph-name="quoteright" unicode="&#x2019;" horiz-adv-x="362" 
d="M350 756l-104 -417l-169 134l104 417z" />
    <glyph glyph-name="quotedblleft" unicode="&#x201c;" horiz-adv-x="631" 
d="M622 756l-104 -417l-169 134l104 417zM366 756l-104 -417l-169 134l104 417z" />
    <glyph glyph-name="quotedblright" unicode="&#x201d;" horiz-adv-x="631" 
d="M622 756l-104 -417l-169 134l104 417zM366 756l-104 -417l-169 134l104 417z" />
    <glyph glyph-name="ellipsis" unicode="&#x2026;" horiz-adv-x="950" 
d="M778 172l-49 -199h-200l49 199h200zM510 174l-50 -199h-200l50 199h200zM241 176l-50 -199h-200l50 199h200z" />
    <glyph glyph-name="trademark" unicode="&#x2122;" horiz-adv-x="1005" 
d="M1014 835l-109 -437l-99 74l76 309h-56l-96 -383l-99 74l77 309h-57l-96 -383l-99 74l104 419l-101 -112h-65l-96 -384l-98 77l77 307h-143l107 118h321l4 16l76 -59l40 45h80l55 -45l39 44l87 1z" />
    <glyph glyph-name="integralbt" unicode="&#x2321;" 
 />
    <glyph glyph-name="NULL" horiz-adv-x="0" 
 />
    <glyph glyph-name="glyph4" 
 />
    <glyph glyph-name="glyph99" 
 />
    <glyph glyph-name="glyph100" 
 />
    <glyph glyph-name="glyph101" 
 />
    <glyph glyph-name="glyph102" 
 />
    <glyph glyph-name="glyph103" 
 />
    <glyph glyph-name="glyph104" 
 />
    </font>
</defs>
</svg>
