<?xml version="1.0" standalone="no"?>
<!DOCTYPE svg PUBLIC "-//W3C//DTD SVG 1.1//EN" "http://www.w3.org/Graphics/SVG/1.1/DTD/svg11.dtd" >
<svg xmlns="http://www.w3.org/2000/svg" xmlns:xlink="http://www.w3.org/1999/xlink" version="1.1">
<metadata>
Created by FontForge 20170731 at Wed May 28 01:27:54 2008
 By ,,,
Copyright (c) 2008 by ShyFoundry. All rights reserved. Freeware for personal use only. To purchase a commercial license, please visit our site at http://www.shyfoundry.com.
</metadata>
<defs>
<font id="SFOuterLimitsDistUpright" horiz-adv-x="1365" >
  <font-face 
    font-family="SF Outer Limits DistUpright"
    font-weight="400"
    font-stretch="normal"
    units-per-em="2048"
    panose-1="0 0 4 0 0 0 0 0 0 0"
    ascent="1638"
    descent="-410"
    x-height="1362"
    cap-height="1379"
    bbox="-247 -347.195 2127 1603"
    underline-thickness="20"
    underline-position="-163"
    unicode-range="U+0020-201B"
  />
<missing-glyph horiz-adv-x="1024" 
 />
    <glyph glyph-name=".notdef" horiz-adv-x="1024" 
 />
    <glyph glyph-name=".null" horiz-adv-x="0" 
 />
    <glyph glyph-name="nonmarkingreturn" horiz-adv-x="683" 
 />
    <glyph glyph-name="space" unicode=" " horiz-adv-x="683" 
 />
    <glyph glyph-name="space" unicode="&#xa0;" horiz-adv-x="683" 
 />
    <glyph glyph-name="exclam" unicode="!" horiz-adv-x="427" 
d="M341 51q-5 -41 -47 -48q-43 -1 -85.5 -1.5t-87.5 -1.5q-33 0 -34 31l-5 184q-2 36 34 36l191 3q14 0 24 -9t10 -23v-171zM343 377q0 -36 -36 -36l-193 -3q-35 0 -35 34l-26 1142q0 17 11 31.5t28 12.5l224 -12q39 -2 39 -48z" />
    <glyph glyph-name="quotedbl" unicode="&#x22;" horiz-adv-x="717" 
d="M343 1207q-2 -96 -63 -169q-65 -80 -159 -84l-3 34q71 14 82 142h-38q-40 -2 -54 5q-34 10 -33 37l10 190q1 34 38 31l189 -19q34 -4 34 -34zM623 1186q0 -92 -51 -162q-55 -77 -144 -82l-5 34q67 13 72 135h-36q-37 -2 -51 5q-31 10 -31 36l2 184q0 33 34 29
q38 -2 76 -5t76 -5q44 -5 53 -34q5 -25 5 -135z" />
    <glyph glyph-name="numbersign" unicode="#" horiz-adv-x="968" 
d="M527 918l-121 2l-3 -118h124v116zM829 701q0 -21 -2 -34t-9 -20.5t-19 -10.5t-31 -3q-6 0 -15 0.5t-19 1.5t-18.5 1.5t-12.5 0.5q0 -10 3 -35q4 -20 4 -39q0 -56 -36 -56h-106q-34 0 -39 53q1 -7 1.5 12.5t0.5 65.5h-128q0 -8 1.5 -27.5t1.5 -30.5q0 -71 -41 -71
q-6 0 -17 -0.5t-22.5 -1.5t-21.5 -1.5t-14 -0.5q-68 0 -68 65q0 7 1 17t2.5 20.5t2.5 19t1 13.5q-5 0 -13 -0.5t-18 -1.5h-31q-35 0 -48 7q-20 12 -20 58q0 56 10 75q13 31 63 31q12 0 33.5 -1.5t30.5 -1.5l6 116q-4 0 -11 -0.5t-18 -1.5h-30q-38 0 -51.5 10t-13.5 46
q0 47 8 68q14 29 57 29q6 0 15 -1t18.5 -1.5t18 -1.5t12.5 -1v40q0 64 38 64l94 -1q32 0 32 -48q0 -5 -1 -13t-1.5 -16t-1.5 -15.5t-1 -11.5l120 -2q0 3 -0.5 10t-1.5 14.5t-1.5 15t-0.5 11.5q0 53 34 53q99 0 112 -10t15 -94v-3h27q5 1 9 1h8h12q47 0 61 -24q11 -17 11 -68
q0 -61 -55 -61q-11 0 -32.5 2.5t-32.5 2.5l4 -116q10 0 28.5 1.5t29.5 1.5q51 0 66 -27q10 -16 10 -74z" />
    <glyph glyph-name="dollar" unicode="$" 
d="M1314 1060q-2 -38 -37 -38l-958 11l5 -190l717 -7q104 -1 178 -80q75 -78 75 -183q0 -2 -4.5 -103.5t-12.5 -305.5q-1 -34 -36 -34l-430 -2q0 -9 1.5 -28.5t1.5 -29.5q0 -68 -39 -68h-186q-34 0 -38 51q0 2 1 21t3 54l-441 -3q-35 0 -37 35l-7 192q-2 35 34 35h925l4 176
l-704 4q-110 0 -192 84q-82 85 -86 194l-17 445q0 16 10.5 28.5t25.5 12.5l476 -8q0 4 -0.5 13t-1 19t-1 20.5t-0.5 17.5q0 80 41 80l204 -4q40 0 40 -80q0 5 -1 -12.5t-3 -57.5l465 -8q35 0 34 -40z" />
    <glyph glyph-name="percent" unicode="%" horiz-adv-x="2219" 
d="M589 1210l-289 7l9 -306l282 -5zM1632 522l-23 -259h243l29 259h-249zM870 1203q0 -25 -1.5 -99t-3.5 -201q-1 -112 -82 -199q-80 -86 -191 -86q-51 0 -118.5 0.5t-154.5 1.5q-114 1 -201 90q-87 90 -94 205q-10 154 -14.5 235t-4.5 92q0 116 80 208q81 91 197 91
q25 0 303 -12q122 -5 203 -104q82 -97 82 -222zM1789 1302q0 -13 -11 -27l-1059 -1261q-11 -12 -28 -12q-23 0 -103 62q-78 61 -78 86q0 14 5 22l1070 1306q12 14 30 14q26 0 100 -81q74 -80 74 -109zM2127 555q0 -23 -36 -290q-14 -98 -92 -172q-77 -74 -175 -76
q-192 -3 -237 -3q-94 0 -160 68q-65 68 -65 164q0 10 4.5 78t12.5 198q7 108 89 190q83 83 187 83q52 0 255 -3q94 -2 155 -73q62 -71 62 -164z" />
    <glyph glyph-name="ampersand" unicode="&#x26;" 
d="M1287 118q0 -38 -36 -38l-461 -10q0 -5 0.5 -12t1.5 -17v-31q0 -81 -41 -83l-205 -6q-39 -2 -39 69q0 -1 1.5 18t5.5 57q-118 -2 -190 -3.5t-100 -1.5q-54 0 -134 77q-78 78 -78 189q0 5 2.5 54.5t7.5 146.5q7 130 111 214q-3 19 -3 46q0 8 2 55.5t6 138.5q5 105 89 184
q83 79 191 77l132 -1q0 4 -0.5 10.5t-1.5 14.5v28q0 73 39 73l191 -2q36 0 36 -61q0 5 -1.5 -11t-3.5 -54l437 -3q32 0 32 -35l2 -186q0 -34 -34 -34h-838l-7 -177l321 2q14 0 25 -11.5t11 -24.5l-4 -198q0 -36 -37 -36l-417 -5l-8 -186l957 13q36 0 36 -35z" />
    <glyph glyph-name="quotesingle" unicode="'" horiz-adv-x="427" 
d="M348 1184q-3 -89 -63 -159q-60 -71 -147 -81l-5 27q65 17 72 128q-29 -2 -45 -3.5t-20 -1.5q-57 0 -58 34l-5 190q-1 34 36 35l204 6q14 0 25 -11.5t11 -24.5z" />
    <glyph glyph-name="parenleft" unicode="(" horiz-adv-x="683" 
d="M635 1270q-2 -41 -38 -39l-242 15l-15 -1328l216 3q14 0 23.5 -9t9.5 -23l-7 -179q-2 -32 -32 -33q-215 -6 -224 -6q-96 0 -169 73q-72 75 -73 169l-17 1350q-2 121 76 215q79 96 197 96q4 0 70 -4.5t198 -14.5q37 -4 35 -48z" />
    <glyph glyph-name="parenright" unicode=")" horiz-adv-x="683" 
d="M567 -22q0 -98 -70 -183q-69 -87 -164 -104l-212 -37q-34 -7 -34 27v189q0 34 34 40l212 32v1171l-212 -4q-34 0 -34 33v189q0 34 34 34l212 -1q95 0 164 -76q70 -76 70 -172v-1138z" />
    <glyph glyph-name="asterisk" unicode="*" horiz-adv-x="1157" 
d="M1121 1077q0 -82 -65 -133q-11 -10 -106 -37.5t-276 -75.5l198 -51q156 -43 174 -58q50 -44 50 -102q0 -67 -46 -119q-45 -52 -111 -52q-56 0 -168 121q-35 43 -71.5 85.5t-73.5 85.5q14 -46 27 -91.5t26 -91.5q34 -121 34 -181q0 -43 -38 -72q-38 -27 -83 -27
q-49 0 -95 36t-46 84q0 51 32 170q12 45 24 87t25 87q-32 -37 -63 -73t-63 -73q-97 -106 -140 -106q-52 0 -90 56q-36 51 -36 104q0 51 37 87q8 7 84 30.5t224 63.5q-73 19 -151 43.5t-165 53.5q-48 43 -48 110q0 56 31 105q37 57 89 57q47 0 153 -118q35 -40 69 -80l68 -80
q-14 49 -28.5 97t-28.5 99q-37 132 -37 191q0 57 47 104q46 46 107 46q54 0 95 -35t41 -89q0 -62 -39 -203q-16 -54 -31 -105.5t-31 -103.5q42 48 81.5 95t79.5 95q123 135 184 135q65 0 107 -53q43 -52 43 -118z" />
    <glyph glyph-name="plus" unicode="+" horiz-adv-x="853" 
d="M780 783q-2 -45 -3.5 -88.5t-3.5 -88.5q-5 -43 -46 -50q-43 -1 -85.5 -2t-85.5 -3q-2 -83 -3 -162q-4 -39 -48 -44q-43 -2 -85 -3t-85 -2q-35 -2 -36 30l-5 173l-188 -7q-38 -2 -39 32q-7 100 -10.5 149.5t-3.5 50.5q0 36 34 36l198 3l-7 203q-1 40 38 40l210 1
q15 0 26 -11t11 -26l-3 -200l188 3q13 0 22.5 -10t9.5 -24z" />
    <glyph glyph-name="comma" unicode="," horiz-adv-x="427" 
d="M340 90q-2 -86 -58 -156q-55 -69 -140 -77l-5 29q64 15 68 124q-51 -3 -53 -3q-63 0 -63 34l-4 181q0 34 34 34h188q34 0 34 -34z" />
    <glyph glyph-name="hyphen" unicode="-" horiz-adv-x="1024" 
d="M939 591q0 -32 -34 -33l-801 -27q-37 -1 -41 32q-14 94 -21.5 140.5t-7.5 47.5q0 32 33 32l839 21q14 0 24 -9.5t10 -23.5z" />
    <glyph glyph-name="period" unicode="." horiz-adv-x="427" 
d="M343 217q-1 -42 -1.5 -84t-0.5 -84q-5 -40 -47 -47q-45 -1 -87.5 -3t-85.5 -4q-35 -2 -36 29l-6 181q-2 35 34 36l196 8q14 0 24 -9.5t10 -22.5z" />
    <glyph glyph-name="slash" unicode="/" horiz-adv-x="672" 
d="M681 1428q0 -49 -36 -182q-14 -48 -27 -94t-27 -94q-32 -123 -95.5 -370t-157.5 -618l-68 -268q-5 -20 -9 -39l-8 -38q-16 -58 -40 -58q-44 0 -117 14q-91 19 -91 49q0 64 29 168q12 42 24 82.5t24 80.5q23 91 85.5 351t163.5 691l79 331q4 23 8 47t9 48q18 68 49 68
q33 0 119 -68t86 -101z" />
    <glyph glyph-name="zero" unicode="0" 
d="M1015 1106l-680 7l-21 -929l719 38zM1285 225q0 -106 -71 -192t-175 -93l-730 -53h-19q-116 0 -193 83t-71 199l35 945q4 106 88 184q86 78 191 74l670 -17q99 -2 169 -77q70 -74 77 -174q14 -232 21.5 -449.5t7.5 -429.5z" />
    <glyph glyph-name="one" unicode="1" horiz-adv-x="512" 
d="M423 39q0 -32 -32 -34l-183 -8q-36 -2 -36 30l-15 1168h-27q-69 0 -69 47l-3 231q0 37 34 37q37 0 113 -8.5t191 -25.5q36 -5 36 -46z" />
    <glyph glyph-name="two" unicode="2" 
d="M1302 1190q0 -29 -8.5 -107t-25.5 -209q-14 -102 -85 -179q-75 -84 -176 -84l-661 2l-6 -354l831 19q12 0 19.5 -9.5t5.5 -21.5q-2 -29 -5 -58t-5 -58q-12 -85 -41 -87l-1026 -42q-27 -2 -32 30q-2 66 -3 188q-2 135 -3 232.5t-1 161.5q0 113 81 200t192 84l678 -17
l25 285l-942 46q-39 1 -39 44l-2 242q0 18 11.5 31.5t28.5 11.5l971 -72q97 -6 160 -97q58 -82 58 -182z" />
    <glyph glyph-name="three" unicode="3" 
d="M1309 623q0 -48 -4.5 -138.5t-14.5 -226.5q-7 -105 -86 -181q-80 -77 -182 -77h-903q-34 0 -34 34l-1 188q0 36 34 36h915l13 351h-403q-37 0 -35 36l5 200q1 37 36 37h319l10 280h-865q-36 0 -36 39l-2 210q0 40 36 40h879q106 0 183 -83q76 -82 76 -192
q0 -271 -24 -359q84 -75 84 -194z" />
    <glyph glyph-name="four" unicode="4" 
d="M1364 311q0 -35 -31 -35l-143 -1q5 -48 11 -95.5t12 -95.5q8 -57 12 -104.5t4 -85.5q0 -37 -33 -37l-208 -5q-37 -1 -41 42l-31 377l-554 -6q-116 0 -199 89q-83 92 -83 207l5 770q0 31 34 31l186 -2q35 0 35 -32l15 -765l539 4l-44 588q-2 14 7.5 24.5t23.5 10.5l181 -2
q32 0 35 -34l62 -587l140 1q32 0 39 -37q13 -64 19.5 -118t6.5 -102z" />
    <glyph glyph-name="five" unicode="5" 
d="M1285 1188q0 -36 -36 -36l-967 10l15 -283l720 -5q108 0 186 -82q79 -82 79 -190q0 -133 -0.5 -218.5t-1.5 -127.5q-2 -103 -77 -178t-177 -75l-912 -5q-34 0 -35 31l-14 188q-5 36 34 36l925 3l-3 348l-710 2q-112 0 -197 82q-87 84 -94 193l-34 539q-1 15 9 27t25 12
l1231 -20q36 0 36 -40z" />
    <glyph glyph-name="six" unicode="6" 
d="M343 609l-2 -353l707 -2l15 362zM1341 631q0 -124 -18 -377q-9 -107 -93 -184q-83 -77 -192 -75l-697 5q-101 1 -177 78q-77 76 -79 178l-8 898q-2 112 78 201q82 90 191 94l617 24q15 0 26 -12t11 -27l-8 -215q-2 -38 -40 -40l-607 -18v-280l728 13q109 1 188 -77
q80 -78 80 -186z" />
    <glyph glyph-name="seven" unicode="7" horiz-adv-x="1323" 
d="M1280 -121q1 -45 -38 -45h-216q-40 0 -40 45l-5 1230h-921q-33 0 -33 33q0 29 4.5 76t12.5 113q4 33 38 33h1119q34 0 36 -33z" />
    <glyph glyph-name="eight" unicode="8" 
d="M1017 608h-720l34 -354h691zM913 1200h-578l27 -306h558zM1282 254q-2 -101 -79 -174q-76 -73 -177 -73h-671q-103 0 -185 72q-83 74 -98 175q-23 153 -34.5 248t-11.5 140q0 111 73 184q-10 28 -19 78t-19 125q-8 69 -12.5 121t-4.5 87q0 115 75 202q76 87 188 87h598
q122 0 209 -101t87 -225q0 -14 0.5 -41t1.5 -56.5t1.5 -56t0.5 -39.5q0 -63 -3.5 -107.5t-10.5 -73.5q98 -87 96 -218z" />
    <glyph glyph-name="nine" unicode="9" 
d="M1024 1103l-695 15l-12 -275l721 -5zM1353 119q0 -117 -71 -209q-75 -101 -190 -108l-670 -38q-19 -1 -30 14t-11 34l8 258q2 47 41 48l645 22l-22 415l-748 -9q-110 -2 -192 81q-81 82 -81 196q0 45 6 120.5t17 181.5q10 105 91 176q79 73 185 73q257 0 679 -24
q100 -5 175 -80q76 -73 85 -173l82 -947q1 -5 1 -9.5v-8.5v-13z" />
    <glyph glyph-name="colon" unicode=":" horiz-adv-x="427" 
d="M341 36q0 -33 -34 -34l-188 -4q-33 -2 -34 31l-5 188q-2 36 34 36l193 3q34 0 34 -34v-186zM345 655q0 -37 -36 -37h-193q-46 7 -49 56q-1 51 -1.5 101t-0.5 101q0 15 11 27t26 12l207 -5q36 -2 36 -41v-214z" />
    <glyph glyph-name="semicolon" unicode=";" horiz-adv-x="427" 
d="M341 84q-1 -84 -58 -153q-56 -69 -140 -78l-5 28q63 15 67 121q-23 -1 -36.5 -1.5t-18.5 -0.5q-63 0 -65 32l-6 180q-2 35 34 35l196 2q14 0 24 -10t10 -24zM352 778q1 -17 1 -29.5v-22.5v-23q0 -60 -16 -75q-17 -15 -78 -15h-22h-19t-25 1h-92q-38 0 -40 41l-8 229
q-1 43 37 43h222q40 0 40 -45v-104z" />
    <glyph glyph-name="equal" unicode="=" horiz-adv-x="1024" 
d="M939 420q0 -34 -34 -34l-786 -4q-32 0 -35 34q-8 94 -12 141.5t-4 48.5q0 32 33 32l805 2q34 0 34 -36zM942 763q0 -36 -36 -36l-814 -2q-34 0 -37 36q-8 103 -12.5 153.5t-4.5 51.5q0 34 32 34h840q35 0 35 -37z" />
    <glyph glyph-name="question" unicode="?" 
d="M365 -119q0 -18 -12 -30.5t-27 -12.5l-213 8q-40 1 -40 45l2 230q0 42 39 41q51 -1 100 -2t100 -3q48 -7 51 -61v-215zM1376 809q0 -108 -78 -186q-78 -76 -187 -75l-758 8l5 -257q0 -16 -11 -28t-26 -12l-207 6q-37 1 -37 40l2 255q0 110 81 196q81 85 190 85l737 -3
l-22 276l-947 -5q-14 0 -24 10.5t-10 23.5l1 186q0 35 34 35l924 13q110 2 198 -76q90 -77 102 -185q33 -288 33 -307z" />
    <glyph glyph-name="A" unicode="A" 
d="M109 556q-109 -3 -109 -22q0 -27 109 -94v116zM1043 364q-357 138 -700 180v-220q329 -140 695 -198zM343 609v-29q341 -49 700 -177l1 152zM1481 119q0 32 -148 111l-4 -133h16q136 0 136 22zM425 1109v-256l531 -25l3 271zM345 72q0 -33 -33 -28l-170 26q-29 5 -29 36
l-4 259q30 -18 89 -45t147 -64v-184zM1329 -34q0 -63 -39 -63q-38 0 -92 8t-126 24q-36 9 -36 39v81q85 -17 157.5 -26.5t134.5 -11.5v-10v-6.5t1 -7.5v-27zM1524 116q0 -65 -157 -65q-68 0 -159 12q-587 79 -1099 333q-138 70 -138 136t138 65q-3 142 82 212
q-12 51 -12 143q0 12 0.5 34t1.5 46t1.5 46.5t0.5 34.5q0 98 71 175q72 76 173 79q97 4 230 5.5t306 1.5q118 0 203 -82q87 -83 87 -198v-102q1 -91 -3.5 -150t-12.5 -91q103 -87 103 -220q0 -2 -1.5 -63.5t-3.5 -187.5q189 -89 189 -164z" />
    <glyph glyph-name="B" unicode="B" 
d="M61 689q-126 -80 -126 -107q0 -26 123 -26zM906 1014q-135 -23 -270 -64.5t-272 -101.5l546 5zM905 1101l-562 13l-2 -237q284 118 564 169v55zM1277 1010q0 26 -110 26h-46l5 -155q151 94 151 129zM1220 268q0 -97 -58 -179q-63 -87 -155 -99l-928 -130q-16 -2 -27 9.5
t-11 26.5l15 573q161 -2 280 33l-3 -313l667 67l-10 346l-413 -18q100 29 236.5 84t316.5 136v-10q70 -70 77 -181q7 -117 10 -202.5t3 -142.5zM1304 1009q0 -101 -360 -258q-118 -51 -234.5 -94.5t-236.5 -78.5q-240 -71 -425 -71q-152 0 -152 73q0 74 167 166l17 607
q1 37 38 35l780 -48q95 -5 160 -89q58 -76 62 -178q14 2 25.5 3t21.5 1q137 0 137 -68z" />
    <glyph glyph-name="C" unicode="C" 
d="M51 865q-131 -17 -131 -37q0 -33 121 -96zM1432 551q0 21 -55 51q-428 248 -1058 272l-14 -248q401 -128 804 -128q38 0 82.5 3t95.5 8q145 15 145 42zM1319 -79q1 -42 -36 -42l-1020 -9q-109 -1 -189 82q-79 82 -79 193q0 6 0.5 14.5t1.5 19.5l37 464q92 -44 266 -95
l-20 -367l995 5q35 0 37 -39zM1468 553q0 -97 -296 -97q-261 0 -539 49q-206 36 -426 111q-326 110 -326 208q0 43 70 67q24 7 50 12t54 7q2 34 6.5 84t10.5 119q12 104 92 176q79 73 184 73l893 -3q32 0 34 -33l5 -183q1 -34 -32 -34l-915 2l-10 -200q204 -12 382 -42
q191 -33 430 -111q333 -111 333 -205z" />
    <glyph glyph-name="D" unicode="D" 
d="M82 587q-109 -67 -109 -92q0 -23 107 -31zM1043 910q-368 -48 -702 -190l-1 -244q364 43 710 188zM1038 1113l-697 -4v-350q168 67 342.5 113.5t357.5 74.5zM1432 899q0 23 -118 26l5 -125q113 71 113 99zM1341 191q0 -111 -80 -191t-191 -75l-961 34q-34 1 -34 38l5 387
q42 -1 65 -1.5t27 -0.5q96 0 168 19v-174l722 -19l-11 379q154 56 272 123q18 -509 18 -519zM1469 896q0 -72 -148 -148q-141 -73 -284.5 -130.5t-299.5 -102.5q-339 -95 -618 -95q-179 0 -179 75q0 71 144 145l8 684q0 35 33 35l904 11q108 2 188 -74q83 -77 89 -182
l6 -145q157 4 157 -73z" />
    <glyph glyph-name="E" unicode="E" 
d="M109 963q-104 -12 -104 -33q0 -25 103 -85zM944 862q-310 90 -598 106l-1 -116zM1522 597q0 23 -157 104q2 -20 3.5 -37t1.5 -31q0 -58 -39 -58l-387 5q88 -13 163 -19t144 -6q271 0 271 42zM1422 -119q1 -18 -12.5 -29.5t-30.5 -10.5l-1263 118q-34 3 -32 41l20 765
q195 -91 517 -180l-278 4l-3 -365l1019 -60q42 -2 46 -45zM1563 596q0 -89 -228 -89q-149 0 -299 19.5t-306 57.5q-112 27 -217 60t-208 71q-327 123 -327 212q0 66 133 78l8 290q2 33 31 34l1127 88q39 3 41 -33l13 -198q1 -35 -37 -37l-948 -46v-99q97 -7 190 -19.5
t186 -30.5q14 -2 66.5 -16t143.5 -40q130 -36 211 -36q28 0 84 3q28 2 49.5 3t35.5 1q61 0 50 -113q201 -87 201 -160z" />
    <glyph glyph-name="F" unicode="F" horiz-adv-x="1323" 
d="M75 519q-72 -77 -72 -103q0 -13 19 -13h14q4 0 13.5 1.5t23.5 3.5zM341 582v-97q52 20 107.5 45.5t116.5 56.5zM341 1109v-261l79 2q240 160 471 258zM1236 1159q1 -3 1 -10v-9q0 -37 -47 -37q-13 0 -33 0.5t-46 1.5q-53 3 -80 3q-144 0 -550 -258l507 5q258 202 270 297
zM340 -24q0 -38 -36 -39l-200 -10q-15 0 -25.5 10t-10.5 25l4 361q79 14 145.5 34t123.5 46zM1290 1143q0 -102 -247 -288q-120 -90 -238 -167t-237 -144q-332 -186 -513 -186q-89 0 -89 60q0 66 109 166l9 751q0 32 35 32l1079 -17q43 0 36 -154q56 -6 56 -53zM1256 638
q1 -36 -31 -36l-500 -10q70 45 118 75.5t75 49.5q104 71 179 140h118q32 0 34 -33z" />
    <glyph glyph-name="G" unicode="G" 
d="M17 831q-145 -10 -145 -36q0 -30 148 -100zM1015 691q-166 58 -337 93.5t-357 48.5l2 -254q184 -57 355.5 -85.5t335.5 -30.5zM1338 514q0 20 -99 77v-113q99 15 99 36zM1237 92q0 -31 -29 -36l-879 -121q-24 -3 -39 -3q-104 0 -183 69q-78 69 -80 173l-7 425
q39 -19 114.5 -44t189.5 -57l2 -293l688 68v123q32 -1 51 -1.5t24 -0.5q73 0 150 12zM1365 515q0 -88 -290 -88h-25q-528 0 -1069 230q-153 64 -153 135q0 84 189 89l-3 259q0 113 79 192q79 81 190 81h31l901 -66q29 -2 29 -36l-2 -179q0 -35 -29 -33l-896 31l4 -258
q196 -20 367 -54.5t327 -85.5q-3 31 -3 55q0 68 34 68h166q29 0 29 -31l-2 -187q126 -62 126 -122z" />
    <glyph glyph-name="H" unicode="H" 
d="M72 640q-104 -68 -104 -94q0 -20 111 -24zM336 594l4 -55q142 19 291 57zM1022 966q-234 -31 -488 -114l488 1v113zM1391 957q0 19 -109 23l-2 -120q111 67 111 97zM360 51q2 -32 -32 -32l-186 -4q-35 0 -36 31l-24 401q10 -1 18 -1.5t13 -0.5q150 0 228 21zM1275 65
q0 -33 -33 -33l-180 -3q-33 0 -33 32l-5 538l-162 -2q147 52 213 81q58 23 109 47.5t96 49.5zM1425 952q0 -83 -288 -213q-91 -40 -184 -75t-195 -67q-374 -117 -644 -117q-184 0 -184 70q0 64 138 141l-37 662q-2 36 36 36h199q37 0 38 -37l22 -500h107q19 5 43 15
q280 99 546 138l-3 342q0 13 11 24t25 11l193 -1q35 0 35 -36l-1 -323q143 0 143 -70z" />
    <glyph glyph-name="I" unicode="I" horiz-adv-x="427" 
d="M111 1065q-35 -14 -72 -33t-77 -42q-112 -67 -112 -103q0 -25 141 -25q28 0 56.5 2t58.5 6zM536 1092q0 29 -150 29h-22h-11t-12 -1v-181q195 91 195 153zM341 -26q0 -39 -32 -44l-191 -26q-16 -1 -26 11.5t-10 28.5l22 850q146 30 237 76v-896zM556 1085
q0 -101 -244 -192q-211 -77 -334 -77q-159 0 -159 77q0 105 294 210l6 252q0 24 21 24q18 0 85 -19q36 -10 58.5 -16t30.5 -9q29 -12 31 -81q-1 31 -2 6.5t-2 -105.5q17 2 30.5 3t24.5 1q160 0 160 -74z" />
    <glyph glyph-name="J" unicode="J" horiz-adv-x="981" 
d="M650 985q-213 -70 -399 -168.5t-350 -229.5q-111 -87 -111 -124q0 -12 65 -12q316 0 778 228zM1147 1048q0 19 -72 19q-80 0 -177 -17l-19 -233q268 175 268 231zM833 288q-9 -92 -77 -166q-67 -73 -159 -79l-517 -41q-34 -1 -34 30l-3 181q0 35 34 36l534 27l19 328
q51 23 81 37t43 21q35 17 65 35t53 35zM1176 1055q0 -61 -123 -161q-43 -35 -87 -66.5t-92 -59.5q-121 -72 -240.5 -130.5t-240.5 -106.5q-313 -125 -511 -125h-19q-110 0 -110 60q0 63 104 147q310 252 797 413l22 414q1 43 37 40l186 -16q36 -3 31 -44l-27 -326
q94 20 159 20q114 0 114 -59z" />
    <glyph glyph-name="K" unicode="K" 
d="M126 879q-10 1 -16.5 1.5t-8.5 0.5q-38 0 -38 -17q0 -21 55 -76zM1031 507l-522 -4q129 -70 259 -124t268 -94zM532 788q-45 17 -88.5 30t-85.5 23l-5 -82l154 4zM1398 242q0 21 -84 99l5 -111q28 -3 33 -3h12q34 0 34 15zM340 503l-29 -517q-1 -38 -38 -37l-189 5
q-35 2 -31 39l58 707q67 -66 131 -114.5t127 -82.5h-29zM1333 -39q2 -41 -38 -41h-38h-44t-63 1q-75 2 -90 14q-24 16 -24 80q0 13 0.5 36.5t1.5 57.5v92q80 -25 151 -40.5t135 -20.5zM1434 246q0 -65 -103 -65q-307 0 -896 322q-125 69 -237 156q-166 127 -166 203
q0 29 36 46q29 14 62 12l27 343q3 39 142 39q26 0 42.5 0.5t26 -2t12.5 -8t2 -17.5l-22 -396q38 -11 87.5 -27.5t110.5 -39.5q529 529 543 529q24 0 97 -61q75 -62 75 -82q0 -16 -409 -428q154 3 162 3q108 0 191 -78q83 -77 89 -186l5 -103q123 -95 123 -160z" />
    <glyph glyph-name="L" unicode="L" horiz-adv-x="1323" 
d="M80 686q-121 -79 -121 -111q0 -17 116 -19zM1186 988q0 21 -138 21q-314 0 -707 -178v-246q536 101 820 359q25 24 25 44zM1237 2q0 -28 -25 -29l-1120 -50q-15 0 -26 13t-11 28l17 507q155 3 269 36v-275l845 5q27 0 31 -34q10 -97 15 -147t5 -54zM1212 973
q0 -74 -217 -191q-73 -38 -146 -71.5t-148 -61.5q-376 -140 -629 -140q-151 0 -151 68q0 76 161 165l20 576q1 30 35 25l175 -22q31 -3 31 -34l-2 -418q425 175 709 175q162 0 162 -71z" />
    <glyph glyph-name="M" unicode="M" horiz-adv-x="1877" 
d="M60 546q-173 -98 -173 -140q0 -32 162 -42zM814 855q-130 -37 -249 -79t-234 -93l-8 -313q126 11 248.5 30t249.5 47zM809 1108h-466l-10 -379q223 89 481 162zM1541 990q-220 -16 -469 -72l17 -403q127 37 245 81.5t233 96.5zM1531 1108h-466l5 -151q121 29 237 48
t231 29zM1961 961q0 21 -162 32l19 -165q143 86 143 133zM311 -49q-2 -41 -38 -41h-208q-38 0 -36 41l15 317q28 -3 79 -3q112 0 198 15zM1113 -49q2 -41 -36 -41h-208q-40 0 -40 41l-6 418q73 14 139.5 31.5t129.5 39.5zM2002 945q0 -133 -517 -329q-351 -136 -662 -210
q-211 -51 -391 -76t-340 -25q-247 0 -247 105q0 88 218 196q2 85 8.5 209t17.5 293q7 100 84 171t177 71h1160q101 0 181 -71q79 -70 94 -171q1 -2 3 -18.5t4 -45.5q70 0 130 -17q80 -26 80 -82zM1913 -49q5 -41 -32 -41h-208q-38 0 -41 41l-58 660q170 60 254 123z" />
    <glyph glyph-name="N" unicode="N" 
d="M55 722q-135 -14 -135 -38q0 -30 131 -95zM993 621q-154 52 -316 81t-339 34l-2 -255q324 -92 598 -92h61zM988 1113l-648 -7l-2 -333q184 -11 346 -39t309 -74zM1302 452q0 23 -94 75l2 -114q92 20 92 39zM331 -65q0 -34 -37 -44q-153 -43 -224 -43q-29 0 -29 33l10 612
q104 -71 284 -94zM1215 99q0 -30 -29 -38q-119 -30 -164 -30q-24 0 -24 29l-3 263q17 -1 30 -1.5t21 -0.5q94 0 166 19zM1329 457q0 -102 -368 -102q-483 0 -910 176q-174 73 -174 147q0 81 178 93l5 332q1 109 86 192q85 82 197 79l643 -19q88 -3 150 -77t64 -164l8 -539
q121 -55 121 -118z" />
    <glyph glyph-name="O" unicode="O" 
d="M73 1051l-30 1.5t-11 0.5q-54 0 -54 -17q0 -23 92 -97zM1005 754q-159 88 -323 152t-341 104l-5 -247q335 -182 676 -249zM995 1094l-654 22v-66q183 -48 347.5 -111t315.5 -142zM1326 509q0 18 -85 87l5 -110q80 6 80 23zM1258 242q0 -98 -65 -181q-67 -85 -164 -92
l-705 -54h-19q-110 0 -186 79q-75 79 -75 190q0 5 6 170.5t17 490.5q87 -79 269 -162l-7 -475l692 34l-7 198q126 -34 235 -30q9 -152 9 -168zM1353 509q0 -65 -122 -65q-235 0 -605 147q-168 67 -305.5 139t-252.5 151q-128 90 -128 155q0 70 135 60q4 117 79 198
q77 80 192 73l640 -36q93 -5 160 -79q67 -73 73 -165l20 -438q114 -80 114 -140z" />
    <glyph glyph-name="P" unicode="P" horiz-adv-x="1323" 
d="M75 360q-131 -80 -131 -111q0 -24 123 -31zM336 584l-1 -50q40 16 129 48zM1417 669q0 22 -154 26q-82 -120 -222 -118l-469 5q-28 0 -239 -89l-10 -264q620 73 1044 380q50 36 50 60zM1027 1116l-672 -17l-9 -251l688 5zM312 -43q-2 -38 -37 -37l-191 10q-35 2 -33 41
l10 160q17 -2 41 -3.5t53 -1.5q43 0 83.5 4.5t80.5 12.5zM1454 664q0 -105 -322 -244q-197 -89 -427 -154q-344 -99 -592 -99q-202 0 -202 87q0 73 168 162l52 883q1 30 33 32l867 36q103 0 180 -71t84 -173q7 -91 10.5 -160.5t3.5 -121.5q0 -55 -19 -99q164 0 164 -78z" />
    <glyph glyph-name="Q" unicode="Q" horiz-adv-x="1451" 
d="M58 457q-72 -66 -72 -93q0 -14 24 -14h43zM986 954q-164 -40 -323.5 -110t-322.5 -173v-267q186 54 351 131t318 180zM976 1072l-635 36v-395q352 205 642 279zM1273 971q0 15 -34 15h-10h-22l12 -95q54 58 54 80zM1418 -41q4 -42 -29 -43l-1063 -47q-118 0 -201 95
q-79 88 -79 210q0 15 3 84q57 4 128.5 17.5t162.5 38.5v-121l715 14l-40 435q63 38 115.5 78.5t98.5 85.5l73 -594q4 1 8 1h9h21q42 0 48 -39zM1302 956q0 -94 -290 -280q-172 -109 -338 -189t-334 -134q-173 -54 -289 -54q-104 0 -104 71q0 67 113 156l25 595q4 97 81 162
q78 64 177 57l613 -46q102 -9 170 -89q60 -73 75 -181h11q90 3 90 -68z" />
    <glyph glyph-name="R" unicode="R" 
d="M77 1157q-10 2 -17 3t-12 1q-39 0 -39 -18q0 -24 68 -95v109zM720 616q88 -42 173 -74t170 -57l9 133zM836 901q-240 130 -483 200l-1 -205zM355 1190v-41q144 -48 283 -109t280 -139h80l17 297zM1403 449q0 15 -62 83l-8 -100q8 -1 14.5 -1.5t11.5 -0.5q44 0 44 19z
M348 614l-7 -580q0 -34 -34 -34l-188 2q-34 0 -34 34l-6 906q191 -188 484 -326zM1297 27q-3 -30 -37 -30h-193q-35 0 -33 32l24 377q78 -25 144.5 -39.5t123.5 -18.5zM1439 447q0 -63 -101 -63q-109 0 -276 58q-594 205 -983 538q-105 90 -105 158q0 35 33 55q34 19 70 15
l-4 241q0 43 38 43l922 17q112 1 191 -84q80 -86 80 -198q0 -80 -12 -198q-5 -51 -9.5 -99t-9.5 -99q87 -87 74 -234q92 -83 92 -150z" />
    <glyph glyph-name="S" unicode="S" 
d="M36 1149q-5 1 -12 1h-9q-32 0 -32 -15q0 -20 66 -87zM1019 606l-330 2q89 -45 171.5 -78.5t160.5 -58.5zM771 884q-245 136 -476 210l22 -213zM1343 422q0 22 -58 83l-2 -94q21 -3 23 -3h10q27 0 27 14zM1278 39q0 -31 -34 -30l-1034 44q-27 2 -34 31q-22 101 -22 175
q0 24 25 24l847 -25l-4 138q76 -28 141 -43.5t119 -17.5zM546 609q-33 0 -82.5 0.5t-118.5 1.5q-238 10 -282 331q231 -194 483 -333zM1379 425q0 -56 -89 -56q-107 0 -268 61q-553 208 -964 550q-107 90 -107 160q0 63 78 56l-29 229q-3 42 29 44l1231 55q17 0 28 -13.5
t11 -30.5l-4 -243q0 -41 -39 -42l-968 -26l4 -31q277 -95 553 -252h169q126 0 203 -98q70 -86 68 -218q94 -84 94 -145z" />
    <glyph glyph-name="T" unicode="T" horiz-adv-x="1229" 
d="M483 886q-310 -77 -560 -226q-58 -34 -58 -54q0 -36 239 -36q91 0 186 9.5t200 28.5zM1212 915q0 19 -128 30q-57 6 -116 6q-57 0 -118 -4.5t-130 -14.5l19 -265q142 42 251.5 93t190.5 112q31 24 31 43zM792 -72q3 -43 -34 -44l-208 -7q-39 -1 -41 44l-16 611
q72 10 134.5 26t116.5 39zM1239 898q0 -69 -215 -162q-133 -59 -283 -105q-374 -110 -668 -110h-20q-230 0 -230 92q0 86 285 193q85 32 178.5 59.5t196.5 52.5l-5 167l-422 41q-33 5 -32 35l10 163q2 29 36 26l980 -119q27 -4 42 -79q11 -58 11 -99q0 -28 -24 -26l-369 36
l7 -99q73 11 142 16.5t136 5.5q244 0 244 -88z" />
    <glyph glyph-name="U" unicode="U" 
d="M85 1014q-119 -5 -119 -29q0 -25 119 -96v125zM992 848q-320 125 -652 159l6 -239q337 -130 669 -157zM1352 643q0 22 -118 89l15 -123q103 9 103 34zM1299 183q0 -99 -58 -178q-62 -84 -159 -89l-727 -39q-117 0 -196 94q-75 87 -75 206l1 625q125 -80 263 -114l12 -500
l693 24l-31 327q78 -7 137 -8.5t101 0.5q5 -45 11.5 -87t13.5 -87q7 -52 10.5 -95.5t3.5 -78.5zM1381 637q0 -72 -186 -72q-369 0 -849 160q-129 43 -242 101q-172 88 -172 157q0 73 153 75v268q0 32 34 31l180 -9q32 -2 32 -32l7 -273q346 -47 650 -156l-39 403
q-2 12 6.5 20.5t20.5 8.5l161 -7q29 -2 32 -32l60 -500q152 -77 152 -143z" />
    <glyph glyph-name="V" unicode="V" 
d="M36 551q-104 -66 -104 -99q0 -20 112 -24zM1015 889q-365 -46 -715 -198l14 -249q184 23 359 71.5t346 121.5zM1396 877q0 19 -113 24l-1 -126q114 72 114 102zM1280 256q0 -104 -75 -179t-179 -75l-917 -5q-35 0 -37 32l-21 319q33 -3 62 -3q116 0 204 20l7 -111l698 2
l-3 305q78 29 143 60t120 63zM1432 870q0 -112 -413 -273q-192 -73 -365.5 -122t-337.5 -74q-63 -10 -123 -14.5t-118 -4.5q-183 0 -183 74q0 70 140 150l-54 826q-2 15 9 27t25 12l210 -3q37 0 39 -41l38 -695q380 152 716 200l-6 481q0 15 11 27t26 12l203 -3q36 0 36 -39
l-2 -463q149 -2 149 -77z" />
    <glyph glyph-name="W" unicode="W" horiz-adv-x="1877" 
d="M96 548q-103 -52 -103 -80q0 -16 101 -21zM792 811q-118 -32 -230.5 -69t-221.5 -82v-206q112 10 227.5 27.5t238.5 42.5zM1524 949q-121 -13 -240 -32t-240 -45l21 -288q268 67 483 153zM1920 945q-19 16 -123 19l15 -104q25 13 40.5 21t23.5 13q44 29 44 51zM1893 259
q0 -103 -79 -173q-78 -70 -182 -72l-1291 -12q-104 -2 -177 71q-74 74 -74 176q0 2 0.5 33.5l1.5 94.5q20 -1 43 -1.5t48 -0.5q92 0 157 12l1 -133l476 12l-10 198q88 17 152 32.5t109 29.5l19 -253l514 12l-46 389q176 62 268 109l68 -493q1 -6 1.5 -13.5t0.5 -17.5z
M1961 944q0 -105 -512 -272q-164 -52 -322.5 -96t-319.5 -79q-389 -87 -682 -87q-168 0 -168 61q0 53 139 120l10 604q0 42 199 42q31 0 31 -25l2 -521q105 38 217 74t235 70l-19 407q-2 45 212 45q34 0 36 -27l24 -362q127 29 245 49.5t233 33.5l-36 313q-5 31 31 32
l192 14q35 2 40 -28l44 -312q169 4 169 -56z" />
    <glyph glyph-name="X" unicode="X" horiz-adv-x="1280" 
d="M340 843q-90 19 -172 28.5t-159 9.5q-81 0 -81 -23q0 -42 205 -169q162 -97 263 -145l90 120zM1388 338q0 27 -125 114q-88 63 -192.5 119t-229.5 110l-13 -19l249 -338q42 -5 99 -7.5t130 -2.5q82 0 82 24zM253 -166q-12 -17 -35 -17q-34 0 -122 85q-89 84 -89 113
t338 463q33 -17 66 -33.5l67 -33.5q40 -19 75.5 -30.5t66.5 -16.5zM1331 56q0 -28 -68 -114q-68 -84 -96 -84q-18 0 -30 14l-378 459q135 -45 244.5 -70.5t194.5 -33.5q133 -142 133 -171zM1422 329q0 -58 -132 -58h-36q-282 0 -655 140q-330 125 -599 309q-108 75 -108 140
q0 67 135 67q108 0 275 -40q-259 304 -259 333q0 23 76 78q76 57 103 57q16 0 27 -12l396 -467l330 435q6 8 23 8q24 0 101 -62q75 -62 75 -86q0 -9 -312 -459q174 -72 324 -159q236 -137 236 -224z" />
    <glyph glyph-name="Y" unicode="Y" 
d="M316 580q-121 22 -190 132q-146 -99 -146 -139q0 -18 95 -18q104 0 241 25zM966 1050q-304 -48 -608 -200l642 -26zM1254 1046q0 19 -66 19h-9l19 -96q56 53 56 77zM1362 104q0 -99 -53 -176q-60 -85 -155 -88l-630 -28q-41 -2 -43 48l-12 256q-2 44 36 44l598 9l-62 392
l-468 9q326 113 640 317l142 -715q4 -16 5.5 -33t1.5 -35zM1285 1031q0 -52 -77 -111q-100 -77 -348 -193q-106 -51 -199.5 -89t-175.5 -66q-200 -70 -398 -70q-147 0 -147 73q0 78 162 179q-20 55 -20 108l7 457q0 30 32 28l178 -14q30 -1 32 -33l14 -416
q172 79 324.5 130.5t289.5 74.5l-25 164q-4 25 25 25q146 0 169 -20q15 -14 44 -154q113 -5 113 -73z" />
    <glyph glyph-name="Z" unicode="Z" 
d="M68 451q-66 -74 -66 -96q0 -15 27 -15h17q3 0 21 3zM346 563l2 -148q162 58 336 153zM992 1029q-201 -61 -415 -186l432 -3zM1265 1060q0 15 -34 15q-2 0 -6.5 -0.5t-11.5 -1.5l9 -85q43 52 43 72zM1343 -67q0 -33 -29 -35l-1217 -86q-17 -1 -29 13.5t-12 31.5l9 394
q126 7 285 75l2 -167l928 41q30 2 38 -38q13 -72 19 -129t6 -100zM1294 1048q0 -55 -65 -120q-324 -327 -879 -561q-179 -75 -294 -75q-92 0 -92 66q0 69 106 166q4 130 72 222q76 100 203 99l162 -2q248 143 481 222l-2 27l-868 22q-34 1 -34 36l3 186q0 32 34 31l1034 -48
q28 -2 33 -30l20 -176q86 2 86 -65zM1242 809q0 -93 -61 -163q-61 -71 -150 -73l-203 -3q118 75 218 155t188 171q4 -34 6 -55.5t2 -31.5z" />
    <glyph glyph-name="bracketleft" unicode="[" horiz-adv-x="683" 
d="M645 1500q-1 -54 -1.5 -107.5t-1.5 -107.5q-7 -53 -62 -58h-223l-14 -1311h227q35 0 34 -34l-5 -189q-1 -34 -36 -34l-444 3q-34 0 -34 33l-10 1792q0 40 38 42l495 12q15 0 26 -12.5t11 -28.5z" />
    <glyph glyph-name="backslash" unicode="\" horiz-adv-x="672" 
d="M655 -224q0 -23 -87 -39q-32 -5 -58.5 -7.5t-48.5 -2.5h-12q-29 11 -41 49q-9 34 -15 69l-323 1150q-14 46 -29 91.5t-29 91.5q-39 129 -39 175q0 35 95 77q91 38 132 38q30 0 49 -67q5 -24 9.5 -47.5t9.5 -46.5l331 -1300q8 -28 17 -57t17 -58q22 -73 22 -116z" />
    <glyph glyph-name="bracketright" unicode="]" horiz-adv-x="683" 
d="M587 -282q0 -30 -32 -32l-429 -19q-36 -2 -36 31l-3 181q0 33 34 34l222 7l-7 1266q-57 2 -111.5 3t-111.5 2q-55 8 -62 60q-1 54 -1.5 108t-1.5 109q0 15 12 28t27 11l492 -31q35 -2 35 -44z" />
    <glyph glyph-name="a" unicode="a" 
d="M918 1097l-491 14l-2 -268l505 -2zM1312 -49q4 -40 -29 -45l-184 -19q-36 -3 -37 40l-38 646l-693 -18l-10 -700q0 -48 -41 -51l-229 -22q-17 -2 -28 11.5t-11 30.5l32 722q7 142 113 231q-2 13 -3.5 26.5t-1.5 29.5q0 52 2 123t6 164q6 100 81 172q73 73 175 73
q60 0 181.5 -6t308.5 -19q94 -8 162 -81q69 -72 77 -168q11 -115 16.5 -174.5t5.5 -64.5q0 -19 -1.5 -36.5t-3.5 -33.5q88 -79 99 -202z" />
    <glyph glyph-name="b" unicode="b" 
d="M350 614l-5 -358l688 2l29 356h-712zM358 1200l-5 -301l640 -1l21 297zM1328 642q0 -77 -39 -384q-14 -102 -95 -178q-80 -75 -182 -75l-893 -3q-34 0 -34 32l-12 1441q0 17 11.5 29.5t26.5 12.5l927 -8q110 -2 186 -91q71 -83 71 -196q0 -40 -3 -90t-10 -110
q-6 -51 -12 -99.5t-12 -99.5q70 -73 70 -181z" />
    <glyph glyph-name="c" unicode="c" 
d="M1268 1152q0 -32 -32 -34l-937 -41l24 -896l909 136q12 2 21.5 -6.5t9.5 -20.5l-2 -169q0 -32 -30 -36l-902 -162q-14 -2 -27.5 -3.5t-25.5 -1.5q-101 0 -174 61q-75 60 -78 156l-33 937q0 118 93 201q88 82 208 84l945 10q31 0 31 -32v-183z" />
    <glyph glyph-name="d" unicode="d" 
d="M1024 1174l-713 -20l41 -895l672 -3v918zM1285 254q-2 -102 -81 -178q-76 -76 -180 -74l-870 12q-31 0 -33 32l-85 1350q-1 40 32 41l965 34q115 0 191 -88q78 -88 76 -202z" />
    <glyph glyph-name="e" unicode="e" 
d="M1338 -118q0 -17 -11 -29.5t-27 -12.5l-1242 63q-36 2 -32 42l99 1366q2 32 34 32l1089 29q33 1 35 -34l7 -188q1 -36 -34 -36l-904 -11l-14 -258h927q37 0 39 -38l7 -208q0 -15 -10.5 -26.5t-25.5 -11.5l-951 14l-19 -382l984 -34q39 -2 40 -43z" />
    <glyph glyph-name="f" unicode="f" horiz-adv-x="1323" 
d="M1219 621q0 -12 -8 -21t-20 -9l-856 11l-12 -616q0 -37 -40 -41q-81 -8 -136.5 -12.5t-85.5 -4.5q-37 0 -35 38l49 1422q2 29 31 29h8l1060 -132q29 -3 29 -34l4 -164q0 -12 -8 -21.5t-20 -7.5l-834 75l-5 -261l846 -44q25 -2 27 -33z" />
    <glyph glyph-name="g" unicode="g" 
d="M1285 19q0 -36 -36 -36l-990 -10q-112 -2 -189 74q-80 77 -80 185v12q0 10 1 15l91 871q10 90 87 153q76 64 169 64h31l868 -58q31 -1 31 -31l3 -162q0 -12 -10 -20.5t-22 -8.5l-887 47l-69 -856l738 -4l6 558q0 32 33 31l182 -7q33 -2 33 -32z" />
    <glyph glyph-name="h" unicode="h" 
d="M1394 -92q0 -38 -32 -38l-203 -5q-38 -2 -41 41l-56 664l-714 -7l9 -679q0 -45 -40 -46l-218 -7q-17 0 -28 13t-11 30l25 1457q0 33 36 33l184 -4q35 0 35 -32l5 -483l693 -2l-41 476q0 28 29 28l175 -4q30 0 35 -32z" />
    <glyph glyph-name="i" unicode="i" horiz-adv-x="427" 
d="M360 -147q0 -19 -12.5 -33.5t-30.5 -14.5l-227 11q-40 1 -39 49l43 1441q2 30 32 32l179 12q33 1 33 -27z" />
    <glyph glyph-name="j" unicode="j" horiz-adv-x="981" 
d="M920 249q-5 -107 -88 -181q-82 -73 -190 -73q-63 0 -161 2t-237 6q-56 0 -162 6q-33 3 -33 32l-3 184q0 14 9.5 23.5t23.5 9.5l570 -7l29 1195q1 40 41 42l215 14q15 2 27 -11t12 -28z" />
    <glyph glyph-name="k" unicode="k" 
d="M1333 -55q0 -36 -27 -37l-185 -14q-34 -1 -37 39l-50 550l-681 -20l11 -582q0 -45 -38 -48l-215 -16q-17 -1 -28 12.5t-11 30.5l13 1473q0 33 34 32l185 -6q32 -2 32 -35l12 -575l161 2l506 570q8 8 21 8q19 0 89 -70q70 -69 70 -88q0 -14 -335 -418l150 1q98 0 178 -83
q72 -78 83 -181z" />
    <glyph glyph-name="l" unicode="l" horiz-adv-x="1323" 
d="M1329 213q0 -29 -5 -77t-15 -117q-5 -33 -41 -33l-1147 19q-34 0 -34 33l-20 1433q0 45 37 46l215 7q16 0 27 -13t11 -30l-14 -1227l954 -8q32 0 32 -33z" />
    <glyph glyph-name="m" unicode="m" horiz-adv-x="1877" 
d="M1746 49q1 -34 -27 -37l-168 -15q-30 -5 -32 30l-34 1065l-423 14l8 -1120q0 -37 -34 -41l-196 -20q-16 -2 -26 9t-10 27l8 1152l-496 15l-46 -1218q-2 -43 -43 -47l-232 -22q-17 -1 -30 10t-11 28l68 1259q7 109 91 183q85 73 196 73h17l1152 -66q89 -5 153 -79
q64 -73 69 -164z" />
    <glyph glyph-name="n" unicode="n" 
d="M1372 -65q4 -42 -31 -43l-199 -6q-36 -2 -39 41l-98 1172l-664 10l11 -1208q0 -44 -38 -46l-217 -7q-17 0 -28 13t-11 30l24 1223q1 100 79 173t179 70l646 -17q96 -2 173 -76q76 -74 87 -168z" />
    <glyph glyph-name="o" unicode="o" 
d="M350 1212l-9 -958l659 21l96 918zM1362 1232q0 -21 -3 -46l-125 -904q-14 -97 -89 -166q-74 -70 -170 -77q-380 -27 -646 -27q-98 0 -171 69t-76 166l-31 982q0 128 86 229q85 100 215 95l776 -36q104 -5 169 -91t65 -194z" />
    <glyph glyph-name="p" unicode="p" horiz-adv-x="1323" 
d="M1027 1106l-684 3l7 -264l705 -2zM1316 809q0 -98 -68 -172q-68 -72 -166 -72l-727 -4l14 -691q1 -46 -40 -46l-220 -3q-17 0 -28 14.5t-11 31.5l15 1462q0 33 34 33l883 -9q101 -2 182 -75q81 -74 96 -174q36 -240 36 -295z" />
    <glyph glyph-name="q" unicode="q" horiz-adv-x="1451" 
d="M341 1108l-54 -917l728 -10l7 928zM1393 -87q0 -15 -11.5 -28t-26.5 -13l-1087 20q-104 2 -179 83q-74 80 -74 185q0 5 0.5 14t1.5 21l72 911q7 100 87 177q79 76 181 76l667 5q104 0 180 -76q78 -76 79 -179l11 -932q14 1 23 1.5t12 0.5q57 0 59 -42z" />
    <glyph glyph-name="r" unicode="r" 
d="M916 1179l-633 -8l19 -287l621 5zM1280 34q0 -32 -34 -32l-186 1q-34 0 -34 33l-9 575l-696 -2l37 -568q2 -14 -7.5 -24t-22.5 -10l-181 2q-33 0 -36 34l-116 1380q-5 41 31 41l885 17q116 2 199 -90t83 -208v-364q90 -86 90 -206z" />
    <glyph glyph-name="s" unicode="s" 
d="M1287 -9q0 -38 -34 -39l-1219 -63q-15 0 -25.5 11t-10.5 27l7 210q2 39 39 40l978 40v363l-720 -19q-109 -3 -191 75q-82 79 -82 188q0 58 2.5 148.5t7.5 217.5q1 25 3 61t4 87q3 36 39 36l1159 -10q33 0 33 -35l1 -186q0 -34 -32 -34l-930 -3l-7 -270l715 11
q103 1 180 -78q76 -78 78 -182z" />
    <glyph glyph-name="t" unicode="t" horiz-adv-x="1229" 
d="M1215 1138q0 -30 -32 -30h-435l59 -1185q2 -41 -36 -41l-206 -1q-38 0 -39 40l-34 1187l-441 1q-36 0 -36 34l2 188q0 33 34 33l1111 -4q33 0 36 -32q8 -67 12.5 -114t4.5 -76z" />
    <glyph glyph-name="u" unicode="u" 
d="M1285 254q-2 -102 -81 -178q-76 -76 -180 -74l-666 8q-99 2 -179 76q-78 74 -87 175l-104 1188q-3 42 31 43l203 5q36 2 41 -41l78 -1197l683 -3l-5 1219q0 42 39 44l215 5q16 0 27 -13t11 -30z" />
    <glyph glyph-name="v" unicode="v" 
d="M1323 251q-9 -106 -96 -182q-84 -76 -193 -74l-915 8q-32 0 -32 33l-14 1404q0 41 38 43l208 5q16 0 27 -12.5t11 -28.5l-14 -1191l708 -3l79 1215q3 42 42 44l221 5q15 0 26 -12.5t9 -28.5z" />
    <glyph glyph-name="w" unicode="w" horiz-adv-x="1877" 
d="M1792 259q0 -102 -77 -182t-179 -84l-1270 -56q-110 0 -189 75q-80 75 -80 183v1138q0 36 35 36l209 -2q37 0 37 -36v-1126l507 17v1109q0 36 36 36h198q36 0 36 -36v-1099l481 17v1082q0 34 34 34h188q34 0 34 -34v-1072z" />
    <glyph glyph-name="x" unicode="x" horiz-adv-x="1280" 
d="M1208 1229q0 -21 -187 -256q-58 -70 -114 -140t-113 -140q341 -440 341 -447q0 -21 -65 -86q-65 -63 -87 -63q-18 0 -22 7l-328 388l-370 -466q-11 -14 -29 -14q-26 0 -105 49q-78 49 -78 70q0 17 191 262q115 145 231 288l-473 556q-7 10 -7 28q0 28 83 102
q82 73 115 73q21 0 33 -15l414 -534l393 495q10 12 25 12q24 0 88 -73q64 -70 64 -96z" />
    <glyph glyph-name="y" unicode="y" 
d="M1360 154q0 -108 -65 -188q-71 -87 -174 -91l-623 -18q-39 -2 -41 42l-5 232q-1 43 36 43l604 12l-34 387l-708 -3q-111 0 -191 83q-79 82 -79 195q0 54 1.5 139t3.5 203q-1 23 -0.5 58t2.5 81q3 33 34 33l184 -5q33 -2 33 -33l8 -477l687 -2l-41 467q-2 12 7.5 21.5
t21.5 9.5l172 -3q31 0 36 -33l130 -1116q1 -4 1 -8v-9v-20z" />
    <glyph glyph-name="z" unicode="z" 
d="M1283 -10q0 -36 -35 -39l-1245 -91q-13 -2 -25 10t-12 28l25 643q6 116 94 201q89 87 205 89l732 14v263l-973 -2q-39 0 -37 36l8 201q1 36 40 36l1184 -15q34 0 34 -35v-240q1 -81 1.5 -140t0.5 -99q0 -105 -77 -188q-76 -82 -182 -85l-739 -26l-11 -380l977 54
q34 1 34 -36z" />
    <glyph glyph-name="braceleft" unicode="{" horiz-adv-x="683" 
d="M609 1341q-3 -192 -3 -194q-9 -39 -77 -39h-23h-21.5t-28.5 1q-31 1 -58.5 1.5t-52.5 0.5l-10 -1167l218 -5q32 0 32 -33l-3 -176q0 -30 -34 -30l-429 8q-34 0 -34 33v1597q0 36 34 36l456 3q14 0 24 -11t10 -25z" />
    <glyph glyph-name="bar" unicode="|" horiz-adv-x="427" 
d="M336 -282q0 -27 -29 -27q-1 0 -45 3.5l-132 10.5q-33 1 -33 32l-29 1726q0 41 36 46q213 18 215 18q36 0 36 -40z" />
    <glyph glyph-name="braceright" unicode="}" horiz-adv-x="683" 
d="M597 -304q0 -32 -34 -32l-432 8q-33 0 -34 33l-7 181q0 13 9 23.5t22 10.5l220 -2l-25 1340l-248 -10q-38 -2 -39 42l-10 241q-2 46 36 48l512 24q17 0 28 -14t11 -31z" />
    <glyph glyph-name="quotesinglbase" horiz-adv-x="427" 
d="M336 84q0 -92 -54 -156q-57 -70 -147 -70l-5 34q67 9 75 128q-119 8 -118 50l5 176q0 25 26 25q7 0 184 -30q31 -4 31 -34z" />
    <glyph glyph-name="quotesinglbase" unicode="&#x201a;" horiz-adv-x="427" 
d="M336 84q0 -92 -54 -156q-57 -70 -147 -70l-5 34q67 9 75 128q-119 8 -118 50l5 176q0 25 26 25q7 0 184 -30q31 -4 31 -34z" />
    <glyph glyph-name="quotedblbase" horiz-adv-x="717" 
d="M338 46q0 -84 -54 -153q-52 -70 -137 -88l-9 28q64 22 63 121v10q-28 -5 -48 -7.5t-32 -2.5q-48 0 -51 29q-11 94 -16.5 140.5t-5.5 50.5q0 29 34 33l210 17q38 3 39 -31q4 -72 5.5 -108.5t1.5 -38.5zM630 87q-2 -84 -58 -157q-55 -72 -137 -89l-5 28q63 22 67 128
q-29 -5 -47.5 -8t-26.5 -3q-47 0 -48 28l-8 182q-1 34 36 38l194 15q14 2 24 -7.5t10 -23.5z" />
    <glyph glyph-name="quotedblbase" unicode="&#x201e;" horiz-adv-x="717" 
d="M338 46q0 -84 -54 -153q-52 -70 -137 -88l-9 28q64 22 63 121v10q-28 -5 -48 -7.5t-32 -2.5q-48 0 -51 29q-11 94 -16.5 140.5t-5.5 50.5q0 29 34 33l210 17q38 3 39 -31q4 -72 5.5 -108.5t1.5 -38.5zM630 87q-2 -84 -58 -157q-55 -72 -137 -89l-5 28q63 22 67 128
q-29 -5 -47.5 -8t-26.5 -3q-47 0 -48 28l-8 182q-1 34 36 38l194 15q14 2 24 -7.5t10 -23.5z" />
    <glyph glyph-name="quoteleft" horiz-adv-x="427" 
d="M331 964q0 -12 -9.5 -21t-21.5 -8l-175 17q-35 5 -35 36q4 160 21 219q39 125 157 121h12l5 -29q-59 -5 -63 -113q22 -2 37.5 -4t25.5 -4q43 -10 43 -38z" />
    <glyph glyph-name="quoteleft" unicode="&#x2018;" horiz-adv-x="427" 
d="M331 964q0 -12 -9.5 -21t-21.5 -8l-175 17q-35 5 -35 36q4 160 21 219q39 125 157 121h12l5 -29q-59 -5 -63 -113q22 -2 37.5 -4t25.5 -4q43 -10 43 -38z" />
    <glyph glyph-name="quoteright" horiz-adv-x="427" 
d="M345 1190q-2 -90 -58 -161q-61 -77 -147 -82l-5 31q65 14 70 130q-20 -1 -32 -1.5t-14 -0.5q-75 0 -75 37l-4 190q0 14 10.5 25t23.5 11l197 -2q35 0 35 -38z" />
    <glyph glyph-name="quoteright" unicode="&#x2019;" horiz-adv-x="427" 
d="M345 1190q-2 -90 -58 -161q-61 -77 -147 -82l-5 31q65 14 70 130q-20 -1 -32 -1.5t-14 -0.5q-75 0 -75 37l-4 190q0 14 10.5 25t23.5 11l197 -2q35 0 35 -38z" />
    <glyph glyph-name="quotedblleft" horiz-adv-x="717" 
d="M341 969q-2 -29 -36 -27h-162q-47 2 -54 31q-5 20 -5 130q0 95 60 167q61 73 155 80l5 -34q-74 -17 -80 -137q25 1 36.5 1.5t10.5 0.5q79 0 77 -38zM635 961q-5 -30 -38 -29l-189 7q-35 1 -33 30l7 125q5 96 75 169t164 80l2 -34q-73 -15 -91 -138q3 0 10.5 0.5t16.5 1
t17.5 1t14.5 0.5q70 0 66 -39z" />
    <glyph glyph-name="quotedblleft" unicode="&#x201c;" horiz-adv-x="717" 
d="M341 969q-2 -29 -36 -27h-162q-47 2 -54 31q-5 20 -5 130q0 95 60 167q61 73 155 80l5 -34q-74 -17 -80 -137q25 1 36.5 1.5t10.5 0.5q79 0 77 -38zM635 961q-5 -30 -38 -29l-189 7q-35 1 -33 30l7 125q5 96 75 169t164 80l2 -34q-73 -15 -91 -138q3 0 10.5 0.5t16.5 1
t17.5 1t14.5 0.5q70 0 66 -39z" />
    <glyph glyph-name="quotedblright" horiz-adv-x="717" 
d="M358 1196q0 -98 -60 -183q-58 -85 -153 -100l-5 38q72 22 78 153q-42 -3 -58 -3q-70 0 -70 41l4 211q0 37 37 36l195 -10q32 -2 32 -38v-145zM621 1193q0 -90 -46 -166q-52 -83 -135 -97l-5 34q62 21 67 144q-20 -2 -32.5 -3t-17.5 -1q-61 0 -61 39v197q0 34 32 32
l169 -8q29 -2 29 -36v-135z" />
    <glyph glyph-name="quotedblright" unicode="&#x201d;" horiz-adv-x="717" 
d="M358 1196q0 -98 -60 -183q-58 -85 -153 -100l-5 38q72 22 78 153q-42 -3 -58 -3q-70 0 -70 41l4 211q0 37 37 36l195 -10q32 -2 32 -38v-145zM621 1193q0 -90 -46 -166q-52 -83 -135 -97l-5 34q62 21 67 144q-20 -2 -32.5 -3t-17.5 -1q-61 0 -61 39v197q0 34 32 32
l169 -8q29 -2 29 -36v-135z" />
    <glyph glyph-name="exclamdown" unicode="&#xa1;" horiz-adv-x="427" 
d="M370 -157q1 -48 -39 -48h-225q-41 0 -41 48l15 1145q0 36 36 36h196q36 0 36 -36zM345 1145q0 -34 -34 -34h-193q-34 0 -34 34l1 186q0 33 34 33h188q34 0 34 -33z" />
    <glyph glyph-name="cent" unicode="&#xa2;" 
d="M1270 148q1 -37 -31 -40l-425 -47v-12q0 -13 1.5 -29.5t1.5 -22.5q0 -80 -37 -84l-154.5 -19.5t-53.5 -6.5q-34 0 -34 75q0 -2 1.5 15.5t3.5 54.5q-127 -14 -193 -21.5t-74 -7.5q-108 0 -185 80q-76 79 -76 190q0 2 7 176.5l21 523.5q5 113 92 192q87 81 200 81l220 -5
q0 4 -0.5 11.5t-1.5 18.5v31q0 69 38 67h151q48 -2 58 -24q11 -26 7 -109l400 -9q29 0 30 -34l5 -179q1 -33 -29 -33l-885 -5l-16 -669l919 72q30 2 32 -33z" />
    <glyph glyph-name="questiondown" unicode="&#xbf;" 
d="M1283 -15q0 -38 -35 -38l-960 -20q-108 -2 -187 76q-79 79 -79 188q0 8 2.5 79.5t7.5 209.5q5 109 87 191q86 83 193 83l709 4l1 228q0 36 34 36h190q34 0 34 -34q1 -115 1.5 -185.5t0.5 -96.5q0 -54 -79 -133q-77 -81 -184 -83l-714 -7l-8 -276l951 15q35 0 35 -36v-201
zM1280 1143q0 -34 -34 -34h-190q-34 0 -34 34l2 188q0 34 34 34h188q34 0 34 -34v-188z" />
    <glyph glyph-name="quotereversed" unicode="&#x201b;" horiz-adv-x="427" 
d="M341 1135q0 -32 -58 -32q-8 0 -24 1.5t-39 3.5q5 -113 70 -133l-5 -31q-85 13 -141 88q-55 76 -57 164l-2 135q0 14 10.5 24t23.5 10l192 -5q34 -1 34 -36z" />
  </font>
</defs>
</svg>
