<?xml version="1.0" standalone="no"?>
<!DOCTYPE svg PUBLIC "-//W3C//DTD SVG 1.1//EN" "http://www.w3.org/Graphics/SVG/1.1/DTD/svg11.dtd" >
<svg xmlns="http://www.w3.org/2000/svg" xmlns:xlink="http://www.w3.org/1999/xlink" version="1.1">
<metadata>
Created by FontForge 20170731 at Tue Apr  2 04:31:05 2002
 By ,,,
http://fenotype.com
</metadata>
<defs>
<font id="NeoPangaia" horiz-adv-x="765" >
  <font-face 
    font-family="NeoPangaia"
    font-weight="400"
    font-stretch="normal"
    units-per-em="1000"
    panose-1="0 0 4 0 0 0 0 0 0 0"
    ascent="800"
    descent="-200"
    x-height="800"
    cap-height="800"
    bbox="0 -127 800 800"
    underline-thickness="20"
    underline-position="-163"
    unicode-range="U+0020-00FB"
  />
<missing-glyph horiz-adv-x="500" 
d="M63 0v800h375v-800h-375zM125 63h250v675h-250v-675z" />
    <glyph glyph-name=".notdef" horiz-adv-x="500" 
d="M63 0v800h375v-800h-375zM125 63h250v675h-250v-675z" />
    <glyph glyph-name=".null" horiz-adv-x="0" 
 />
    <glyph glyph-name="nonmarkingreturn" horiz-adv-x="200" 
 />
    <glyph glyph-name="space" unicode=" " horiz-adv-x="200" 
 />
    <glyph glyph-name="exclam" unicode="!" horiz-adv-x="492" 
d="M170 0h22l65 130v93h-87v-223zM0 189v-189h155v189h-155zM0 204h155v19h-155v-19zM354 596h-354v-256h226zM286 325h-286v-53h259zM0 611h361l31 62v127h-392v-189zM392 640l-150 -300h51l99 198v102z" />
    <glyph glyph-name="comma" unicode="," horiz-adv-x="360" 
d="M138 -15v-112l111 112h-111zM69 0h191v54h-191v-54zM69 69h191v157h-191v-157zM0 63q7 -15 32 -63h22v226h-54v-163z" />
    <glyph glyph-name="hyphen" unicode="-" horiz-adv-x="665" 
d="M0 426v-154h432l62 31v123h-494zM0 442h494v52h-494v-52zM509 310l53 27v157h-53v-184z" />
    <glyph glyph-name="hyphen" unicode="&#x2010;" horiz-adv-x="665" 
d="M0 426v-154h432l62 31v123h-494zM0 442h494v52h-494v-52zM509 310l53 27v157h-53v-184z" />
    <glyph glyph-name="period" unicode="." horiz-adv-x="355" 
d="M254 52h-187v-52h187v52zM0 62q7 -15 31 -62h21v221h-52v-159zM67 67h187v154h-187v-154z" />
    <glyph glyph-name="zero" unicode="0" 
d="M306 272h21l31 62v194h-52v-256zM528 698h-528v-664h528v664zM337 257h-80v286h117v-213zM291 528h-19v-256h19v256zM0 713h528v87h-528v-87zM528 19h-528v-19h528v19zM543 24l121 242v534h-121v-776z" />
    <glyph glyph-name="one" unicode="1" horiz-adv-x="625" 
d="M134 204h291v528h-124l-167 -334v-194zM425 61v128h-291v-189h127q45 17 164 61zM527 747v53h-192l-26 -53h218zM527 732h-87v-665l87 33v632zM0 537l125 -124l193 387h-187z" />
    <glyph glyph-name="two" unicode="2" 
d="M0 494v-494h87v494h-87zM664 121h-562v-121h562v121zM460 528h-460v-19h460v19zM160 713h504v87h-330q-45 -22 -174 -87zM272 295v-23h392v53h-363zM0 633v-90h475v-49h-373v-358h562v121h-407v44l72 73h335v324h-534zM316 340h348v18h-329z" />
    <glyph glyph-name="three" unicode="3" 
d="M426 562h-426v-53h426v53zM426 358h-426v-18h426v18zM0 732v-155h442v-83h-442v-120h442v-81l-74 -36h-198v-257h160l198 99v633h-528zM543 107l121 60v633h-121v-693zM426 303v22h-426v-53h364zM0 747h528v53h-528v-53zM0 257v-257h155v257h-155z" />
    <glyph glyph-name="four" unicode="4" 
d="M257 601v199h-121v-463l130 -65h152l-170 -170h217l199 199v431h-189v-204h-146zM272 800v-193l63 -64h91v257h-154zM664 280l-178 -178h116l62 31v147zM121 344v456h-121v-395zM442 543h18v257h-18v-257zM572 87h-339l-86 -87h251q1 1 174 87zM475 747h189v53h-189v-53z
" />
    <glyph glyph-name="five" unicode="5" horiz-adv-x="764" 
d="M664 246l-226 -226l226 113v113zM518 121h-518v-121h397zM325 301v24h-325v-87h261zM53 340v460h-53v-460h53zM276 543h388v53h-361zM543 611h121v189h-121v-189zM664 528h-392v-19h392v19zM68 340h272v-45l-73 -72h-267v-87h533l131 131v227h-407v49h2l34 68h235v189
h-460v-460z" />
    <glyph glyph-name="six" unicode="6" 
d="M0 466v-296h189v630h-22zM664 65v90h-664v-155h534zM204 713h324v87h-324v-87zM442 431v-73h-5l-68 -67h-112v151h174l97 97v159h-324v-528h392v358h-57zM272 374h154v52h-154v-52zM611 170h53v358h-53v-358zM416 358h-144v-52h91z" />
    <glyph glyph-name="seven" unicode="7" horiz-adv-x="764" 
d="M267 257l-256 -257h114l257 257h-115zM358 607v23h-358v-53h329zM0 800v-155h374v-44l-73 -73h-233v-256h350l-271 -272h384l31 62v738h-562zM577 92l87 174v534h-87v-708zM53 272v256h-53v-256h53zM314 562h-314v-19h295z" />
    <glyph glyph-name="eight" unicode="8" 
d="M272 204h120v53h-120v-53zM664 121h-517l120 -121h397v121zM392 291h-120v-19h120v19zM392 562h-120v-19h120v19zM97 0h149l-246 246v-149q49 -48 97 -97zM0 713h539l125 -125v212h-664v-87zM664 567l-131 131h-533v-431l131 -131h533v431zM408 189h-151v117h135v154h-62
l-73 37v80h151v-388zM392 528h-120v-21l62 -32h58v53z" />
    <glyph glyph-name="nine" unicode="9" 
d="M382 53h-215l-26 -53h188zM133 257l-128 -257h119l128 257h-119zM272 408h123l61 120h-184v-120zM460 562h-188v-19h188v19zM0 713h664v87h-664v-87zM664 698h-53v-416l53 53v363zM0 698v-426h276l-102 -204h223l199 199v431h-596zM257 392v185h218v-34h5l-75 -151h-148z
" />
    <glyph glyph-name="colon" unicode=":" horiz-adv-x="355" 
d="M254 52h-187v-52h187v52zM0 62q7 -15 31 -62h21v221h-52v-159zM67 67h187v154h-187v-154zM0 523v-187h19v187h-19zM0 591v-53h230l-105 53h-125zM254 523h-220v-187h220v187z" />
    <glyph glyph-name="semicolon" unicode=";" horiz-adv-x="360" 
d="M138 -15v-112l111 112h-111zM69 0h191v54h-191v-54zM69 69h191v157h-191v-157zM0 63q7 -15 32 -63h22v226h-54v-163zM260 535h-226v-191h226v191zM0 535v-191h19v191h-19zM0 604v-53h235l-107 53h-128z" />
    <glyph glyph-name="less" unicode="&#x3c;" horiz-adv-x="492" 
d="M392 261l-137 138l2 4l97 193h-292l-62 -31v-26l369 -369h23v91zM348 170l-348 348v-81l267 -267h81zM92 611h269l31 62v25h-126zM392 282v358l-119 -239z" />
    <glyph glyph-name="greater" unicode="&#x3e;" horiz-adv-x="505" 
d="M0 186l194 194v269h-194v-463zM11 175h118l65 65v118zM130 719h-130v-55h239zM210 649v-393l194 194v132l-134 67h-60z" />
    <glyph glyph-name="question" unicode="?" 
d="M136 528v-232l116 232h-116zM0 732v-189h276l-135 -271h256l131 131v329h-528zM664 732h-121v-314l121 121v193zM0 747h664v53h-664v-53zM136 155v-155h91l155 155h-246zM248 0h14l130 65v79zM392 223h-256v-53h256v53z" />
    <glyph glyph-name="A" unicode="A" horiz-adv-x="900" 
d="M272 442h256v86h-256v-86zM528 426h-256v-18h256v18zM0 0h121l1 268l135 275h422v-543h121v664h-599l-201 -402v-262zM800 679v121h-531l-61 -121h592zM528 267v125h-256v-381zM257 0v504l-121 -242v-262h121zM664 528h-121v-262l121 -242v504z" />
    <glyph glyph-name="B" unicode="B" 
d="M136 713h528v87h-528v-87zM664 641v57h-528v-256h329zM664 267v159h-53v-212zM596 199v227h-475v374h-121v-664h533zM518 121h-518v-121h397z" />
    <glyph glyph-name="C" unicode="C" horiz-adv-x="890" 
d="M116 664h-51l-65 -130v-102zM133 800l-60 -121h426l121 121h-487zM641 800l-267 -267v-58h91l324 325h-148zM667 257h-309v282l126 125h-351l-133 -266v-131l131 -131h596zM408 460v-120h196l-127 126l-6 -6h-63zM267 0h528l-60 121h-588zM392 460h-18v-188h285l-26 53
h-241v135z" />
    <glyph glyph-name="D" unicode="D" 
d="M272 204h19v324h-19v-324zM306 272h86v159l-86 87v-246zM611 586v-382h53v329zM68 204h189v339h49v-4l102 -102v-233h188v397l-63 63h-465v-460zM392 257h-86v-53h86v53zM397 800h-261v-121h382zM0 189v-189h262l378 189h-640zM53 204v460h-53v-460h53zM0 800v-121h121
v121h-121z" />
    <glyph glyph-name="E" unicode="E" 
d="M340 494v-159l63 -63h261v222h-324zM470 205q0 -1 1 -1h130l52 53h-235zM340 509h324v19h-324v-19zM125 392h-120l196 -392h317zM325 329v214h237v223h-562v-358h131l408 -408h114zM577 543h87v257h-87v-257zM562 781v19h-562v-19h562z" />
    <glyph glyph-name="F" unicode="F" horiz-adv-x="760" 
d="M0 133l53 -26v693h-53v-667zM272 475h86v53h-86v-53zM659 543l-128 257h-463v-701l189 -94v538h402zM272 460v-120h293l61 120h-354zM272 325v-53h259l27 53h-286zM272 257v-257h86v257h-86z" />
    <glyph glyph-name="G" unicode="G" horiz-adv-x="800" 
d="M528 257h-136v271h-135v83h441v189h-562v-667l130 -65h262v189zM121 141v659h-121v-599zM528 325h-120v-53h120v53zM272 596v-53h426v53h-426zM528 0v53h-232l106 -53h126zM698 528h-290v-188h135v-340h155v528z" />
    <glyph glyph-name="H" unicode="H" 
d="M562 121h-154v-121h154v121zM664 800h-87v-800h87v800zM562 800h-222v-53h222v53zM325 800h-53v-257h53v257zM257 0v124l-248 123l124 -247h124zM121 800h-121v-531l121 -61v592zM392 11v246h-52v-193zM408 136h154v596h-222v-204h-83v272h-121v-599l121 -60v131h151
v-136z" />
    <glyph glyph-name="I" unicode="I" horiz-adv-x="425" 
d="M0 540l102 -68v-200h155v528h-257v-260zM0 272h87v192l-87 58v-250zM0 257v-124l257 -128v252h-257zM272 0h53v800h-53v-800z" />
    <glyph glyph-name="J" unicode="J" 
d="M0 0h53v257h-53v-257zM68 257v-155h358v596h-18v-441h-340zM664 267v533h-256v-87h169v-533zM562 165v533h-120v-596h57zM392 272v120h-126q-86 -43 -242 -120h368zM484 87h-416v-87h329q1 2 87 87z" />
    <glyph glyph-name="K" unicode="K" 
d="M0 800v-630h53v630h-53zM272 257v-58l132 -199h118l-160 256v1h-90zM664 261l-137 138l65 129h-335v272h-189v-630h189v102l114 -1l1 -2v-1l2 -3l1 -1l165 -264h124v261zM306 747h358v53h-358v-53zM664 732h-358v-189h293l65 130v59zM257 155h-257v-155h257v155z" />
    <glyph glyph-name="L" unicode="L" horiz-adv-x="730" 
d="M0 713h257v87h-257v-87zM272 374h19v426h-19v-426zM272 358v-86h358v86h-358zM257 698h-257v-429l334 -167h296v155h-373v441zM0 252v-85q31 -16 130 -65h170zM630 0v87h-470l174 -87h296z" />
    <glyph glyph-name="M" unicode="M" horiz-adv-x="798" 
d="M291 3v258l-53 53v-310q7 -3 53 -1zM189 121h-189v-121h189v121zM426 0v266l37 74h80v-340h155v534q-3 7 -99 198h-259v-196l-15 -4l-133 268h-124v-664h121v204h49v-5l68 -68v-267h120zM0 800v-664h53v664h-53zM204 325v-325h19v325h-19zM442 262v-34l48 97h-17z
M494 300l-52 -106v-194h52v300zM592 747l-27 53h-225v-53h252z" />
    <glyph glyph-name="N" unicode="N" 
d="M0 0h155v272h114l136 -272h123v262l-37 76q-46 91 -164 326h-327v-664zM442 470l20 -41l66 -133v504h-86v-330zM170 0h87v257h-87v-257zM543 800v-800h121v800h-121zM272 232v-232h116zM0 800v-121h320l-61 121h-259z" />
    <glyph glyph-name="O" unicode="O" horiz-adv-x="730" 
d="M392 325h-120v-53h120v53zM426 528h-18v-256h18v256zM272 340h120v188h-120v-188zM630 0v53h-402l106 -53h296zM577 272h53v528h-53v-528zM630 257h-630v-90l198 -99h432v189zM562 272v528h-460v-528h155v271h185v-271h120zM0 800v-528h87v528h-87z" />
    <glyph glyph-name="P" unicode="P" 
d="M0 747h664v53h-664v-53zM0 732v-596h53v596h-53zM272 543h154v53h-154v-53zM272 732v-121h170v-117h-185v238h-189v-596h189v133q1 0 1 1l270 135v327h-256zM272 259v-259h53v286zM272 509h154v19h-154v-19zM257 0v121h-257v-22l198 -99h59zM664 732h-121v-320l121 61
v259z" />
    <glyph glyph-name="Q" unicode="Q" horiz-adv-x="830" 
d="M257 664h-257v-329l257 -256v585zM528 121h-256v-121h256v121zM596 800h-324v-257h136v-151h-136v-256h256v136h68v528zM611 272h53v528h-53v-528zM392 494h-120v-86h120v86zM732 257h-189v-59q19 -37 65 -130h124v189zM0 314v-47q18 -18 257 -256v46zM732 0v53h-116
l26 -53h90zM272 509h120v19h-120v-19zM0 679h257v121h-257v-121z" />
    <glyph glyph-name="R" unicode="R" horiz-adv-x="695" 
d="M259 257h-21v-257h150zM189 155h-189v-155h189v155zM0 800v-630h53v630h-53zM494 53h-116l27 -53h89v53zM204 732v-87h204v-117h-219v272h-121v-630h121v102h80l102 -204h123v290h-78l112 113v261h-324zM596 800h-53v-314l53 53v261zM204 577h188v53h-188v-53zM204 543
h188v19h-188v-19zM204 747h324v53h-324v-53zM596 358h-87v-358h87v358zM204 0h19v257h-19v-257z" />
    <glyph glyph-name="S" unicode="S" 
d="M596 460h-339v81l75 36h332v155h-534l-62 -31v-395h306v-83h-6l-68 -34h-300v-53h596v324zM334 223h-334v-19h296q1 0 38 19zM596 494h-324v-19h324v19zM53 306v387l-53 -26v-361h53zM358 291h-358v-53h358v53zM664 116l-232 -116h232v116zM160 747h504v53h-398
q-3 -2 -106 -53zM272 531v-22h392v53h-330zM596 121h-596v-121h398l198 99v22zM664 494h-53v-387l53 26v361z" />
    <glyph glyph-name="T" unicode="T" horiz-adv-x="900" 
d="M369 0h149l-155 155h-91v-58zM543 497v-497h53v524zM369 170l159 -159v483h-256v-324h97zM0 766v-223h534l130 65v158h-664zM0 781h664v19h-664v-19zM679 616l121 60v124h-121v-184zM538 528h-538v-19h534q5 3 266 133v17z" />
    <glyph glyph-name="U" unicode="U" 
d="M325 291h-53v-87h53v87zM272 306h53v494h-53v-494zM257 800h-189v-596h189v596zM630 698h-256v-494h123l133 266v228zM0 800v-596h53v596h-53zM0 189v-189h531q28 56 95 189h-626zM664 800h-19v-300l19 38v262zM664 504l-150 -300h119l31 62v238zM374 713h256v87h-256
v-87zM358 800h-18v-596h18v596z" />
    <glyph glyph-name="V" unicode="V" 
d="M392 800h-392v-127l235 -469h157v596zM611 204h53v596h-53v-596zM426 800h-18v-596h18v596zM664 131v58h-422l95 -189h196q66 67 131 131zM596 800h-154v-596h154v596zM320 0l-320 640v-102l269 -538h51z" />
    <glyph glyph-name="W" unicode="W" 
d="M291 800h-19v-562h19v562zM68 747h189v53h-189v-53zM562 732h-87v-509h-78l-39 38v539h-52v-577h-49v509h-189v-497l334 -167h160v664zM0 269l53 -27v558h-53v-531zM475 747h189v53h-189v-53zM460 800h-18v-562h18v562zM664 0v53h-504l106 -53h398zM0 252v-119l130 -65
h238zM664 732h-87v-664h87v664zM403 238h23v562h-52v-533z" />
    <glyph glyph-name="X" unicode="X" 
d="M664 87h-256v-87h256v87zM392 257h-18v-257h18v257zM272 127v-127h86v257h-21zM442 747h222v53h-222v-53zM611 102h53v160q-12 19 -53 79v-239zM426 800h-52v-218l52 26v192zM664 607v125h-222v-133l-142 -71h-43v238h-121l2 -435l-138 -138v-193h257v130l70 142h81v-170
h188v262l-70 105zM0 538l121 -181v443h-121v-262zM136 781h121v19h-121v-19zM358 574v226h-86v-257h24q19 10 62 31z" />
    <glyph glyph-name="Y" unicode="Y" horiz-adv-x="764" 
d="M382 257h-76v-19h57zM475 698v-165l-67 -68v-5h-50v34h-358v-21l266 -133h142v-83h-5l-34 -34h-63v-87h256v562h-87zM475 713h189v87h-189v-87zM291 136v121h-24l-120 -121h144zM131 121l-120 -121h520l61 121h-461zM392 800h-18v-325h18v325zM0 509h121v291h-121v-291z
M664 698h-87v-562h22l65 130v432zM136 509h222v291h-222v-291zM460 800h-52v-314l52 53v261z" />
    <glyph glyph-name="Z" unicode="Z" 
d="M0 630v-22l263 -131l153 153h-416zM611 412l53 27v361h-53v-388zM596 102v121h-271v46l271 136v293h-596v-53h452l-316 -316v-227h460zM340 238h125l168 168l-293 -147v-21zM611 223v-121h53v121h-53zM664 87h-664v-87h664v87zM0 102h121v212l-121 -121v-91zM0 713h596
v87h-596v-87z" />
    <glyph glyph-name="a" unicode="a" 
d="M68 0h189v53h-189v-53zM272 155v-155h86v155h-86zM358 358h-18v-169h-68v-19h86v188zM53 0v800h-53v-800h53zM272 358v-154h53v154h-53zM378 664l196 -392h85l-196 392h-85zM664 223h-290v-223h290v223zM68 800v-121h388l-61 121h-327zM361 664h-293v-596h189v306h117
v-136h290v19h-99z" />
    <glyph glyph-name="b" unicode="b" 
d="M272 475h154v16h-154v-16zM68 800v-664h460v155h-86v-65l-74 -37h-111v117h271v426h-256v-121h97l73 -72v-79h-185v340h-189zM0 121v-121h398l130 65v56h-528zM272 596v-90h154v27l-63 63h-91zM272 272h154v19h-154v-19zM272 747h256v53h-256v-53zM426 235v22h-154v-53
h92zM543 73l121 60v667h-121v-727zM53 136v664h-53v-664h53z" />
    <glyph glyph-name="c" unicode="c" horiz-adv-x="900" 
d="M679 136h121v123q-26 14 -121 61v-184zM727 664h-48v-96zM102 800v-228l235 -436h327v191l-403 202l1 7h-5v143h478l60 121h-693zM272 543h392v121h-392v-121zM800 0v121h-592l61 -121h531zM90 562h-90v-24l201 -402h118zM0 577h87v223h-87v-223z" />
    <glyph glyph-name="d" unicode="d" 
d="M272 800v-257h53v257h-53zM306 528v-232l116 232h-116zM291 528h-19v-256h19v256zM257 747v53h-257v-53h257zM543 296l121 242v262h-121v-504zM340 800v-257h106l-143 -286h-46v475h-223v-596h429l65 130v534h-188zM456 121h-456v-121h395zM19 732h-19v-596h19v596z" />
    <glyph glyph-name="e" unicode="e" horiz-adv-x="730" 
d="M630 53h-494v-53h494v53zM543 543h87v257h-87v-257zM0 533v-533h121v653zM306 509h324v19h-324v-19zM291 494v49h237v257h-261l-131 -131v-601h494v189h-339v49h339v188h-339z" />
    <glyph glyph-name="f" unicode="f" horiz-adv-x="730" 
d="M316 577h314v19h-295zM0 531v-429h53v456zM257 87h-257v-87h257v87zM630 800h-87v-189h87v189zM272 509h358v53h-329l-29 -29v-24zM626 257h-354v-121h293zM257 306h373v188h-373v45l72 72h199v184l-460 -230v-463h189v204zM272 272h358v19h-358v-19z" />
    <glyph glyph-name="g" unicode="g" 
d="M664 87h-416l87 -87h329v87zM664 732h-664v-397l233 -233h431v324h-392v-52h203v-151h-80l-68 135h-70v185h407v189zM272 442h392v52h-392v-52zM314 0l-314 314v-47l267 -267h47zM426 238v120h-82l61 -120h21zM0 747h664v53h-664v-53zM460 358h-18v-120h18v120z" />
    <glyph glyph-name="h" unicode="h" horiz-adv-x="730" 
d="M272 127l-64 -127h117v257h-53v-130zM238 608l53 -26v218h-53v-192zM68 0h124l26 53h-150v-53zM340 0h18v257h-18v-257zM53 0v800h-53v-800h53zM408 679h222v121h-222v-121zM408 664v-136h-44l-141 71v201h-155v-732h158l31 62v142h117v-272h222v664h-188zM306 574
l62 -31h24v257h-86v-226zM630 664h-19v-664h19v664z" />
    <glyph glyph-name="i" unicode="i" horiz-adv-x="495" 
d="M121 0v261l-121 121v-382h121zM257 53h-121v-53h121v53zM0 403l136 -136v-199h121v664h-257v-329zM0 747h257v53h-257v-53zM272 24l120 242v534h-120v-776z" />
    <glyph glyph-name="j" unicode="j" horiz-adv-x="755" 
d="M518 713v87h-189v-87h189zM635 364l18 38v398h-18v-436zM533 800v-403l-397 -397h317q8 17 167 334v466h-87zM314 335v35l-35 -69zM0 0h115l403 403v295h-189v-369z" />
    <glyph glyph-name="k" unicode="k" 
d="M374 567l-117 -117v248h-189v-698h155v272h114l64 -170h226l-100 300l69 69v329h-222v-233zM611 486l53 53v261h-53v-314zM238 257v-257h151l-96 257h-55zM327 257h-18l96 -257h18zM632 87h-225l32 -87h222zM257 713v87h-257v-87h257zM358 800h-52v-280l52 53v227zM53 0
v698h-53v-698h53zM291 505v295h-19v-314z" />
    <glyph glyph-name="l" unicode="l" horiz-adv-x="760" 
d="M0 800v-599q1 0 53 -27v626h-53zM68 800v-599l266 -133h292l-95 189h-274v543h-189zM436 0l-368 184v-17l334 -167h34zM497 325h-225v-53h252zM633 53h-269l106 -53h189z" />
    <glyph glyph-name="m" unicode="m" horiz-adv-x="764" 
d="M204 194v-194h53v257h-22zM291 257h-19v-257h19v257zM269 800q-134 -267 -269 -538v-34l286 572h-17zM121 0v436l-121 -242v-194h121zM475 194v-194h53v257h-21zM611 0h53v800h-53v-800zM276 747h320v53h-293zM442 0h18v164l-18 -37v-127zM269 732l-133 -266v-466h53v198
l37 74h80v-272h120l1 132l34 68v0l36 72h46v-272h53v732h-327z" />
    <glyph glyph-name="n" unicode="n" horiz-adv-x="730" 
d="M259 800h-191v-121h252zM543 528h-148l-68 136h-259v-664h121v272h75v-6l7 2l100 -200h259v732h-87v-272zM272 65l111 -56l-111 223v-167zM630 53h-252l27 -53h225v53zM257 257h-53v-257h53v257zM422 543l-129 257h-17l129 -257h17zM439 543h89v257h-218zM53 0v800h-53
v-800h53z" />
    <glyph glyph-name="o" unicode="o" 
d="M426 528h-18v-324h18v324zM272 442h120v86h-120v-86zM257 543h185v-339h86v528h-528v-528h257v339zM392 426h-120v-222h120v222zM0 747h528v53h-528v-53zM543 208l121 61v531h-121v-592zM664 133v119l-126 -63h-538v-189h398q7 4 266 133z" />
    <glyph glyph-name="p" unicode="p" 
d="M272 509h120v87h-120v-87zM272 442h58l62 31v21h-120v-52zM0 747h528v53h-528v-53zM0 0h19v732h-19v-732zM543 378l121 61v361h-121v-422zM325 97v58h-291v-155h193q47 47 98 97zM528 732h-256v-121h136v-148l-74 -37h-77v306h-223v-562h291v99l203 102v361z" />
    <glyph glyph-name="q" unicode="q" horiz-adv-x="830" 
d="M531 0l31 62v102l-82 -164h51zM92 679h504v121h-262zM126 0h337l27 53h-258q-1 -1 -106 -53zM664 800h-53v-528h53v528zM257 494h-19v-154h19v154zM426 475v19h-154v-19h154zM596 257v407h-534l-62 -31v-633h93l137 68h267l66 132l14 -4v-134l31 -62h124v257h-136z
M442 397l-73 -72h-146v184h219v-112zM272 340h91l63 63v57h-154v-120z" />
    <glyph glyph-name="r" unicode="r" 
d="M664 53h-218l27 -53h191v53zM266 732q-1 -1 -198 -99v-633h189v272h80l102 -204h225v159l-146 147h78v358h-330zM408 426h-151v81l73 36h78v-117zM272 442h120v18h-120v-18zM392 528h-58l-62 -31v-22h120v53zM53 626l-53 -27v-599h53v626zM272 257v-257h150l-129 257h-21
zM664 732h-53v-358h53v358zM0 667v-51l264 131h400v53h-398q-129 -64 -266 -133zM310 257l129 -257h17l-129 257h-17z" />
    <glyph glyph-name="s" unicode="s" horiz-adv-x="764" 
d="M596 460h-339v34h-11l49 49h369v53h-441v159l-223 -222v-227h159l34 34h215v-117h-272v-121h398l62 31v327zM0 223v-121h121v121h-121zM0 87v-87h330l174 87h-504zM0 238h392v53h-392v-53zM180 306h212v19h-193zM272 494v-19h392v19h-392zM664 167v293h-53v-319zM301 528
l-19 -19h382v19h-363zM664 732h-426v-121h426v121zM664 747v53h-397l-29 -30v-23h426z" />
    <glyph glyph-name="t" unicode="t" horiz-adv-x="900" 
d="M0 747h630v53h-630v-53zM596 167v361h-53v-387zM630 543v189h-630v-90q3 -1 62 -31h278v-83h-71l-31 -62v-296h290v373h102zM136 0h87v436l-87 -174v-262zM800 800h-155v-257h155v257zM528 155h-290v-155h24l266 133v22zM325 543v53h-233l106 -53h127z" />
    <glyph glyph-name="u" unicode="u" 
d="M257 645v155h-257v-155h257zM426 800h-18v-528h18v528zM335 272h57v528h-120v-465zM442 257h-113l-72 72v301h-257v-460h596v630h-154v-543zM611 170h53v630h-53v-630zM664 0v155h-664v-22l266 -133h398z" />
    <glyph glyph-name="v" unicode="v" 
d="M340 732v-405l-136 -68v-2h-49v543h-155v-596h363l199 199v329h-222zM348 189h-348v-189h159zM189 800h-19v-528h19v528zM204 276l121 61v463h-121v-524zM664 732h-87v-314l87 87v227zM340 747h324v53h-324v-53z" />
    <glyph glyph-name="w" unicode="w" 
d="M223 800h-19v-528h19v528zM0 800v-630h19v630h-19zM0 0h261l97 97v58h-358v-155zM475 747h117v53h-117v-53zM291 800h-53v-524l53 27v497zM608 0h56v800h-56v-800zM592 0v732h-117v-441h-39l-78 -39v548h-52v-507l-68 -34v-2h-49v543h-155v-630h340v-170h218zM460 800
h-18v-494h18v494zM426 800h-52v-524l52 27v497z" />
    <glyph glyph-name="x" unicode="x" 
d="M325 713v87h-325v-87h325zM392 800h-52v-194l52 -106v300zM281 400l-11 -6l-66 -132v-262h121v201l4 2l63 32v231l-67 136v96h-325v-157zM340 0h52v218l-52 -26v-192zM509 144v-144h19v125zM577 500l87 173v127h-87v-300zM562 470v330h-87v-235l-67 -34v-264l135 -136
v-131h121v261l-137 138zM408 246v-246h86v159zM189 0v268l58 115l-247 -124v-259h189zM460 800h-52v-252l52 26v226z" />
    <glyph glyph-name="y" unicode="y" 
d="M664 87h-392v-87h392v87zM325 611v189h-325v-189h325zM645 102h19v698h-19v-698zM494 374v426h-154v-361l130 -65h24zM272 102h358v698h-87v-442h-77l-141 71v167h-325v-57l272 -275v-162zM528 800h-19v-426h19v426z" />
    <glyph glyph-name="z" unicode="z" 
d="M53 0v392h-53v-392h53zM102 121v-121h426v121h-426zM68 392v-392h19l2 337l55 55h-76zM314 562h-314v-154h159zM466 266l-4 2l202 304v160h-664v-155h350l-248 -248v-193h426v121h-60zM664 545l-174 -261l174 87v174zM543 0h121v257h-121v-257zM0 747h664v53h-664v-53z
" />
    <glyph glyph-name="Adieresis" unicode="&#xc4;" horiz-adv-x="900" 
d="M136 0h121v504l-121 -242v-262zM664 528h-121v-262l121 -242v504zM528 426h-256v-18h256v18zM272 442h256v86h-256v-86zM800 0v596h-130l-142 71v133h-53v-136h-274l-201 -402v-262h121l1 268l135 275h422v-543h121zM528 267v125h-256v-381zM543 676l53 -26v150h-53v-124
zM269 800l-61 -121h218v121h-157zM460 800h-18v-121h18v121zM611 642l62 -31h127v189h-189v-158z" />
    <glyph glyph-name="Odieresis" unicode="&#xd6;" 
d="M252 766h-252v-121h192zM257 781v19h-257v-19h257zM272 766h-3l-27 -53h116v87h-86v-34zM408 204h18v324h-18v-324zM664 133v119l-126 -63h-538v-189h398q129 64 266 133zM374 645h18v155h-18v-155zM408 645h194l62 31v124h-256v-155zM358 630v68h-123l-34 -68h-201v-426
h257v339h185v-339h92l130 65v390l-58 -29h-248zM272 442h120v86h-120v-86zM392 426h-120v-222h120v222z" />
    <glyph glyph-name="adieresis" unicode="&#xe4;" 
d="M34 645h223v121h-193l-30 -30v-91zM19 645v98l57 57h-76v-155h19zM68 0h189v53h-189v-53zM272 800v-155h19v155h-19zM257 781v19h-160l-18 -19h178zM272 155v-155h86v155h-86zM358 358h-18v-169h-68v-19h86v188zM306 596v-53h218l-27 53h-191zM306 800v-189h184l-95 189
h-89zM291 528v102h-291v-630h53v68h204v306h117v-136h290v24l-133 266h-240zM272 358v-154h53v154h-53zM664 223h-290v-223h290v223z" />
    <glyph glyph-name="odieresis" unicode="&#xf6;" horiz-adv-x="730" 
d="M19 766h-19v-121h19v121zM291 645v59q-13 24 -32 62h-225v-121h257zM408 272h18v256h-18v-256zM630 0v53h-402l106 -53h296zM0 167l198 -99h432v189h-630v-90zM509 630h-151v43l1 2l63 125h-422v-19h269l37 -74v-77h-306v-358h257v271h185v-271h86v528h-19v-170zM374 645
h120v155h-55l-65 -130v-25zM272 340h120v188h-120v-188zM543 272h87v528h-87v-528zM392 325h-120v-53h120v53z" />
    <glyph glyph-name="ucircumflex" unicode="&#xfb;" horiz-adv-x="1100" 
 />
    <glyph glyph-name="glyph80" horiz-adv-x="200" 
 />
    <glyph glyph-name="glyph81" horiz-adv-x="200" 
 />
  </font>
</defs>
</svg>
