<?xml version="1.0" standalone="no"?>
<!DOCTYPE svg PUBLIC "-//W3C//DTD SVG 1.1//EN" "http://www.w3.org/Graphics/SVG/1.1/DTD/svg11.dtd" >
<svg xmlns="http://www.w3.org/2000/svg" xmlns:xlink="http://www.w3.org/1999/xlink" version="1.1">
<metadata>
Created by FontForge 20170731 at Wed May 28 01:27:54 2008
 By ,,,
Copyright (c) 2008 by ShyFoundry. All rights reserved. Freeware for personal use only. To purchase a commercial license, please visit our site at http://www.shyfoundry.com.
</metadata>
<defs>
<font id="SFOuterLimitsExtUpright" horiz-adv-x="2048" >
  <font-face 
    font-family="SF Outer Limits ExtUpright"
    font-weight="400"
    font-stretch="normal"
    units-per-em="2048"
    panose-1="0 0 4 0 0 0 0 0 0 0"
    ascent="1638"
    descent="-410"
    x-height="1365"
    cap-height="1365"
    bbox="-336 -340 3200 1365"
    underline-thickness="20"
    underline-position="-163"
    unicode-range="U+0020-201B"
  />
<missing-glyph horiz-adv-x="1024" 
 />
    <glyph glyph-name=".notdef" horiz-adv-x="1024" 
 />
    <glyph glyph-name=".null" horiz-adv-x="0" 
 />
    <glyph glyph-name="nonmarkingreturn" horiz-adv-x="1024" 
 />
    <glyph glyph-name="space" unicode=" " horiz-adv-x="1024" 
 />
    <glyph glyph-name="space" unicode="&#xa0;" horiz-adv-x="1024" 
 />
    <glyph glyph-name="exclam" unicode="!" horiz-adv-x="640" 
d="M512 34q0 -34 -51 -34h-282q-51 0 -51 34v188q0 34 51 34h282q51 0 51 -34v-188zM512 375q0 -34 -51 -34h-282q-51 0 -51 34v956q0 34 51 34h282q51 0 51 -34v-956z" />
    <glyph glyph-name="quotedbl" unicode="&#x22;" horiz-adv-x="1075" 
d="M512 1195q0 -108 -102 -181q-88 -67 -203 -74l-7 33q99 17 107 136q-63 -3 -82 -3q-97 0 -97 37v188q0 34 51 34h282q51 0 51 -34v-136zM947 1195q0 -108 -102 -181q-88 -67 -203 -74l-7 33q99 17 107 136q-63 -3 -82 -3q-97 0 -97 37v188q0 34 51 34h282q51 0 51 -34
v-136z" />
    <glyph glyph-name="numbersign" unicode="#" horiz-adv-x="1451" 
d="M647 939l-36 -128h193l36 128h-193zM1323 1080q0 -52 -28 -107q-17 -34 -90 -38q17 1 -10 2t-99 2l-36 -128h18q18 0 41 1.5t33 1.5q92 0 92 -32q0 -52 -29 -108q-16 -34 -90 -37q34 1 -110 3q-4 -22 -8 -43t-9 -41q-18 -44 -66 -44h-154q-44 0 -44 39l25 89h-191
q-8 -44 -18 -84q-18 -44 -67 -44h-154q-42 0 -42 39l25 89q-8 0 -30 -1.5t-42 -1.5h-20q-92 0 -92 32q0 51 27 108q19 34 92 37q-38 -2 108 -3l36 128q-7 0 -18 -0.5t-27 -1.5q-15 -1 -27 -1.5t-20 -0.5q-92 0 -92 33q0 51 29 107q17 34 90 38q-19 -1 7.5 -2t101.5 -2
q19 82 21 84q18 44 66 44h154q41 0 41 -39q0 6 -26 -89h191q21 82 21 84q20 44 66 44h154q41 0 41 -39q0 6 -26 -89q8 0 19.5 0.5t26.5 1.5q16 1 27.5 1.5t19.5 0.5q92 0 92 -33z" />
    <glyph glyph-name="dollar" unicode="$" 
d="M1920 162q0 -34 -51 -34h-654q2 -9 3.5 -28.5t1.5 -31.5q0 -68 -56 -68h-282q-54 0 -54 70q0 -17 3 58h-652q-51 0 -51 34v188q0 34 51 34h1357v171h-1024q-128 0 -246 63q-138 75 -138 193v392q0 34 51 34h652q0 9 -1.5 28.5t-1.5 31.5q0 68 54 68h282q56 0 56 -70
q0 8 -1.5 -6t-3.5 -52h654q51 0 51 -34v-188q0 -34 -51 -34h-1357v-170h1024q127 0 246 -63q138 -77 138 -193v-393z" />
    <glyph glyph-name="percent" unicode="%" horiz-adv-x="3328" 
d="M896 1109h-384v-256h384v256zM2816 512h-384v-256h384v256zM1280 853q0 -117 -138 -193q-119 -63 -246 -63h-384q-128 0 -246 63q-138 76 -138 193v256q0 118 138 193q118 63 246 63h384q127 0 246 -63q138 -75 138 -193v-256zM2560 1213q0 -13 -10 -22l-1473 -1179
q-14 -12 -41 -12q-32 0 -150 64t-118 88q0 15 10 22l1471 1179q16 12 41 12q34 0 152 -64t118 -88zM3200 256q0 -118 -138 -193q-119 -63 -246 -63h-384q-128 0 -246 63q-138 75 -138 193v256q0 118 138 193q118 63 246 63h384q127 0 246 -63q138 -75 138 -193v-256z" />
    <glyph glyph-name="ampersand" unicode="&#x26;" 
d="M1920 162q0 -34 -51 -34h-654q2 -9 3.5 -28.5t1.5 -31.5q0 -68 -56 -68h-282q-54 0 -54 70q0 -14 3 58h-319q-128 0 -246 63q-138 75 -138 193v171q0 119 138 196q-10 26 -10 60v170q0 118 138 193q118 63 246 63h191q0 9 -1.5 28.5t-1.5 31.5q0 68 54 68h282
q56 0 56 -70q0 7 -1.5 -7.5t-3.5 -50.5h654q51 0 51 -34v-188q0 -34 -51 -34h-1229v-170h461q51 0 51 -34v-188q0 -34 -51 -34h-589v-171h1357q51 0 51 -34v-188z" />
    <glyph glyph-name="quotesingle" unicode="'" horiz-adv-x="640" 
d="M512 1195q0 -108 -102 -181q-88 -67 -203 -74l-7 33q99 17 107 136q-63 -3 -82 -3q-97 0 -97 37v188q0 34 51 34h282q51 0 51 -34v-136z" />
    <glyph glyph-name="parenleft" unicode="(" horiz-adv-x="1024" 
d="M896 -305q0 -35 -51 -35h-333q-128 0 -246 64q-138 75 -138 192v1193q0 118 140 193q115 63 244 63h333q51 0 51 -34v-188q0 -34 -51 -34h-333v-1193h333q51 0 51 -34v-187z" />
    <glyph glyph-name="parenright" unicode=")" horiz-adv-x="1024" 
d="M896 -84q0 -117 -140 -192q-115 -64 -244 -64h-333q-51 0 -51 35v187q0 34 51 34h333v1193h-333q-51 0 -51 34v188q0 34 51 34h333q128 0 244 -63q140 -75 140 -193v-1193z" />
    <glyph glyph-name="asterisk" unicode="*" horiz-adv-x="1736" 
d="M1608 625q0 -70 -75 -115q-65 -39 -140 -39q-29 0 -68 12q-40 13 -386 253q20 -45 41 -88t41 -88q56 -130 56 -173q0 -53 -80 -88q-67 -26 -130 -26q-61 0 -128 26q-82 34 -82 88q0 48 58 173q20 45 40 88t40 88q-57 -40 -111 -79t-111 -78q-162 -108 -230 -108
q-76 0 -140 39q-75 45 -75 115q0 59 73 99q15 8 144.5 31.5t376.5 63.5q-69 11 -137.5 22.5t-137.5 22.5q-218 37 -246 51q-73 39 -73 99q0 70 75 114q64 39 140 39q66 0 230 -107q57 -40 111 -79t111 -78q-20 45 -40 88t-40 88q-58 123 -58 172q0 55 82 89q62 25 128 25
q68 0 130 -25q80 -35 80 -89q0 -43 -56 -172q-20 -45 -41 -88t-41 -88q99 67 198 138q151 103 186 114q40 12 70 12q75 0 140 -39q75 -44 75 -114q0 -60 -75 -99q-28 -16 -523 -96q70 -11 139 -22l138 -22q220 -38 246 -51q75 -41 75 -99z" />
    <glyph glyph-name="plus" unicode="+" horiz-adv-x="1280" 
d="M1152 589q0 -34 -51 -34h-270v-180q0 -34 -51 -34h-282q-51 0 -51 34v180h-268q-51 0 -51 34v188q0 34 51 34h268v179q0 34 51 34h282q51 0 51 -34v-179h270q51 0 51 -34v-188z" />
    <glyph glyph-name="comma" unicode="," horiz-adv-x="640" 
d="M512 85q0 -106 -102 -179q-90 -66 -203 -73l-7 32q99 16 107 135q-32 -1 -52 -1.5t-30 -0.5q-97 0 -97 36v188q0 34 51 34h282q51 0 51 -34v-137z" />
    <glyph glyph-name="hyphen" unicode="-" horiz-adv-x="1536" 
d="M1408 589q0 -34 -51 -34h-1178q-51 0 -51 34v188q0 34 51 34h1178q51 0 51 -34v-188z" />
    <glyph glyph-name="period" unicode="." horiz-adv-x="640" 
d="M512 34q0 -34 -51 -34h-282q-51 0 -51 34v188q0 34 51 34h282q51 0 51 -34v-188z" />
    <glyph glyph-name="slash" unicode="/" horiz-adv-x="1009" 
d="M1010 1278q0 -42 -49 -155q-18 -40 -36 -79l-36 -78q-62 -152 -153 -377t-214 -528l-107 -264q-7 -22 -14 -43t-15 -41q-22 -49 -63 -49q-23 0 -147 21q-63 11 -97.5 17.5t-42.5 10.5q-36 16 -36 34q0 40 48 156l36 78t35 77q62 152 153 377t214 528l108 266l14 42t15 41
q23 50 63 50q12 0 48.5 -5.5t97.5 -16.5q127 -21 141 -28q37 -15 37 -34z" />
    <glyph glyph-name="zero" unicode="0" 
d="M1536 1109h-1024v-853h1024v853zM1920 256q0 -118 -138 -193q-116 -63 -246 -63h-1024q-131 0 -246 63q-138 75 -138 193v853q0 118 138 193q115 63 246 63h1024q127 0 246 -63q138 -75 138 -193v-853z" />
    <glyph glyph-name="one" unicode="1" horiz-adv-x="768" 
d="M640 34q0 -34 -51 -34h-282q-51 0 -51 34v1075l-49 -1q-79 -1 -79 35v188q0 34 51 34h410q51 0 51 -34v-1297z" />
    <glyph glyph-name="two" unicode="2" 
d="M1920 34q0 -34 -51 -34h-1690q-51 0 -51 34v563q0 118 138 193q115 63 246 63h1024v256h-1357q-51 0 -51 34v188q0 34 51 34h1357q130 0 246 -63q138 -75 138 -193v-256q0 -117 -138 -193q-116 -63 -246 -63h-1024v-341h1357q51 0 51 -34v-188z" />
    <glyph glyph-name="three" unicode="3" 
d="M1920 256q0 -118 -138 -193q-116 -63 -246 -63h-1357q-51 0 -51 34v188q0 34 51 34h1357v341h-589q-51 0 -51 34v188q0 34 51 34h461v256h-1229q-51 0 -51 34v188q0 34 51 34h1229q130 0 246 -63q138 -75 138 -193v-256q0 -33 -10 -59q138 -77 138 -197v-341z" />
    <glyph glyph-name="four" unicode="4" 
d="M1920 375q0 -34 -51 -34h-205v-307q0 -34 -51 -34h-282q-51 0 -51 34v307h-768q-131 0 -246 63q-138 76 -138 193v734q0 34 51 34h282q51 0 51 -34v-734h768v564q0 34 51 34h282q51 0 51 -34v-564h205q51 0 51 -34v-188z" />
    <glyph glyph-name="five" unicode="5" 
d="M1920 256q0 -118 -138 -193q-116 -63 -246 -63h-1357q-51 0 -51 34v188q0 34 51 34h1357v341h-1024q-131 0 -246 63q-138 76 -138 193v478q0 34 51 34h1690q51 0 51 -34v-188q0 -34 -51 -34h-1357v-256h1024q130 0 246 -63q138 -75 138 -193v-341z" />
    <glyph glyph-name="six" unicode="6" 
d="M1536 597h-1024v-341h1024v341zM1920 256q0 -118 -138 -193q-119 -63 -246 -63h-1024q-131 0 -246 63q-138 75 -138 193v853q0 118 138 193q115 63 246 63h845q51 0 51 -34v-188q0 -34 -51 -34h-845v-256h1024q130 0 246 -63q138 -75 138 -193v-341z" />
    <glyph glyph-name="seven" unicode="7" horiz-adv-x="1983" 
d="M1855 34q0 -34 -51 -34h-282q-51 0 -51 34v1075h-1357q-51 0 -51 34v188q0 34 51 34h1690q51 0 51 -34v-1297z" />
    <glyph glyph-name="eight" unicode="8" 
d="M1536 597h-1024v-341h1024v341zM1408 1109h-768v-256h768v256zM1920 256q0 -118 -138 -193q-119 -63 -246 -63h-1024q-131 0 -246 63q-138 75 -138 193v341q0 120 138 197q-10 26 -10 59v256q0 118 138 193q115 63 246 63h768q130 0 246 -63q138 -75 138 -193v-256
q0 -33 -10 -59q138 -77 138 -197v-341z" />
    <glyph glyph-name="nine" unicode="9" 
d="M1536 1109h-1024v-256h1024v256zM1920 256q0 -118 -138 -193q-119 -63 -246 -63h-845q-51 0 -51 34v188q0 34 51 34h845v341h-1024q-131 0 -246 63q-138 76 -138 193v256q0 118 138 193q115 63 246 63h1024q130 0 246 -63q138 -75 138 -193v-853z" />
    <glyph glyph-name="colon" unicode=":" horiz-adv-x="640" 
d="M512 34q0 -34 -51 -34h-282q-51 0 -51 34v188q0 34 51 34h282q51 0 51 -34v-188zM512 631q0 -34 -51 -34h-282q-51 0 -51 34v188q0 34 51 34h282q51 0 51 -34v-188z" />
    <glyph glyph-name="semicolon" unicode=";" horiz-adv-x="640" 
d="M512 85q0 -106 -102 -179q-90 -66 -203 -73l-7 32q99 16 107 135q-32 -1 -52 -1.5t-30 -0.5q-97 0 -97 36v188q0 34 51 34h282q51 0 51 -34v-137zM512 631q0 -34 -51 -34h-282q-51 0 -51 34v188q0 34 51 34h282q51 0 51 -34v-188z" />
    <glyph glyph-name="equal" unicode="=" horiz-adv-x="1536" 
d="M1408 418q0 -34 -51 -34h-1178q-51 0 -51 34v188q0 34 51 34h1178q51 0 51 -34v-188zM1408 759q0 -34 -51 -34h-1178q-51 0 -51 34v188q0 34 51 34h1178q51 0 51 -34v-188z" />
    <glyph glyph-name="question" unicode="?" 
d="M512 34q0 -34 -51 -34h-282q-51 0 -51 34v188q0 34 51 34h282q51 0 51 -34v-188zM1920 853q0 -117 -138 -193q-116 -63 -246 -63h-1024v-222q0 -34 -51 -34h-282q-51 0 -51 34v222q0 118 138 193q115 63 246 63h1024v256h-1357q-51 0 -51 34v188q0 34 51 34h1357
q130 0 246 -63q138 -75 138 -193v-256z" />
    <glyph glyph-name="A" unicode="A" 
d="M128 521q-29 -2 -70.5 -7.5t-95.5 -15.5q-20 -6 -20 -12q0 -30 186 -88v123zM1536 415q-255 52 -509.5 81t-514.5 35v-231q255 -52 509.5 -81t514.5 -35v231zM1536 597h-1024v-30q263 -11 516.5 -39t507.5 -76v145zM1408 1109h-768v-256h768v256zM2109 230q0 28 -189 87
v-124q30 2 72.5 8t99.5 17q17 8 17 12zM512 34q0 -34 -51 -34h-282q-51 0 -51 34v282q103 -33 384 -87v-195zM2161 232q0 -87 -398 -87q-819 0 -1635 205q-239 60 -239 131q0 73 239 84q-3 150 138 229q-10 26 -10 59v256q0 118 140 193q115 63 244 63h768q128 0 244 -63
q140 -75 140 -193v-256q0 -33 -10 -59q138 -80 138 -197v-233q241 -64 241 -132zM1920 34q0 -34 -51 -34h-282q-51 0 -51 34v80q51 -2 72.5 -3.5t16.5 -1.5h203q5 0 27.5 1.5t64.5 5.5v-82z" />
    <glyph glyph-name="B" unicode="B" 
d="M128 713q-162 -66 -162 -90q0 -23 162 -27v117zM1408 1019q-223 -25 -436 -66.5t-428 -99.5h864v166zM1408 1109h-896v-227q432 112 896 171v56zM2084 1021q0 5 -14 10q-42 15 -182 15h-96v-167q292 106 292 142zM1920 256q0 -118 -140 -193q-116 -63 -244 -63h-1357
q-51 0 -51 34v485q20 -1 39.5 -1.5t39.5 -0.5q94 0 169 4.5t136 12.5v-278h1024v341h-671q154 24 384.5 74t542.5 128v-11q128 -77 128 -191v-341zM2135 1019q0 -108 -635 -263q-409 -99 -788 -159q-148 -23 -277 -34.5t-244 -11.5q-276 0 -276 72q0 65 213 142v566
q0 34 51 34h1229q142 0 253 -66q131 -80 131 -212q23 2 45 3t44 1q254 0 254 -72z" />
    <glyph glyph-name="C" unicode="C" 
d="M128 869q-58 -4 -166 -24q-20 -8 -20 -12q0 -29 186 -89v125zM2109 577q0 18 -76 46q-311 116 -691.5 179.5t-829.5 74.5v-230q569 -118 1137 -118q361 0 447 36q13 7 13 12zM1920 34q0 -34 -51 -34h-1357q-128 0 -246 63q-138 75 -138 193v406q126 -39 384 -87v-319
h1357q51 0 51 -34v-188zM2161 579q0 -87 -425 -87q-187 0 -373.5 11t-382.5 33q-141 16 -290 41t-315 60q-486 103 -486 192q0 74 239 82v198q0 118 138 193q118 63 246 63h1357q51 0 51 -34v-188q0 -34 -51 -34h-1357v-196q149 -6 286 -16.5t269 -24.5q139 -16 288.5 -41
t317.5 -60q488 -104 488 -192z" />
    <glyph glyph-name="D" unicode="D" 
d="M128 594q-162 -68 -162 -91t162 -27v118zM1536 911q-527 -46 -1024 -186v-233q529 46 1024 186v233zM1536 1109h-1024v-346q500 131 1024 186v160zM2084 903q0 5 -17 10q-21 7 -57.5 10t-89.5 4v-118q164 68 164 94zM1920 256q0 -118 -140 -193q-116 -63 -244 -63h-1357
q-51 0 -51 34v365q265 0 384 21v-164h1024v350q109 26 204 56t180 62v-468zM2135 899q0 -66 -215 -141q-208 -73 -424.5 -130t-451.5 -102q-489 -93 -899 -93q-230 0 -230 70q0 68 213 142v686q0 34 51 34h1357q128 0 244 -63q140 -75 140 -193v-140q215 5 215 -70z" />
    <glyph glyph-name="E" unicode="E" 
d="M128 973q-28 -1 -67 -6t-90 -13q-17 -8 -17 -12q0 -26 174 -90v121zM1388 853q-224 48 -440 77t-436 41v-118h876zM2099 618q0 20 -179 89q1 -14 1.5 -26t0.5 -22q0 -62 -53 -62h-497q208 -18 379 -18q255 0 329 25q19 7 19 14zM1920 34q0 -34 -51 -34h-1690
q-51 0 -51 34v736q162 -46 359.5 -88.5t439.5 -84.5h-415v-341h1357q51 0 51 -34v-188zM2147 618q0 -80 -333 -80q-176 0 -357.5 15t-376.5 44q-168 26 -329 58t-324 70q-524 123 -524 215q0 69 225 77v314q0 34 51 34h1690q51 0 51 -34v-188q0 -34 -51 -34h-1357v-102
q148 -11 288 -26.5t280 -35.5q211 -30 352 -63q72 -16 129.5 -24t105.5 -8h42h27.5t31.5 1q34 1 59 1.5t42 0.5q56 0 56 -61q0 -13 -5 -38q227 -74 227 -136z" />
    <glyph glyph-name="F" unicode="F" horiz-adv-x="1983" 
d="M128 543q-101 -71 -101 -92q0 -14 36 -14h12q17 0 53 3v103zM512 597v-92q78 18 160 41t173 51h-333zM512 1109v-256h118q186 79 366 142t363 114h-847zM1920 1164v-10q3 -38 -32 -46q-5 -1 -21 -1.5t-44 -0.5q-20 0 -50 0.5t-72 1.5q-80 3 -119 3q-226 0 -860 -258h780
q429 208 454 304zM512 34q0 -34 -51 -34h-282q-51 0 -51 34v328q217 19 384 66v-394zM2009 1149q0 -103 -420 -296q-992 -457 -1487 -457q-126 0 -126 56q0 62 152 152v727q0 34 51 34h1690q56 0 56 -87q0 -15 -1.5 -33.5t-3.5 -41.5q89 -5 89 -54zM1920 631q0 -34 -51 -34
h-782q108 42 182 71t119 47q165 70 288 138h193q51 0 51 -34v-188z" />
    <glyph glyph-name="G" unicode="G" 
d="M128 840q-174 -9 -174 -31q0 -26 174 -90v121zM1536 686q-259 63 -513 100.5t-511 51.5v-234q257 -63 511 -100.5t513 -51.5v234zM2099 483q0 21 -179 89v-121q179 8 179 32zM1920 34q0 -34 -51 -34h-1357q-129 0 -244 63q-140 75 -140 193v379q52 -20 147 -46t237 -60
v-273h1024v126q114 -8 208.5 -10t175.5 2v-340zM2147 483q0 -77 -307 -77q-930 0 -1761 282q-176 62 -176 119q0 70 225 75v227q0 118 140 193q115 63 244 63h1357q51 0 51 -34v-188q0 -34 -51 -34h-1357v-235q277 -20 530 -55.5t494 -89.5q-2 15 -3.5 29t-1.5 27
q0 68 56 68h282q51 0 51 -34v-198q227 -74 227 -138z" />
    <glyph glyph-name="H" unicode="H" 
d="M128 645q-160 -66 -160 -94q0 -5 17 -10q20 -5 55.5 -8.5t87.5 -5.5v118zM512 597v-54q220 18 435 54h-435zM1536 964q-350 -30 -720 -111h720v111zM2084 956q0 5 -17 8q-46 11 -147 14v-118q164 68 164 96zM512 34q0 -34 -51 -34h-282q-51 0 -51 34v417q13 -1 24 -1.5
t20 -0.5h91q145 0 249 19v-434zM2135 951q0 -87 -445 -217q-133 -38 -269.5 -72t-283.5 -65q-548 -114 -936 -114q-286 0 -286 72q0 64 213 141v635q0 34 51 34h282q51 0 51 -34v-478h155l65 16q408 97 804 135v327q0 34 51 34h282q51 0 51 -34v-310q215 0 215 -70zM1920 34
q0 -34 -51 -34h-282q-51 0 -51 34v563h-246q226 55 318 81q90 23 166.5 47.5t145.5 49.5v-741z" />
    <glyph glyph-name="I" unicode="I" horiz-adv-x="640" 
d="M128 1031q-96 -36 -203 -91q-164 -80 -164 -114q0 -12 77 -12q72 0 143.5 6.5t146.5 19.5v191zM882 1149q0 10 -71 10q-73 0 -147 -6.5t-152 -19.5v-193q51 19 102 42t106 49q162 79 162 118zM512 34q0 -34 -51 -34h-282q-51 0 -51 34v732q109 23 204 49t180 55v-836z
M923 1145q0 -94 -348 -217q-245 -88 -447 -128q-72 -14 -138.5 -21.5t-132.5 -7.5q-137 0 -137 57q0 97 408 240v263q0 34 51 34h282q51 0 51 -34v-159q75 14 144 21.5t132 7.5q135 0 135 -56z" />
    <glyph glyph-name="J" unicode="J" horiz-adv-x="1471" 
d="M959 945q-316 -67 -586 -157t-499 -204q-159 -80 -159 -111q0 -14 87 -14q482 0 1157 203v283zM1758 1019q0 15 -77 15q-148 0 -338 -24v-215q415 166 415 224zM1343 256q0 -118 -138 -193q-116 -63 -246 -63h-845q-51 0 -51 34v188q0 34 51 34h845v335q172 46 195 54
q57 17 103.5 34t85.5 34v-457zM1809 1017q0 -57 -201 -157q-66 -32 -132 -60.5t-133 -51.5q-342 -125 -746 -219q-481 -113 -759 -113q-174 0 -174 60q0 52 152 132q421 220 1143 373v350q0 34 51 34h282q51 0 51 -34v-280q85 13 157 19.5t135 6.5q174 0 174 -60z" />
    <glyph glyph-name="K" unicode="K" 
d="M128 901q-12 1 -22.5 1.5t-18.5 0.5q-61 0 -61 -16q0 -19 102 -83v97zM790 794q-75 17 -144.5 32t-133.5 27v-85h241zM1536 512h-766q196 -69 385 -119t381 -84v203zM2024 275q0 19 -104 85v-97q14 -1 24.5 -1.5t18.5 -0.5q61 0 61 14zM512 512v-478q0 -34 -51 -34h-282
q-51 0 -51 34v678q228 -133 427 -200h-43zM2074 278q0 -58 -142 -58q-423 0 -1275 292q-94 32 -189 70.5t-195 86.5q-297 139 -297 217q0 36 60 51q40 10 92 7v387q0 34 51 34h282q51 0 51 -34v-438q75 -16 153.5 -34t163.5 -40l804 536q16 10 36 10q31 0 141 -72
q110 -71 110 -95q0 -14 -15 -24l-610 -406h241q128 0 244 -63q140 -75 140 -193v-94q154 -82 154 -140zM1920 34q0 -34 -51 -34h-282q-51 0 -51 34v202q108 -20 202.5 -32.5t181.5 -17.5v-152z" />
    <glyph glyph-name="L" unicode="L" horiz-adv-x="1983" 
d="M128 671q-162 -80 -162 -110q0 -13 90 -13h72v123zM2019 1087q0 14 -104 14q-617 0 -1403 -272v-245q865 126 1446 447q61 34 61 56zM1920 34q0 -34 -51 -34h-1690q-51 0 -51 34v435q112 4 207.5 14t176.5 26v-253h1357q51 0 51 -34v-188zM2070 1085q0 -94 -437 -252
q-135 -48 -271 -90t-280 -79q-154 -40 -294.5 -70t-275.5 -51q-126 -20 -228.5 -30t-189.5 -10q-179 0 -179 58q0 75 213 164v606q0 34 51 34h282q51 0 51 -34v-462q838 274 1377 274q181 0 181 -58z" />
    <glyph glyph-name="M" unicode="M" horiz-adv-x="2816" 
d="M128 560q-234 -87 -234 -128q0 -7 24 -14q58 -17 210 -24v166zM1215 855q-186 -35 -359.5 -76.5t-343.5 -90.5v-289q174 10 347.5 27t355.5 43v386zM1215 1109h-703v-377q169 45 343 84t360 75v218zM2304 990q-329 -17 -705 -72v-386q189 35 363 76.5t342 89.5v292z
M2304 1109h-705v-153q379 58 705 78v75zM2924 959q0 4 -12 9q-23 8 -78 14.5t-146 10.5v-165q236 89 236 131zM512 34q0 -34 -51 -34h-282q-51 0 -51 34v275q22 -2 49.5 -3t59.5 -1q79 0 147 3.5t128 10.5v-285zM1599 34q0 -34 -51 -34h-282q-51 0 -51 34v364
q103 12 198 28.5t186 36.5v-429zM2985 952q0 -132 -790 -322q-526 -127 -980 -198q-294 -46 -545.5 -68.5t-466.5 -22.5q-370 0 -370 94q0 87 295 181v493q0 118 140 193q115 63 244 63h1792q128 0 244 -63q140 -75 140 -193v-65q97 0 171 -13q126 -24 126 -79zM2688 34
q0 -34 -51 -34h-282q-51 0 -51 34v587q129 29 223.5 58t160.5 58v-703z" />
    <glyph glyph-name="N" unicode="N" 
d="M128 768q-26 0 -63.5 -3.5t-88.5 -10.5q-19 -4 -19 -12q0 -25 171 -92v118zM1536 601q-503 129 -1024 162v-234q257 -66 511.5 -106.5t512.5 -57.5v236zM1536 1109h-1024v-310q275 -23 528.5 -61.5t495.5 -95.5v467zM2094 389q0 22 -174 91v-120q174 7 174 29zM512 34
q0 -34 -51 -34h-282q-51 0 -51 34v531q135 -72 384 -111v-420zM2145 391q0 -74 -261 -74q-211 0 -430.5 19t-458.5 57q-245 38 -460.5 89t-406.5 117q-224 77 -224 140q0 71 224 73v297q0 118 140 193q115 63 244 63h1024q128 0 244 -63q140 -75 140 -193v-578
q225 -74 225 -140zM1920 34q0 -34 -51 -34h-282q-51 0 -51 34v263q217 -24 384 -14v-249z" />
    <glyph glyph-name="O" unicode="O" 
d="M128 1039h-56q-75 0 -75 -17q0 -21 131 -92v109zM1536 758q-247 87 -501.5 148.5t-522.5 98.5v-239q498 -177 1024 -249v241zM1536 1109h-1024v-65q275 -43 529 -104t495 -140v309zM2055 503q0 20 -135 91v-109h38q97 0 97 18zM1920 256q0 -118 -140 -193
q-116 -63 -244 -63h-1024q-129 0 -244 63q-140 75 -140 193v585q124 -73 384 -152v-433h1024v189q200 -37 384 -37v-152zM2104 503q0 -61 -184 -61q-349 0 -911 140q-528 131 -881 294q-183 85 -183 145q0 68 183 61q0 137 130 215q110 68 254 68h1024q128 0 244 -63
q140 -75 140 -193v-460q184 -81 184 -146z" />
    <glyph glyph-name="P" unicode="P" horiz-adv-x="1983" 
d="M128 384q-193 -76 -193 -106q0 -3 9 -7q20 -8 66 -12t118 -5v130zM512 597v-47q54 14 102 25.5t93 21.5h-195zM2050 683q0 9 -46 13q-59 7 -159 9q-119 -108 -309 -108h-671q-47 0 -353 -85v-241q443 41 810 130.5t659 228.5q69 31 69 53zM1536 1109h-1024v-256h1024v256
zM512 34q0 -34 -51 -34h-282q-51 0 -51 34v142q14 -1 30.5 -1.5t36.5 -0.5q88 0 166.5 5.5t150.5 16.5v-162zM2101 678q0 -91 -463 -224q-281 -80 -576 -138q-530 -106 -903 -106q-275 0 -275 72q0 71 244 153v896q0 34 51 34h1357q128 0 244 -63q140 -75 140 -193v-256
q0 -55 -34 -104q215 0 215 -71z" />
    <glyph glyph-name="Q" unicode="Q" horiz-adv-x="2176" 
d="M128 480q-90 -56 -90 -79q0 -12 41 -12h49v91zM1536 980q-536 -99 -1024 -306v-239q538 96 1024 297v248zM1536 1109h-1024v-394q536 212 1024 306v88zM2034 1017q0 12 -41 12h-27q-8 0 -20 -0.5t-26 -1.5v-104q114 70 114 94zM2048 34q0 -34 -51 -34h-1485
q-128 0 -246 63q-138 75 -138 193v56q142 4 384 45v-101h1024v403q109 40 204 83t180 89v-575q16 1 31 1.5t29 0.5q68 0 68 -36v-188zM2086 1012q0 -106 -548 -318t-1026 -303q-230 -45 -384 -45q-140 0 -140 60q0 59 140 133v570q0 118 140 193q115 63 244 63h1024
q128 0 244 -63q140 -75 140 -193v-39h14q152 2 152 -58z" />
    <glyph glyph-name="R" unicode="R" 
d="M128 1084q-35 3 -41 3q-55 0 -55 -14q0 -20 96 -83v94zM1184 853q-338 115 -672 180v-180h672zM1536 597h-495q253 -77 495 -123v123zM1408 1109h-896v-36q188 -39 370.5 -89.5t368.5 -113.5q51 -17 46 -17h111v256zM2017 437q0 19 -97 82v-94q11 -1 20 -1.5t16 -0.5
q61 0 61 14zM512 597v-563q0 -34 -51 -34h-282q-51 0 -51 34v862q137 -87 308.5 -161t382.5 -138h-307zM2065 439q0 -58 -131 -58q-152 0 -398 54q-858 191 -1408 495q-145 79 -145 140q0 34 58 50q46 12 87 8v203q0 34 51 34h1229q128 0 244 -63q140 -75 140 -193v-321
q129 -77 128 -209q145 -81 145 -140zM1920 34q0 -34 -51 -34h-282q-51 0 -51 34v367q115 -24 210 -37.5t174 -17.5v-312z" />
    <glyph glyph-name="S" unicode="S" 
d="M128 1097q-10 1 -17.5 1.5t-13.5 0.5q-56 0 -56 -14q0 -18 87 -78v90zM1188 853q-348 125 -676 191v-191h676zM1536 597h-492q130 -40 252 -72t240 -56v128zM2007 427q0 18 -87 78v-90q10 -1 17 -1.5t12 -0.5h14q44 0 44 14zM1920 34q0 -34 -51 -34h-1690q-51 0 -51 34
v188q0 34 51 34h1357v138q222 -51 384 -54v-306zM512 597q-129 0 -244 63q-140 77 -140 193v58q324 -179 698 -314h-314zM2058 430q0 -56 -126 -56q-164 0 -396 54q-830 195 -1408 517q-137 77 -137 137q0 35 55 48q43 12 82 8v193q0 34 51 34h1690q51 0 51 -34v-188
q0 -34 -51 -34h-1357v-27q361 -80 660 -186l123 -43h241q128 0 244 -63q140 -75 140 -193v-30q138 -80 138 -137z" />
    <glyph glyph-name="T" unicode="T" horiz-adv-x="1843" 
d="M729 891q-238 -52 -434 -115t-360 -139q-68 -33 -68 -52q0 -3 7 -6q40 -18 215 -18q148 0 306 13t334 39v278zM1981 990q0 10 -63 15q-35 4 -76 5.5t-89 1.5q-292 0 -640 -51v-278q246 52 444.5 115t353.5 139q70 34 70 53zM1113 34q0 -34 -51 -34h-282q-51 0 -51 34v509
q109 12 204 30t180 41v-580zM2033 985q0 -84 -410 -207q-233 -71 -510 -129q-611 -132 -1050 -132q-251 0 -251 72q0 83 408 206q112 35 238.5 67t270.5 63v184h-652q-51 0 -51 34v188q0 34 51 34h1689q52 0 52 -34v-188q0 -34 -52 -34h-653v-112q190 29 354 44t311 15
q255 0 255 -71z" />
    <glyph glyph-name="U" unicode="U" 
d="M128 1012q-174 -8 -174 -31q0 -26 174 -90v121zM1536 860q-505 123 -1024 150v-233q257 -63 511 -100.5t513 -51.5v235zM2099 655q0 23 -179 89v-121q179 8 179 32zM1920 256q0 -118 -138 -193q-119 -63 -246 -63h-1024q-129 0 -244 63q-140 75 -140 193v551
q174 -73 384 -106v-445h1024v300q121 -8 216.5 -10t167.5 0v-290zM2147 657q0 -77 -299 -77q-600 0 -1336 156q-176 37 -341 90q-268 87 -268 154q0 71 225 76v275q0 34 51 34h282q51 0 51 -34v-285q277 -20 530 -55.5t494 -89.5v430q0 34 51 34h282q51 0 51 -34v-537
q227 -74 227 -137z" />
    <glyph glyph-name="V" unicode="V" 
d="M128 543q-160 -67 -160 -94q0 -5 17 -10q43 -11 143 -14v118zM1536 862q-261 -23 -515.5 -69.5t-508.5 -118.5v-235q526 43 1024 186v237zM2084 853q0 4 -17 9q-20 5 -56.5 8.5t-90.5 5.5v-118q164 66 164 95zM1920 256q0 -123 -138 -196q-113 -60 -246 -60h-1357
q-51 0 -51 34v314q48 -3 89 -3q85 0 158.5 5t136.5 15v-109h1024v299q226 55 384 117v-416zM2135 848q0 -106 -599 -259q-802 -207 -1369 -207q-252 0 -252 70q0 62 213 142v737q0 34 51 34h282q51 0 51 -34v-619q544 142 1024 189v430q0 34 51 34h282q51 0 51 -34v-413
q215 0 215 -70z" />
    <glyph glyph-name="W" unicode="W" horiz-adv-x="2816" 
d="M128 577q-162 -53 -162 -84q0 -5 17 -10q20 -5 55.5 -9t89.5 -8v111zM1215 831q-192 -30 -365.5 -65t-337.5 -77v-225q165 6 339 20.5t364 37.5v309zM2304 942q-175 -7 -349.5 -21t-355.5 -35v-311q198 31 372 66t333 74v227zM2852 915q0 2 -9 7q-16 7 -54 11.5t-101 8.5
v-113q164 56 164 86zM2688 256q0 -118 -140 -193q-116 -63 -244 -63h-1792q-129 0 -244 63q-140 75 -140 193v135q52 -2 101 -3.5t95 -1.5q55 0 101.5 2t86.5 6v-138h703v203q130 14 225 27.5t159 27.5v-258h705v393q247 54 384 100v-493zM2908 910q0 -45 -143 -101
q-99 -38 -258.5 -78.5t-386.5 -85.5q-1113 -222 -1878 -222q-332 0 -332 74q0 58 218 126v708q0 34 51 34h282q51 0 51 -34v-607q163 37 337 70t366 64v473q0 34 51 34h282q51 0 51 -34v-416q379 48 705 63v353q0 34 51 34h282q51 0 51 -34v-350q220 -6 220 -71z" />
    <glyph glyph-name="X" unicode="X" horiz-adv-x="1920" 
d="M503 847q-237 30 -455 30q-128 0 -128 -22t164 -99q109 -51 230.5 -96t260.5 -85l133 108zM2002 387q0 26 -167 103q-245 113 -601 210l-24 -17l323 -304q139 -12 356 -12q113 0 113 20zM374 12q-17 -12 -41 -12q-34 0 -152 64t-118 88t440 365q48 -14 94 -29t92 -29
q115 -32 192 -41zM1855 152q0 -24 -117 -88q-115 -64 -151 -64q-25 0 -41 12l-471 377q187 -38 340.5 -62t279.5 -32q160 -118 160 -143zM2053 387q0 -57 -193 -56h-61q-204 1 -428 30.5t-475 87.5q-241 55 -456 124t-414 157q-157 70 -157 127q0 65 203 65q146 0 379 -33
q-388 298 -388 324q0 24 118 88t152 64q24 0 41 -12l585 -469l587 469q16 12 41 12q36 0 151 -64q117 -65 117 -88q0 -13 -10 -22l-575 -462q233 -60 437 -135q346 -126 346 -207z" />
    <glyph glyph-name="Y" unicode="Y" 
d="M456 601q-168 17 -265 114q-194 -90 -194 -124q0 -16 107 -16q75 0 162 6.5t190 19.5zM1536 1096q-521 -72 -1007 -243h1007v243zM2053 1116q0 12 -85 12h-48v-107q133 67 133 95zM1920 256q0 -118 -140 -193q-116 -63 -244 -63h-845q-51 0 -51 34v188q0 34 51 34h845
v341h-712q260 57 532 140t564 195v-676zM2104 1114q0 -69 -184 -148q-60 -26 -174 -65.5t-287 -91.5q-251 -76 -440 -129t-323 -83q-299 -66 -571 -66q-180 0 -180 60q0 69 214 162q-31 46 -31 100v478q0 34 51 34h282q51 0 51 -34v-445q550 181 1024 252v193q0 34 51 34
h282q51 0 51 -34v-159h10q174 1 174 -58z" />
    <glyph glyph-name="Z" unicode="Z" 
d="M128 505q-87 -60 -87 -78q0 -14 41 -14h19q4 0 10.5 0.5t16.5 1.5v90zM512 597v-128q120 24 241.5 56t250.5 72h-492zM1536 1044q-164 -33 -331.5 -80.5t-344.5 -110.5h676v191zM2007 1085q0 14 -56 14q-6 0 -13.5 -0.5t-17.5 -1.5v-90q87 60 87 78zM1920 34
q0 -34 -51 -34h-1690q-51 0 -51 34v306q162 3 384 54v-138h1357q51 0 51 -34v-188zM2058 1082q0 -61 -138 -137q-290 -161 -642.5 -290.5t-765.5 -226.5q-233 -54 -396 -54q-125 0 -125 56q0 57 137 137v30q0 118 140 193q115 63 244 63q244 0 364 43q298 106 660 186v27
h-1357q-51 0 -51 34v188q0 34 51 34h1690q51 0 51 -34v-193h10q128 2 128 -56zM1920 853q0 -116 -140 -193q-116 -63 -244 -63h-316q192 69 365 146t335 168v-58z" />
    <glyph glyph-name="bracketleft" unicode="[" horiz-adv-x="1024" 
d="M896 -305q0 -35 -51 -35h-666q-51 0 -51 35v1636q0 34 51 34h666q51 0 51 -34v-188q0 -34 -51 -34h-333v-1193h333q51 0 51 -34v-187z" />
    <glyph glyph-name="backslash" unicode="\" horiz-adv-x="1009" 
d="M1010 -253q0 -18 -37 -34q-14 -7 -141 -28q-125 -21 -146 -21q-41 0 -63 49q-8 20 -15 41t-14 43l-475 1169q-17 39 -35 78t-36 79q-48 115 -48 155q0 19 36 34q8 4 42.5 10.5t97.5 17.5q119 22 147 22q40 0 63 -50q8 -20 15 -41l14 -42l496 -1227q14 -32 29 -64t29 -64
q41 -97 41 -127z" />
    <glyph glyph-name="bracketright" unicode="]" horiz-adv-x="1024" 
d="M896 -305q0 -35 -51 -35h-666q-51 0 -51 35v187q0 34 51 34h333v1193h-333q-51 0 -51 34v188q0 34 51 34h666q51 0 51 -34v-1636z" />
    <glyph glyph-name="a" unicode="a" 
d="M1408 1109h-768v-256h768v256zM1920 34q0 -34 -51 -34h-282q-51 0 -51 34v563h-1024v-563q0 -34 -51 -34h-282q-51 0 -51 34v563q0 120 138 197q-10 26 -10 59v256q0 118 138 193q118 63 246 63h768q127 0 246 -63q138 -75 138 -193v-256q0 -33 -10 -59q138 -77 138 -197
v-563z" />
    <glyph glyph-name="b" unicode="b" 
d="M1536 597h-1024v-341h1024v341zM1408 1109h-896v-256h896v256zM1920 256q0 -118 -138 -193q-119 -63 -246 -63h-1357q-51 0 -51 34v1297q0 34 51 34h1229q127 0 246 -63q138 -74 138 -193v-321q128 -77 128 -191v-341z" />
    <glyph glyph-name="c" unicode="c" 
d="M1920 34q0 -34 -51 -34h-1357q-131 0 -246 63q-138 75 -138 193v853q0 118 138 193q115 63 246 63h1357q51 0 51 -34v-188q0 -34 -51 -34h-1357v-853h1357q51 0 51 -34v-188z" />
    <glyph glyph-name="d" unicode="d" 
d="M1536 1109h-1024v-853h1024v853zM1920 256q0 -120 -138 -193q-116 -63 -246 -63h-1357q-51 0 -51 34v1297q0 34 51 34h1357q130 0 246 -63q138 -75 138 -193v-853z" />
    <glyph glyph-name="e" unicode="e" 
d="M1920 34q0 -34 -51 -34h-1690q-51 0 -51 34v1297q0 34 51 34h1690q51 0 51 -34v-188q0 -34 -51 -34h-1357v-256h1357q51 0 51 -34v-188q0 -34 -51 -34h-1357v-341h1357q51 0 51 -34v-188z" />
    <glyph glyph-name="f" unicode="f" horiz-adv-x="1983" 
d="M1920 631q0 -34 -51 -34h-1357v-563q0 -34 -51 -34h-282q-51 0 -51 34v1297q0 34 51 34h1690q51 0 51 -34v-188q0 -34 -51 -34h-1357v-256h1357q51 0 51 -34v-188z" />
    <glyph glyph-name="g" unicode="g" 
d="M1920 34q0 -34 -51 -34h-1357q-131 0 -246 63q-138 75 -138 193v853q0 118 138 193q115 63 246 63h1357q51 0 51 -34v-188q0 -34 -51 -34h-1357v-853h1024v563q0 34 51 34h282q51 0 51 -34v-785z" />
    <glyph glyph-name="h" unicode="h" 
d="M1920 34q0 -34 -51 -34h-282q-51 0 -51 34v563h-1024v-563q0 -34 -51 -34h-282q-51 0 -51 34v1297q0 34 51 34h282q51 0 51 -34v-478h1024v478q0 34 51 34h282q51 0 51 -34v-1297z" />
    <glyph glyph-name="i" unicode="i" horiz-adv-x="640" 
d="M512 34q0 -34 -51 -34h-282q-51 0 -51 34v1297q0 34 51 34h282q51 0 51 -34v-1297z" />
    <glyph glyph-name="j" unicode="j" horiz-adv-x="1471" 
d="M1343 256q0 -118 -138 -193q-116 -63 -246 -63h-845q-51 0 -51 34v188q0 34 51 34h845v1075q0 34 51 34h282q51 0 51 -34v-1075z" />
    <glyph glyph-name="k" unicode="k" 
d="M1920 34q0 -34 -51 -34h-282q-51 0 -51 34v478h-1024v-478q0 -34 -51 -34h-282q-51 0 -51 34v1297q0 34 51 34h282q51 0 51 -34v-563h241l880 587q16 10 36 10q31 0 141 -72q110 -71 110 -95q0 -14 -15 -24l-610 -406h241q128 0 244 -63q140 -75 140 -193v-478z" />
    <glyph glyph-name="l" unicode="l" horiz-adv-x="1983" 
d="M1920 34q0 -34 -51 -34h-1690q-51 0 -51 34v1297q0 34 51 34h282q51 0 51 -34v-1075h1357q51 0 51 -34v-188z" />
    <glyph glyph-name="m" unicode="m" horiz-adv-x="2816" 
d="M2688 34q0 -34 -51 -34h-282q-51 0 -51 34v1075h-705v-1075q0 -34 -51 -34h-282q-51 0 -51 34v1075h-703v-1075q0 -34 -51 -34h-282q-51 0 -51 34v1075q0 118 138 193q115 63 246 63h1792q130 0 246 -63q138 -75 138 -193v-1075z" />
    <glyph glyph-name="n" unicode="n" 
d="M1920 34q0 -34 -51 -34h-282q-51 0 -51 34v1075h-1024v-1075q0 -34 -51 -34h-282q-51 0 -51 34v1075q0 118 138 193q115 63 246 63h1024q130 0 246 -63q138 -75 138 -193v-1075z" />
    <glyph glyph-name="o" unicode="o" 
d="M1536 1109h-1024v-853h1024v853zM1920 256q0 -118 -138 -193q-116 -63 -246 -63h-1024q-131 0 -246 63q-138 75 -138 193v853q0 118 138 193q115 63 246 63h1024q127 0 246 -63q138 -75 138 -193v-853z" />
    <glyph glyph-name="p" unicode="p" horiz-adv-x="1983" 
d="M1536 1109h-1024v-256h1024v256zM1920 853q0 -117 -138 -193q-116 -63 -246 -63h-1024v-563q0 -34 -51 -34h-282q-51 0 -51 34v1297q0 34 51 34h1357q130 0 246 -63q138 -75 138 -193v-256z" />
    <glyph glyph-name="q" unicode="q" horiz-adv-x="2176" 
d="M1536 1109h-1024v-853h1024v853zM2048 34q0 -34 -51 -34h-1485q-131 0 -246 63q-138 75 -138 193v853q0 118 138 193q115 63 246 63h1024q130 0 246 -63q138 -75 138 -193v-853l58 2q70 0 70 -36v-188z" />
    <glyph glyph-name="r" unicode="r" 
d="M1408 1109h-896v-256h896v256zM1920 34q0 -34 -51 -34h-282q-51 0 -51 34v563h-1024v-563q0 -34 -51 -34h-282q-51 0 -51 34v1297q0 34 51 34h1229q127 0 246 -63q138 -74 138 -193v-321q128 -77 128 -191v-563z" />
    <glyph glyph-name="s" unicode="s" 
d="M1920 34q0 -34 -51 -34h-1690q-51 0 -51 34v188q0 34 51 34h1357v341h-1024q-131 0 -246 63q-138 76 -138 193v478q0 34 51 34h1690q51 0 51 -34v-188q0 -34 -51 -34h-1357v-256h1024q130 0 246 -63q138 -75 138 -193v-563z" />
    <glyph glyph-name="t" unicode="t" horiz-adv-x="1843" 
d="M1818 1143q0 -34 -52 -34h-653v-1075q0 -34 -51 -34h-282q-51 0 -51 34v1075h-652q-51 0 -51 34v188q0 34 51 34h1689q52 0 52 -34v-188z" />
    <glyph glyph-name="u" unicode="u" 
d="M1920 256q0 -118 -138 -193q-116 -63 -246 -63h-1024q-131 0 -246 63q-138 75 -138 193v1075q0 34 51 34h282q51 0 51 -34v-1075h1024v1075q0 34 51 34h282q51 0 51 -34v-1075z" />
    <glyph glyph-name="v" unicode="v" 
d="M1920 256q0 -118 -138 -193q-119 -63 -246 -63h-1357q-51 0 -51 34v1297q0 34 51 34h282q51 0 51 -34v-1075h1024v1075q0 34 51 34h282q51 0 51 -34v-1075z" />
    <glyph glyph-name="w" unicode="w" horiz-adv-x="2816" 
d="M2688 256q0 -118 -138 -193q-116 -63 -246 -63h-1792q-131 0 -246 63q-138 75 -138 193v1075q0 34 51 34h282q51 0 51 -34v-1075h703v1075q0 34 51 34h282q51 0 51 -34v-1075h705v1075q0 34 51 34h282q51 0 51 -34v-1075z" />
    <glyph glyph-name="x" unicode="x" horiz-adv-x="1920" 
d="M1855 152q0 -24 -118 -88q-115 -64 -150 -64q-25 0 -41 12l-587 469l-585 -469q-17 -12 -41 -12q-34 0 -152 64t-118 88q0 15 10 22l635 509l-635 508q-10 9 -10 22q0 24 118 88t152 64q24 0 41 -12l585 -469l587 469q16 12 41 12q35 0 150 -64q118 -64 118 -88
q0 -13 -10 -22l-633 -508l633 -509q10 -7 10 -22z" />
    <glyph glyph-name="y" unicode="y" 
d="M1920 256q0 -118 -138 -193q-116 -63 -246 -63h-845q-51 0 -51 34v188q0 34 51 34h845v341h-1024q-131 0 -246 63q-138 76 -138 193v478q0 34 51 34h282q51 0 51 -34v-478h1024v478q0 34 51 34h282q51 0 51 -34v-1075z" />
    <glyph glyph-name="z" unicode="z" 
d="M1920 34q0 -34 -51 -34h-1690q-51 0 -51 34v563q0 118 138 193q115 63 246 63h1024v256h-1357q-51 0 -51 34v188q0 34 51 34h1690q51 0 51 -34v-478q0 -117 -138 -193q-116 -63 -246 -63h-1024v-341h1357q51 0 51 -34v-188z" />
    <glyph glyph-name="braceleft" unicode="{" horiz-adv-x="1024" 
d="M896 -305q0 -35 -51 -35h-666q-51 0 -51 35v1636q0 34 51 34h666q51 0 51 -34v-188q0 -34 -51 -34h-333v-1193h333q51 0 51 -34v-187z" />
    <glyph glyph-name="bar" unicode="|" horiz-adv-x="640" 
d="M512 -305q0 -35 -51 -35h-282q-51 0 -51 35v1636q0 34 51 34h282q51 0 51 -34v-1636z" />
    <glyph glyph-name="braceright" unicode="}" horiz-adv-x="1024" 
d="M896 -305q0 -35 -51 -35h-666q-51 0 -51 35v187q0 34 51 34h333v1193h-333q-51 0 -51 34v188q0 34 51 34h666q51 0 51 -34v-1636z" />
    <glyph glyph-name="quotesinglbase" horiz-adv-x="640" 
d="M512 89q0 -106 -102 -181q-89 -65 -203 -72l-7 33q99 15 107 134q-63 -3 -82 -3q-97 0 -97 38v187q0 34 51 34h282q51 0 51 -34v-136z" />
    <glyph glyph-name="quotesinglbase" unicode="&#x201a;" horiz-adv-x="640" 
d="M512 89q0 -106 -102 -181q-89 -65 -203 -72l-7 33q99 15 107 134q-63 -3 -82 -3q-97 0 -97 38v187q0 34 51 34h282q51 0 51 -34v-136z" />
    <glyph glyph-name="quotedblbase" horiz-adv-x="1075" 
d="M512 89q0 -106 -102 -181q-89 -65 -203 -72l-7 33q99 15 107 134q-63 -3 -82 -3q-97 0 -97 38v187q0 34 51 34h282q51 0 51 -34v-136zM947 89q0 -106 -102 -181q-89 -65 -203 -72l-7 33q99 15 107 134q-63 -3 -82 -3q-97 0 -97 38v187q0 34 51 34h282q51 0 51 -34v-136z
" />
    <glyph glyph-name="quotedblbase" unicode="&#x201e;" horiz-adv-x="1075" 
d="M512 89q0 -106 -102 -181q-89 -65 -203 -72l-7 33q99 15 107 134q-63 -3 -82 -3q-97 0 -97 38v187q0 34 51 34h282q51 0 51 -34v-136zM947 89q0 -106 -102 -181q-89 -65 -203 -72l-7 33q99 15 107 134q-63 -3 -82 -3q-97 0 -97 38v187q0 34 51 34h282q51 0 51 -34v-136z
" />
    <glyph glyph-name="quoteleft" horiz-adv-x="640" 
d="M512 975q0 -35 -51 -35h-282q-51 0 -51 35v136q0 107 102 181q88 67 202 73l8 -32q-99 -17 -107 -137q32 2 53 3t29 1q97 0 97 -38v-187z" />
    <glyph glyph-name="quoteleft" unicode="&#x2018;" horiz-adv-x="640" 
d="M512 975q0 -35 -51 -35h-282q-51 0 -51 35v136q0 107 102 181q88 67 202 73l8 -32q-99 -17 -107 -137q32 2 53 3t29 1q97 0 97 -38v-187z" />
    <glyph glyph-name="quoteright" horiz-adv-x="640" 
d="M512 1195q0 -108 -102 -181q-88 -67 -203 -74l-7 33q99 17 107 136q-63 -3 -82 -3q-97 0 -97 37v188q0 34 51 34h282q51 0 51 -34v-136z" />
    <glyph glyph-name="quoteright" unicode="&#x2019;" horiz-adv-x="640" 
d="M512 1195q0 -108 -102 -181q-88 -67 -203 -74l-7 33q99 17 107 136q-63 -3 -82 -3q-97 0 -97 37v188q0 34 51 34h282q51 0 51 -34v-136z" />
    <glyph glyph-name="quotedblleft" horiz-adv-x="1075" 
d="M512 975q0 -35 -51 -35h-282q-51 0 -51 35v136q0 107 102 181q88 67 202 73l8 -32q-99 -17 -107 -137q32 2 53 3t29 1q97 0 97 -38v-187zM947 975q0 -35 -51 -35h-282q-51 0 -51 35v136q0 108 103 181q88 67 201 73l9 -32q-99 -17 -108 -137q32 2 53 3t29 1q97 0 97 -38
v-187z" />
    <glyph glyph-name="quotedblleft" unicode="&#x201c;" horiz-adv-x="1075" 
d="M512 975q0 -35 -51 -35h-282q-51 0 -51 35v136q0 107 102 181q88 67 202 73l8 -32q-99 -17 -107 -137q32 2 53 3t29 1q97 0 97 -38v-187zM947 975q0 -35 -51 -35h-282q-51 0 -51 35v136q0 108 103 181q88 67 201 73l9 -32q-99 -17 -108 -137q32 2 53 3t29 1q97 0 97 -38
v-187z" />
    <glyph glyph-name="quotedblright" horiz-adv-x="1075" 
d="M512 1195q0 -108 -102 -181q-88 -67 -203 -74l-7 33q99 17 107 136q-63 -3 -82 -3q-97 0 -97 37v188q0 34 51 34h282q51 0 51 -34v-136zM947 1195q0 -108 -102 -181q-88 -67 -203 -74l-7 33q99 17 107 136q-63 -3 -82 -3q-97 0 -97 37v188q0 34 51 34h282q51 0 51 -34
v-136z" />
    <glyph glyph-name="quotedblright" unicode="&#x201d;" horiz-adv-x="1075" 
d="M512 1195q0 -108 -102 -181q-88 -67 -203 -74l-7 33q99 17 107 136q-63 -3 -82 -3q-97 0 -97 37v188q0 34 51 34h282q51 0 51 -34v-136zM947 1195q0 -108 -102 -181q-88 -67 -203 -74l-7 33q99 17 107 136q-63 -3 -82 -3q-97 0 -97 37v188q0 34 51 34h282q51 0 51 -34
v-136z" />
    <glyph glyph-name="exclamdown" unicode="&#xa1;" horiz-adv-x="640" 
d="M512 34q0 -34 -51 -34h-282q-51 0 -51 34v956q0 34 51 34h282q51 0 51 -34v-956zM512 1143q0 -34 -51 -34h-282q-51 0 -51 34v188q0 34 51 34h282q51 0 51 -34v-188z" />
    <glyph glyph-name="cent" unicode="&#xa2;" 
d="M1920 162q0 -34 -51 -34h-654q2 -9 3.5 -28.5t1.5 -31.5q0 -68 -56 -68h-282q-54 0 -54 70q0 -10 3 58h-319q-128 0 -246 63q-138 75 -138 193v597q0 118 138 193q118 63 246 63h319q0 9 -1.5 28.5t-1.5 31.5q0 68 54 68h282q56 0 56 -70q0 5 -1.5 -9t-3.5 -49h654
q51 0 51 -34v-188q0 -34 -51 -34h-1357v-597h1357q51 0 51 -34v-188z" />
    <glyph glyph-name="questiondown" unicode="&#xbf;" 
d="M1920 34q0 -34 -51 -34h-1357q-131 0 -246 63q-138 75 -138 193v256q0 118 138 193q115 63 246 63h1024v222q0 34 51 34h282q51 0 51 -34v-222q0 -118 -138 -193q-116 -63 -246 -63h-1024v-256h1357q51 0 51 -34v-188zM1920 1143q0 -34 -51 -34h-282q-51 0 -51 34v188
q0 34 51 34h282q51 0 51 -34v-188z" />
    <glyph glyph-name="quotereversed" unicode="&#x201b;" horiz-adv-x="640" 
d="M512 1143q0 -42 -179 -34q8 -119 107 -136l-8 -33q-114 7 -202 74q-102 73 -102 181v136q0 34 51 34h282q51 0 51 -34v-188z" />
  </font>
</defs>
</svg>
